if (_typeface_js && _typeface_js.loadFace) _typeface_js.loadFace({"glyphs":{"0":{"ha":831,"x_min":0,"x_max":0,"o":"m 437 -37 b 637 55 517 -29 583 1 b 757 256 690 109 730 175 b 798 509 783 336 797 420 b 758 760 798 598 785 682 b 639 951 732 838 692 902 b 439 1027 585 1001 519 1026 b 212 945 347 1025 272 998 b 77 743 151 892 106 825 b 34 484 48 661 34 575 l 34 480 b 81 222 35 389 51 302 b 212 32 112 141 155 78 b 415 -37 269 -14 336 -37 b 437 -37 422 -37 430 -37 z m 463 840 l 471 840 b 581 779 517 840 553 820 b 635 636 610 735 627 688 b 646 505 642 584 646 541 b 639 402 646 471 644 437 b 587 218 630 331 613 270 b 484 126 560 167 526 136 b 460 124 475 125 467 124 b 357 179 419 124 385 142 b 291 330 323 222 302 272 b 275 484 280 387 275 438 b 279 564 275 510 276 537 b 336 752 286 637 306 700 b 463 840 367 804 409 833 z "},"1":{"ha":298,"x_min":0,"x_max":0,"o":"m 264 -3 l 264 987 b 231 1021 264 1003 253 1015 b 155 1031 208 1027 182 1031 l 149 1031 b 69 1019 119 1030 93 1026 b 34 987 45 1011 34 1000 l 34 -3 b 67 -36 34 -18 45 -29 b 139 -45 90 -42 113 -45 l 149 -45 b 229 -33 179 -45 205 -41 b 264 -3 253 -26 264 -16 z "},"2":{"ha":786,"x_min":0,"x_max":0,"o":"m 713 146 b 604 165 661 159 624 165 b 568 166 583 166 572 166 b 446 160 533 166 492 164 b 406 157 433 159 420 158 b 535 292 447 195 490 240 b 657 460 579 344 620 400 b 739 648 694 521 721 583 b 752 753 747 686 752 721 b 723 880 752 802 743 844 b 594 1002 690 941 648 981 b 444 1034 541 1023 491 1034 b 372 1027 421 1034 397 1031 b 178 928 300 1015 235 981 b 64 705 121 875 83 800 b 64 694 64 701 64 697 b 86 646 64 675 71 659 b 142 617 104 630 123 621 b 185 612 160 614 175 612 b 224 617 199 612 212 614 b 262 656 245 624 258 637 b 314 814 273 724 290 776 b 389 891 337 852 362 878 b 437 903 406 899 421 903 b 471 896 448 903 460 901 b 519 846 497 885 513 868 b 530 792 526 823 530 806 b 510 697 530 765 523 733 b 342 420 477 611 421 519 b 70 177 262 322 172 241 b 34 105 46 160 34 136 b 35 92 34 101 34 96 b 71 -3 38 55 50 24 b 138 -43 92 -29 115 -43 b 152 -41 142 -43 147 -42 b 308 -4 210 -25 262 -13 b 441 9 354 4 398 9 b 481 7 454 9 468 8 b 672 -30 538 5 602 -7 b 684 -31 676 -31 681 -31 b 732 1 704 -31 720 -20 b 751 77 745 24 751 50 l 751 87 b 713 146 749 118 737 138 z "},"3":{"ha":719,"x_min":0,"x_max":0,"o":"m 177 732 b 261 861 203 802 231 845 b 334 885 291 877 315 885 b 382 873 351 885 367 881 b 448 772 416 854 438 821 b 451 741 450 762 451 751 b 420 645 451 707 441 674 b 317 550 394 608 359 576 b 188 494 273 524 231 505 b 151 463 165 486 153 476 b 148 436 149 450 148 441 b 159 387 148 420 152 404 b 193 335 169 363 180 347 b 230 318 207 324 219 318 b 247 322 235 318 241 319 b 340 347 282 338 313 347 b 387 336 357 347 374 343 b 446 241 422 317 441 286 b 447 228 446 236 447 232 b 411 130 447 191 435 159 b 338 83 385 99 360 83 b 302 82 315 82 303 82 b 162 155 258 82 212 106 b 137 165 155 161 146 165 b 108 154 128 165 118 161 b 68 108 88 140 75 125 b 58 69 62 91 58 78 b 73 29 58 55 63 41 b 195 -47 108 -5 149 -31 b 300 -73 240 -64 275 -72 b 342 -73 325 -73 339 -73 b 456 -58 385 -73 423 -68 b 610 45 521 -37 572 -2 b 676 170 648 92 670 134 b 685 248 682 206 685 233 b 661 361 685 288 677 326 b 539 479 637 412 597 451 b 651 621 595 528 632 574 b 679 740 669 667 679 707 b 656 858 679 777 671 817 b 543 986 633 917 595 960 b 378 1026 492 1013 437 1026 b 359 1025 372 1026 366 1025 b 173 968 293 1022 231 1003 b 37 816 114 933 68 882 b 34 800 35 810 34 806 b 57 756 34 785 41 770 b 113 720 77 736 96 725 b 146 713 130 716 140 713 b 177 732 161 713 172 720 z "},"4":{"ha":736,"x_min":0,"x_max":0,"o":"m 72 282 l 456 288 b 456 281 456 286 456 283 b 446 126 452 232 449 180 b 436 -3 442 73 439 29 l 436 -5 b 470 -50 436 -24 448 -39 b 533 -69 494 -62 515 -68 b 568 -71 551 -71 564 -71 b 638 -60 594 -71 617 -67 b 682 -14 663 -50 678 -35 b 703 434 696 136 703 285 l 703 486 b 675 985 701 652 691 819 b 640 1015 673 1000 661 1010 b 576 1023 619 1021 597 1023 b 553 1023 569 1023 561 1023 b 475 1006 522 1021 496 1015 b 443 967 454 996 443 983 l 443 964 b 444 956 443 962 443 960 b 460 820 449 932 454 887 b 467 601 465 753 467 680 b 465 422 467 548 467 488 l 277 419 l 363 930 l 363 932 b 318 979 363 951 349 967 b 224 996 288 990 256 996 l 220 996 b 161 968 187 996 167 986 l 35 326 b 34 319 34 323 34 321 b 43 296 34 310 37 302 b 72 282 50 287 60 283 z "},"5":{"ha":694,"x_min":0,"x_max":0,"o":"m 163 463 b 252 475 197 471 227 475 b 319 463 278 475 300 471 b 393 391 356 447 380 423 b 411 298 405 360 411 329 b 410 271 411 289 410 280 b 378 163 407 231 397 195 b 309 103 360 132 337 111 b 239 91 281 95 258 91 b 121 111 205 91 167 98 b 110 112 117 111 114 112 b 68 86 93 112 79 103 b 53 31 58 69 53 51 b 54 17 53 26 53 22 b 98 -34 56 -8 71 -25 b 292 -60 170 -51 235 -60 b 425 -40 342 -60 387 -53 b 606 94 509 -12 568 33 b 661 289 642 155 661 220 l 661 301 b 609 481 659 370 642 430 b 477 589 576 532 532 568 b 304 621 422 610 364 621 b 223 616 278 621 251 620 l 229 817 l 595 817 b 633 850 616 819 629 830 b 640 899 637 871 640 887 b 633 949 640 916 637 932 b 591 995 625 977 611 993 l 79 995 b 52 984 68 995 59 991 b 39 956 44 977 40 967 b 36 764 39 882 37 819 b 34 622 35 709 34 661 b 36 528 34 583 35 551 b 58 452 39 481 46 456 b 86 447 68 449 78 447 b 152 460 102 447 124 451 b 163 463 155 460 159 462 z "},"6":{"ha":764,"x_min":0,"x_max":0,"o":"m 397 -62 b 419 -62 405 -62 412 -62 b 585 -18 485 -62 541 -47 b 694 113 634 16 671 60 b 730 279 718 167 730 222 l 730 283 b 676 473 730 351 712 414 b 553 585 640 532 599 570 b 442 608 507 601 470 608 b 277 570 393 608 338 595 b 330 701 282 617 300 661 b 435 785 359 741 395 768 b 552 809 476 801 515 809 b 622 802 574 809 597 807 b 629 802 624 802 627 802 b 663 824 642 802 654 809 b 680 871 673 841 679 857 b 681 897 680 885 681 894 b 667 954 681 918 676 937 b 615 989 657 974 640 986 b 549 994 593 992 570 994 b 351 958 481 994 416 981 b 135 783 265 926 193 867 b 35 429 76 697 43 579 b 34 403 35 420 34 412 b 70 199 34 331 46 263 b 192 20 96 126 137 66 b 397 -62 247 -27 315 -54 z m 282 401 b 418 460 332 441 378 460 l 422 460 b 525 416 465 460 498 445 b 570 307 551 387 566 350 b 570 283 570 298 570 291 b 551 188 570 248 564 217 b 479 119 535 152 511 130 b 449 116 469 117 458 116 b 366 151 418 116 390 127 b 298 260 334 183 311 219 b 279 363 286 300 279 335 b 282 401 279 376 280 389 z "},"7":{"ha":743,"x_min":0,"x_max":0,"o":"m 673 595 b 656 597 667 596 661 597 b 635 597 650 597 643 597 b 608 597 628 597 619 597 b 654 787 639 671 654 735 b 645 851 654 811 651 832 b 536 977 626 913 590 956 b 369 1008 483 998 427 1008 b 311 1005 351 1008 331 1007 b 67 944 230 998 149 977 b 34 889 45 933 34 915 b 55 825 34 863 41 842 b 101 798 68 807 84 798 b 120 801 107 798 114 799 b 251 840 172 819 215 832 b 335 852 287 848 315 852 b 380 846 352 852 368 850 b 426 803 410 837 425 823 b 427 770 427 783 427 772 b 373 600 427 732 409 675 l 147 604 b 112 568 130 602 118 590 b 103 510 106 545 103 526 b 107 471 103 497 104 484 b 149 423 113 442 127 427 l 195 423 b 234 424 205 424 218 424 b 288 423 250 424 267 424 b 71 18 222 288 149 153 b 67 1 68 13 67 7 b 81 -33 67 -10 72 -21 b 142 -77 96 -50 117 -65 b 199 -96 168 -90 186 -96 b 219 -96 212 -96 218 -96 b 272 -71 243 -96 260 -87 b 534 420 365 90 452 254 b 557 420 541 420 548 420 b 600 419 572 419 587 419 b 626 419 612 419 621 419 b 670 420 641 419 656 420 b 701 458 686 424 696 436 b 709 516 707 481 709 500 b 707 549 709 527 709 538 b 673 595 702 576 691 592 z "},"8":{"ha":715,"x_min":0,"x_max":0,"o":"m 384 1010 b 177 940 300 1008 231 985 b 87 814 123 895 93 852 b 79 738 82 774 79 749 b 140 566 79 682 100 624 b 34 310 69 441 34 356 b 34 239 34 264 34 241 b 110 25 34 149 59 77 b 309 -68 161 -28 227 -59 b 346 -70 321 -69 334 -70 b 458 -50 385 -70 422 -63 b 583 31 507 -33 548 -6 b 652 167 618 68 641 113 b 659 227 656 188 659 208 b 648 300 659 252 655 277 b 588 412 635 340 616 377 b 675 637 642 517 671 592 b 681 726 679 683 681 712 b 648 869 681 783 670 830 b 538 976 622 917 585 953 b 387 1010 491 998 441 1010 z m 272 83 b 212 149 246 98 227 120 b 191 245 198 178 191 210 b 193 276 191 255 192 265 b 254 439 197 324 218 379 b 304 392 265 427 282 410 b 378 323 328 372 353 349 b 436 239 404 297 422 269 b 446 192 442 223 446 207 b 432 140 446 174 441 157 b 376 82 416 111 397 91 b 323 68 353 73 336 68 b 272 83 306 68 289 73 z m 477 519 b 406 584 457 535 433 557 b 331 671 378 610 353 640 b 303 760 312 702 303 732 b 309 801 303 774 305 787 b 398 871 323 842 353 865 l 406 871 b 484 840 433 871 459 861 b 526 761 510 816 524 789 b 530 711 528 732 530 715 b 477 519 530 660 512 596 z "},"9":{"ha":764,"x_min":0,"x_max":0,"o":"m 367 992 b 342 993 359 993 351 993 b 180 948 278 993 224 978 b 70 817 130 915 94 871 b 34 648 46 763 34 707 b 89 457 35 579 53 516 b 212 346 125 398 165 361 b 323 322 258 330 295 322 b 487 360 372 322 427 335 b 435 231 482 313 465 271 b 330 146 405 191 370 163 b 214 121 289 130 250 121 b 143 129 192 121 168 124 b 137 130 141 129 139 130 b 102 107 123 130 112 122 b 85 60 92 90 85 75 b 84 35 84 47 84 38 b 97 -23 84 14 88 -5 b 149 -59 107 -43 125 -55 b 216 -63 172 -62 194 -63 b 414 -27 283 -63 349 -51 b 630 149 500 5 572 63 b 730 502 688 234 722 352 b 730 528 730 511 730 519 b 695 732 730 600 719 668 b 573 911 669 804 628 864 b 367 992 518 958 449 985 z m 482 530 b 345 470 432 490 386 470 l 342 470 b 241 516 300 471 267 487 b 195 625 214 545 199 581 b 194 648 194 633 194 640 b 214 743 194 682 200 714 b 286 812 230 779 254 802 b 315 815 296 814 306 815 b 399 779 347 815 374 804 b 466 671 431 747 453 711 b 486 568 479 631 486 596 b 482 530 486 554 484 542 z "},"\u0000":{"ha":627,"x_min":0,"x_max":0,"o":"m 34 0 l 593 0 l 593 972 l 34 972 z m 68 34 l 68 939 l 559 939 l 559 34 z m 186 779 l 186 748 b 224 775 200 760 213 768 b 271 787 239 783 254 787 b 333 764 298 787 318 779 b 355 703 348 749 355 729 b 300 556 355 669 337 621 b 245 408 263 492 245 443 b 269 308 245 385 253 352 l 290 308 b 274 398 279 351 274 381 b 298 465 274 419 282 441 b 366 555 315 489 337 519 b 425 643 395 591 414 621 b 440 709 435 665 440 687 b 402 796 440 745 427 774 b 302 828 377 817 343 828 b 226 808 275 828 250 821 b 186 779 214 801 201 791 z m 230 227 b 222 212 225 221 222 216 b 227 199 222 208 224 203 l 269 151 b 282 144 273 146 277 144 b 296 154 286 144 290 148 l 334 196 b 341 211 339 201 341 206 b 335 224 341 215 339 220 l 297 265 b 282 273 292 270 287 273 b 269 266 278 273 273 271 z "}," ":{"ha":345,"x_min":0,"x_max":0,"o":""},"!":{"ha":298,"x_min":0,"x_max":0,"o":"m 34 1002 l 60 278 b 94 229 62 252 74 235 b 145 220 115 224 132 220 b 189 228 159 220 174 223 b 235 278 216 237 231 254 l 264 1002 b 230 1045 263 1021 252 1036 b 153 1059 208 1054 182 1059 l 149 1059 b 69 1044 118 1058 92 1053 b 34 1002 46 1034 35 1020 z m 76 117 b 63 62 71 106 67 88 b 54 -6 58 37 56 14 b 52 -52 53 -26 52 -41 b 55 -93 52 -67 54 -81 b 95 -134 60 -115 74 -129 b 146 -140 116 -138 133 -140 b 197 -133 163 -140 180 -138 b 250 -87 227 -125 244 -110 b 252 -59 252 -79 252 -69 b 249 -14 252 -45 251 -30 b 235 68 245 15 241 42 b 219 123 229 94 224 112 b 186 149 212 136 201 145 b 149 155 172 153 159 155 b 120 151 140 155 130 154 b 76 117 100 146 85 134 z "},"\"":{"ha":368,"x_min":0,"x_max":0,"o":"m 136 1011 b 127 1032 136 1019 133 1026 b 104 1041 121 1038 113 1041 b 64 1042 90 1041 76 1041 b 45 1042 58 1042 51 1042 b 5 1038 27 1042 14 1041 b -16 1007 -7 1034 -14 1023 b -18 953 -18 991 -18 973 b -17 897 -18 937 -18 918 b -14 739 -15 857 -14 804 b -5 717 -14 730 -11 723 b 17 708 1 711 8 708 b 56 707 32 708 45 708 b 76 707 63 707 70 707 b 117 711 94 707 108 709 b 137 742 129 715 136 726 b 140 797 139 758 140 777 b 138 852 140 812 139 831 b 136 1011 136 892 136 945 z m 205 708 b 245 707 220 708 233 708 b 264 707 252 707 258 707 b 304 711 282 707 296 709 b 325 742 317 715 323 726 b 328 797 327 758 328 777 b 326 852 328 812 327 831 b 323 1011 324 892 323 945 b 315 1032 323 1019 321 1026 b 292 1041 309 1038 301 1041 b 253 1042 277 1041 264 1041 b 233 1042 246 1042 239 1042 b 193 1038 216 1042 202 1041 b 173 1008 181 1034 174 1024 b 170 959 171 993 170 976 b 172 897 170 941 171 921 b 174 739 173 857 174 804 b 183 717 174 730 177 723 b 205 708 189 711 196 708 z "},"#":{"ha":1166,"x_min":0,"x_max":0,"o":"m 439 198 l 614 193 b 597 130 610 174 604 153 b 575 50 588 102 581 75 b 566 -14 569 24 566 3 l 566 -24 b 591 -62 568 -44 576 -57 b 623 -71 603 -65 614 -68 b 701 -87 659 -81 684 -87 l 703 -87 b 738 -58 719 -87 730 -77 b 763 42 746 -38 754 -5 b 795 188 770 79 781 128 l 1040 181 b 1066 192 1050 181 1059 184 b 1078 220 1074 199 1078 208 b 1078 249 1078 230 1078 240 b 1079 290 1079 264 1079 278 b 1076 339 1079 311 1078 328 b 1049 371 1073 357 1064 368 b 993 376 1035 374 1016 376 b 960 375 983 376 972 376 b 919 374 947 374 934 374 b 840 376 896 374 869 375 l 883 552 l 1122 545 b 1148 556 1133 545 1141 549 b 1160 584 1156 564 1159 572 b 1160 610 1160 593 1160 602 b 1161 652 1161 625 1161 640 b 1158 703 1161 674 1160 691 b 1132 735 1155 721 1146 732 b 1078 740 1118 739 1100 740 b 1044 739 1067 740 1057 740 b 993 739 1029 739 1013 739 b 929 739 974 739 953 739 b 945 800 933 758 939 777 b 967 880 954 827 961 854 b 976 944 973 905 976 926 l 976 954 b 951 991 975 973 966 986 b 918 1000 939 994 928 997 b 840 1017 882 1011 856 1017 b 804 987 823 1017 811 1007 b 779 888 796 968 787 935 b 747 745 772 851 761 804 l 572 749 b 587 801 576 764 581 781 b 608 878 595 827 602 853 b 616 943 614 903 616 925 l 616 953 b 592 991 615 973 607 986 b 562 999 581 994 571 996 b 494 1016 525 1010 502 1016 b 479 1016 485 1016 480 1016 b 445 989 464 1016 452 1007 b 420 892 437 970 429 938 b 391 754 414 857 404 810 b 302 759 361 755 332 757 b 214 764 270 762 240 764 b 173 762 199 764 186 763 b 117 722 138 760 119 746 b 117 698 117 713 117 705 b 116 655 116 682 116 668 b 119 604 116 633 117 616 b 144 571 122 585 131 574 b 199 566 159 568 176 566 b 231 567 208 566 219 566 b 282 568 246 568 263 568 b 345 567 301 568 322 568 l 302 390 b 218 395 275 391 247 393 b 132 399 186 398 158 399 b 92 398 117 399 104 399 b 35 358 56 395 37 382 b 35 334 35 349 35 342 b 34 292 34 319 34 304 b 37 240 34 269 35 252 b 62 207 40 221 48 210 b 115 202 75 203 94 202 b 147 203 125 202 135 202 b 196 203 161 203 178 203 b 257 203 214 203 235 203 b 238 132 252 180 245 157 b 216 50 229 102 222 75 b 207 -15 210 24 207 2 l 207 -25 b 232 -62 209 -45 217 -57 b 267 -71 244 -65 256 -68 b 342 -87 300 -81 325 -87 l 344 -87 b 379 -56 360 -87 372 -77 b 405 46 387 -37 395 -2 b 439 198 413 85 424 136 z m 526 562 l 702 557 l 659 380 l 484 385 z "},"$":{"ha":741,"x_min":0,"x_max":0,"o":"m 294 -73 b 294 -97 294 -79 294 -87 b 292 -147 292 -113 292 -129 b 298 -193 292 -165 294 -180 b 327 -213 303 -206 313 -213 l 367 -213 b 391 -214 376 -214 384 -214 b 441 -203 418 -214 434 -210 b 451 -146 448 -195 451 -176 b 450 -120 451 -138 450 -130 b 450 -79 450 -108 450 -94 b 641 30 534 -62 597 -26 b 706 166 684 85 705 131 b 707 221 707 201 707 220 b 644 406 707 288 686 350 b 450 522 602 463 536 502 l 450 740 b 500 692 473 728 490 713 b 517 620 511 671 517 648 b 535 589 519 604 525 594 b 568 583 545 585 556 583 b 578 583 571 583 574 583 b 621 589 593 584 608 586 b 642 591 630 590 637 591 b 673 619 662 594 672 604 b 674 646 674 635 674 644 b 651 743 674 673 667 705 b 576 853 635 782 610 819 b 450 925 543 888 500 911 b 450 949 450 931 450 939 b 453 1000 452 965 453 982 b 446 1046 453 1018 450 1034 b 418 1066 441 1059 431 1066 b 377 1067 402 1066 389 1066 b 353 1067 368 1067 360 1067 b 303 1056 327 1067 310 1064 b 293 998 296 1048 293 1029 b 294 970 293 989 294 981 b 294 924 294 957 294 941 b 132 817 224 903 170 867 b 75 692 95 766 76 724 b 74 640 74 661 74 643 b 125 480 74 583 91 529 b 294 372 162 429 218 393 l 294 113 b 191 284 227 144 193 201 b 174 317 191 300 185 311 b 134 325 163 322 149 325 b 90 322 118 325 104 324 b 68 321 81 321 74 321 b 35 290 47 319 37 309 b 34 258 34 272 34 261 b 58 148 34 227 42 190 b 144 16 76 101 104 58 b 294 -73 182 -25 233 -55 z m 450 338 b 534 279 494 323 523 302 b 551 219 545 255 551 235 b 539 172 551 203 547 188 b 450 103 524 140 494 117 z m 294 736 l 294 557 b 242 600 267 568 250 583 b 231 643 235 616 231 631 b 236 675 231 654 233 665 b 294 736 245 699 264 720 z "},"%":{"ha":910,"x_min":0,"x_max":0,"o":"m 645 1055 l 112 -106 b 108 -124 109 -112 108 -118 b 109 -137 107 -129 108 -133 b 124 -161 111 -148 116 -156 b 142 -175 129 -164 135 -169 b 180 -202 154 -184 166 -194 b 211 -216 194 -211 205 -216 b 222 -216 218 -216 222 -216 b 250 -195 234 -216 243 -210 l 783 965 b 788 983 786 971 787 977 b 787 996 788 988 788 992 b 772 1020 785 1006 779 1015 b 753 1034 766 1023 760 1028 b 715 1061 741 1043 729 1053 b 684 1076 701 1070 691 1075 b 673 1076 677 1076 674 1076 b 645 1055 662 1076 652 1069 z m 468 128 b 468 111 468 122 468 117 b 520 -54 468 45 485 -11 b 623 -132 557 -102 592 -128 b 680 -138 654 -136 673 -138 b 817 -75 728 -138 774 -117 b 888 51 863 -25 887 17 b 890 108 889 85 890 104 b 841 269 890 168 873 221 b 696 355 807 318 758 347 l 684 355 b 541 294 628 355 581 335 b 468 128 498 250 474 195 z m 717 157 b 733 109 728 140 733 124 b 730 91 733 103 732 97 b 701 53 723 71 713 59 b 671 43 688 47 677 43 b 647 51 662 43 654 46 b 627 106 634 60 627 78 l 627 114 b 652 168 631 144 640 162 b 680 178 665 174 675 178 b 717 157 693 178 705 170 z m 35 821 b 34 804 35 814 34 809 b 87 638 34 737 52 682 b 191 561 124 591 159 565 b 248 555 222 557 241 555 b 384 617 296 555 340 576 b 454 744 430 668 454 710 b 456 800 456 778 456 797 b 408 961 456 860 440 913 b 263 1048 374 1011 326 1040 l 251 1048 b 107 987 195 1048 146 1027 b 35 821 65 943 41 888 z m 194 806 b 219 861 198 837 206 855 b 246 870 231 867 241 870 b 283 849 259 870 271 863 b 300 802 294 832 300 816 b 297 783 300 795 299 789 b 267 745 290 764 280 751 b 238 736 255 739 245 736 b 214 744 229 736 221 739 b 194 797 201 752 194 770 z "},"&":{"ha":869,"x_min":0,"x_max":0,"o":"m 210 887 b 194 768 199 848 194 808 b 197 711 194 749 195 730 b 241 530 204 649 218 589 b 64 300 144 440 85 363 b 34 149 44 237 34 186 b 53 48 34 113 40 79 b 169 -87 79 -16 117 -61 b 323 -128 220 -115 272 -128 b 390 -122 345 -128 367 -126 b 623 4 468 -109 546 -67 b 744 -72 660 -23 700 -48 b 848 -115 788 -96 823 -110 l 850 -115 b 893 -85 867 -115 881 -105 b 913 -32 905 -63 912 -45 b 916 -8 915 -18 916 -11 b 896 30 916 12 909 24 b 798 70 869 39 836 52 b 716 118 760 87 732 104 b 780 275 746 166 768 218 b 799 428 793 330 799 382 b 799 452 799 436 799 444 b 768 497 795 475 786 491 b 726 507 751 503 737 507 b 693 500 715 507 704 504 b 663 454 673 492 663 476 l 663 448 b 667 385 665 427 667 406 b 662 309 667 360 665 334 b 623 194 656 260 643 222 b 509 308 582 228 544 266 b 425 443 475 350 446 395 b 572 604 479 488 528 542 b 651 758 616 665 643 717 b 664 846 660 800 664 829 b 620 984 664 894 649 940 b 515 1063 585 1031 550 1057 b 444 1072 481 1069 456 1072 b 321 1038 401 1072 361 1060 b 210 887 269 1008 232 958 z m 372 888 b 420 912 389 904 405 912 b 431 911 424 912 427 911 b 464 880 450 906 460 896 b 469 846 467 865 469 854 b 449 770 469 825 463 800 b 408 700 439 749 426 726 b 353 630 391 673 373 650 b 336 705 346 656 340 681 b 332 762 333 728 332 747 b 335 810 332 779 333 795 b 372 888 340 840 353 866 z m 329 339 b 528 82 372 252 439 167 b 425 27 488 48 453 30 b 373 23 397 24 380 23 b 275 52 335 23 302 33 b 230 145 245 73 230 104 b 230 159 230 149 230 154 b 329 339 234 207 267 267 z "},"'":{"ha":255,"x_min":0,"x_max":0,"o":"m 39 669 b 50 644 39 659 42 651 b 75 633 57 636 65 633 b 123 631 94 633 109 632 b 146 631 131 631 139 631 b 195 637 168 631 184 633 b 218 673 209 642 216 654 b 222 734 220 692 222 713 b 220 809 222 755 221 780 b 217 1004 218 858 217 923 b 206 1030 217 1014 214 1023 b 180 1041 199 1038 191 1041 b 133 1042 162 1041 146 1041 b 109 1042 124 1042 116 1042 b 61 1037 87 1042 72 1040 b 37 999 47 1031 39 1019 b 34 932 35 979 34 957 b 35 864 34 913 35 890 b 39 669 37 815 39 750 z "},"(":{"ha":368,"x_min":0,"x_max":0,"o":"m 307 -374 b 331 -383 314 -380 322 -383 b 371 -367 342 -383 356 -378 b 429 -304 397 -348 416 -328 b 449 -251 443 -281 449 -264 b 442 -228 449 -242 447 -235 b 304 39 379 -157 333 -68 b 260 370 275 145 260 256 l 260 395 b 314 747 262 519 281 637 b 460 1021 347 858 396 949 b 469 1047 466 1029 469 1038 b 454 1090 469 1060 464 1074 b 395 1152 437 1117 417 1137 b 344 1174 373 1166 356 1174 b 322 1167 336 1174 328 1172 b 108 829 227 1080 156 967 b 35 505 60 692 35 583 b 34 382 34 427 34 386 b 100 -43 34 232 56 90 b 307 -374 146 -179 215 -289 z "},")":{"ha":408,"x_min":0,"x_max":0,"o":"m -43 -238 b -51 -261 -48 -245 -51 -252 b -36 -306 -51 -274 -45 -289 b 20 -370 -19 -334 -1 -356 b 68 -393 40 -385 56 -393 b 92 -383 77 -393 85 -389 b 297 -57 184 -299 252 -190 b 364 366 342 77 364 218 l 364 380 b 291 816 363 533 339 678 b 76 1152 243 953 171 1065 b 55 1159 70 1157 63 1159 b 12 1143 43 1159 28 1154 b -50 1083 -16 1124 -37 1105 b -71 1032 -64 1062 -71 1045 b -62 1007 -71 1023 -68 1015 b 85 734 2 935 51 844 b 137 469 118 623 136 535 b 138 357 138 404 138 366 b 97 34 138 244 125 136 b -43 -238 66 -77 20 -167 z "},"*":{"ha":198,"x_min":0,"x_max":0,"o":"m 165 699 b 177 720 170 707 174 714 b 194 762 189 740 194 753 b 193 764 194 762 194 764 b 161 791 192 772 181 781 b 146 800 157 794 153 797 b 158 808 151 804 155 806 b 185 833 176 821 184 829 b 186 839 186 836 186 839 b 165 880 186 847 179 861 b 153 900 162 886 157 892 b 139 909 149 907 144 909 b 132 908 137 909 135 909 b 111 894 125 905 117 900 b 105 889 109 892 107 890 l 105 895 b 104 911 105 900 105 905 b 100 926 104 917 103 922 b 87 932 98 930 93 932 b 60 933 77 932 67 932 b 45 935 54 934 50 935 b 26 929 37 935 30 932 b 16 882 19 925 16 909 b 7 888 13 884 10 886 b -14 901 -1 895 -8 899 b -27 905 -20 904 -24 905 b -42 895 -33 905 -38 902 b -54 873 -47 886 -50 879 b -71 832 -65 854 -71 840 b -70 829 -71 831 -71 830 b -38 802 -68 821 -58 812 b -22 792 -33 799 -28 795 b -35 782 -27 788 -31 785 b -63 758 -54 770 -63 762 b -64 751 -64 753 -64 751 b -44 711 -64 743 -58 730 b -31 690 -41 705 -36 698 b -17 681 -27 684 -22 681 b -11 682 -15 681 -13 682 b 10 696 -3 686 3 690 b 16 701 12 698 14 699 l 16 696 b 16 680 16 692 16 686 b 21 666 16 675 18 670 b 35 661 23 663 28 661 b 61 659 45 661 54 660 b 76 659 67 659 72 659 b 96 663 85 659 92 660 b 105 712 102 668 105 684 b 114 706 108 711 111 709 b 136 692 123 699 130 694 b 151 688 143 689 148 688 b 165 699 157 688 161 691 z "},"+":{"ha":735,"x_min":0,"x_max":0,"o":"m 402 500 b 405 566 402 519 403 542 b 407 650 406 595 407 623 b 398 718 407 677 404 699 b 366 745 392 736 381 745 l 317 745 b 252 740 288 745 267 743 b 223 715 235 736 225 728 b 219 670 220 701 219 686 b 221 621 219 656 220 640 b 224 500 223 591 224 550 b 158 503 204 500 182 500 b 74 505 129 504 101 505 b 7 496 47 505 24 502 b -20 463 -12 490 -20 479 l -20 413 b -16 350 -20 385 -19 363 b 9 321 -13 333 -4 323 b 54 317 23 319 38 317 b 102 319 68 317 84 318 b 224 321 134 321 174 321 b 222 256 224 302 223 280 b 220 189 220 233 220 210 l 220 172 b 229 104 220 145 222 123 b 261 77 234 86 245 77 l 311 77 b 374 81 339 77 360 79 b 404 109 391 85 401 94 b 407 156 406 122 407 138 b 406 200 407 169 406 183 b 402 321 404 231 402 272 b 468 319 422 321 444 321 b 536 317 491 318 513 317 l 552 317 b 620 326 579 317 602 320 b 646 359 637 332 646 343 l 646 386 b 647 414 647 396 647 405 b 642 472 647 439 646 459 b 616 501 639 489 630 499 b 568 505 602 503 586 505 b 524 503 555 505 541 504 b 402 500 493 501 452 500 z "},",":{"ha":248,"x_min":0,"x_max":0,"o":"m 50 158 b 21 101 39 144 29 125 b 7 46 13 77 8 59 b 5 20 5 33 5 24 b 12 -5 5 7 7 -1 b 37 -33 28 -16 37 -24 b 37 -45 37 -41 37 -45 b 30 -90 37 -60 34 -75 b 25 -109 28 -96 26 -102 b 24 -115 24 -111 24 -113 b 36 -138 24 -125 28 -132 b 61 -151 45 -146 54 -149 b 76 -152 68 -151 74 -152 b 100 -146 85 -152 93 -150 b 118 -108 102 -143 109 -130 b 149 -31 127 -86 138 -60 b 178 52 160 -1 170 26 b 194 103 187 77 192 94 l 194 105 b 166 143 194 119 185 132 b 115 165 147 156 130 163 b 84 170 100 168 90 170 b 50 158 69 170 58 165 z "},"-":{"ha":742,"x_min":0,"x_max":0,"o":"m 37 488 b 11 477 27 488 18 484 b 0 451 3 469 0 461 b -1 426 0 445 -1 436 b -3 370 -3 409 -3 391 b 5 317 -3 350 -1 332 b 37 294 10 302 21 294 l 630 294 b 656 305 640 294 648 298 b 667 332 663 313 667 321 b 668 357 667 338 667 346 b 671 412 670 374 671 392 b 663 465 671 432 668 450 b 630 488 656 480 646 488 z "},".":{"ha":284,"x_min":0,"x_max":0,"o":"m 132 146 l 92 146 b 41 144 69 146 52 145 b 17 130 27 142 19 137 b 14 106 15 123 14 115 b 15 82 14 99 14 91 b 18 20 17 66 18 45 b 26 6 18 15 20 10 b 47 0 32 2 39 0 b 67 -1 52 0 59 0 b 98 -1 77 -1 87 -1 l 108 -1 b 146 3 123 -1 135 0 b 162 20 157 6 162 12 b 163 50 162 29 162 39 b 165 94 165 65 165 79 b 159 131 165 109 163 121 b 132 146 154 141 145 146 z "},"/":{"ha":436,"x_min":0,"x_max":0,"o":"m 328 1133 l -66 -216 b -66 -225 -66 -219 -66 -222 b -50 -260 -66 -237 -61 -250 b 1 -296 -37 -275 -20 -287 b 47 -309 21 -304 37 -309 b 66 -309 58 -309 64 -309 b 91 -290 79 -307 87 -301 l 486 1066 b 486 1075 486 1069 486 1072 b 470 1109 486 1086 481 1098 b 419 1141 456 1122 439 1133 b 373 1154 398 1149 383 1154 b 355 1152 363 1153 357 1153 b 328 1133 341 1150 332 1143 z "},":":{"ha":282,"x_min":0,"x_max":0,"o":"m 174 257 l 127 258 b 66 254 100 258 79 256 b 37 237 50 252 39 245 b 34 206 35 227 34 217 b 35 172 34 197 35 185 b 38 89 37 151 38 123 b 48 70 38 81 41 75 b 74 62 56 64 64 62 b 98 61 80 62 87 62 b 133 60 109 60 121 60 l 146 60 b 191 66 163 60 178 62 b 210 89 203 70 210 77 b 212 129 210 100 210 114 b 214 188 213 149 214 168 b 205 237 214 208 211 224 b 174 257 200 251 189 257 z m 174 627 l 127 627 b 66 625 100 627 79 627 b 37 606 50 622 39 616 b 34 576 35 597 34 587 b 35 542 34 566 35 555 b 38 459 37 521 38 493 b 48 440 38 452 41 446 b 74 432 56 435 64 432 b 98 431 80 432 87 432 b 133 430 109 430 121 430 l 146 430 b 191 436 163 430 178 432 b 210 459 203 439 210 448 b 212 499 210 471 210 484 b 214 558 213 519 214 538 b 205 608 214 578 211 594 b 174 627 200 621 189 627 z "},";":{"ha":298,"x_min":0,"x_max":0,"o":"m 210 459 b 212 499 210 471 210 484 b 214 558 213 519 214 538 b 205 608 214 578 211 594 b 174 627 200 621 189 627 l 126 627 b 66 625 100 627 79 627 b 38 606 50 622 40 616 b 34 574 35 597 34 586 b 36 542 34 565 35 554 b 39 459 37 521 39 493 b 49 440 39 452 42 446 b 74 433 56 435 64 433 b 98 431 80 433 87 432 b 134 430 109 431 121 430 l 146 430 b 191 436 163 430 178 432 b 210 459 203 440 210 448 z m 67 233 b 52 185 58 217 54 201 b 48 148 49 170 48 157 b 50 119 48 138 49 128 b 68 87 54 102 59 91 b 100 57 86 80 97 70 b 104 20 102 44 104 32 b 102 3 104 15 103 9 b 102 -17 102 -4 102 -11 b 118 -45 102 -31 108 -41 b 149 -54 128 -51 138 -54 l 155 -53 b 187 -41 169 -52 179 -48 b 197 -3 189 -37 193 -24 b 212 73 202 19 207 44 b 222 155 216 102 220 130 b 227 206 226 180 227 197 b 192 242 226 222 214 233 b 125 254 170 250 148 254 l 119 254 b 67 233 94 254 76 246 z "},"<":{"ha":817,"x_min":0,"x_max":0,"o":"m 664 140 l 285 361 l 665 608 b 677 635 673 614 677 623 b 675 652 677 640 676 646 b 648 716 670 673 661 694 b 608 767 634 739 621 755 b 575 784 594 778 583 784 b 564 781 571 784 567 783 l 22 417 b 9 392 14 412 10 404 b 7 365 7 381 7 372 b 9 339 7 356 7 348 b 24 309 12 324 16 314 l 583 1 b 600 -3 589 -2 595 -3 b 609 -2 603 -3 606 -3 b 629 13 617 0 624 5 b 641 32 632 18 636 24 b 666 70 650 43 658 56 b 679 101 673 83 678 94 b 680 113 680 108 680 112 b 664 140 680 123 674 133 z "},"=":{"ha":681,"x_min":0,"x_max":0,"o":"m 564 328 l 68 328 b 46 319 60 328 52 326 b 37 297 40 313 37 306 b 35 277 37 292 37 286 b 34 249 35 266 35 256 b 34 233 34 241 34 235 b 35 203 34 222 35 213 b 45 173 37 191 40 180 b 68 161 50 165 58 161 l 564 161 b 585 170 572 161 579 163 b 595 192 591 176 595 183 b 595 213 595 197 595 204 b 597 241 597 224 597 233 b 597 256 597 249 597 254 b 595 287 597 267 597 277 b 586 317 594 298 591 309 b 564 328 581 325 574 328 z m 564 571 l 68 571 b 46 562 60 571 52 568 b 37 540 40 556 37 549 b 35 519 37 535 37 528 b 34 491 35 509 35 499 b 34 475 34 484 34 478 b 35 446 34 465 35 455 b 45 415 37 433 40 423 b 68 404 50 408 58 404 l 564 404 b 585 412 572 404 579 406 b 595 434 591 418 595 426 b 595 456 595 439 595 446 b 597 484 597 466 597 475 b 597 499 597 491 597 496 b 595 529 597 509 597 519 b 586 559 594 541 591 551 b 564 571 581 567 574 571 z "},">":{"ha":712,"x_min":0,"x_max":0,"o":"m 661 398 l 144 745 b 134 747 141 746 138 747 b 106 734 125 747 117 743 b 64 683 92 721 77 704 b 41 632 52 662 43 645 b 37 606 38 619 37 610 b 47 580 37 594 40 586 l 410 344 l 49 133 b 34 107 39 126 34 118 l 34 104 b 47 66 35 92 39 79 b 71 31 54 53 62 41 b 82 12 75 23 79 18 b 97 -1 87 5 92 0 b 109 -3 102 -3 106 -3 b 125 1 115 -3 120 -2 l 659 294 b 673 319 666 299 671 307 b 675 348 675 330 675 340 b 674 368 675 354 675 361 b 661 398 672 382 668 393 z "},"?":{"ha":670,"x_min":0,"x_max":0,"o":"m -20 751 l -20 744 b 7 690 -20 722 -12 704 b 58 667 28 675 45 667 b 78 667 70 667 77 667 b 118 692 100 667 113 675 b 188 829 131 752 155 798 b 271 879 221 861 249 877 b 310 882 292 881 305 882 b 394 850 342 882 370 871 b 438 740 422 827 436 789 b 391 639 437 699 421 665 b 281 562 361 612 325 587 b 165 484 241 540 203 513 b 73 374 127 454 96 418 b 39 216 50 331 39 278 l 39 199 b 73 159 42 178 54 165 b 124 151 93 153 110 151 b 157 154 135 151 146 152 b 199 190 182 160 196 172 b 237 294 203 231 215 265 b 319 370 258 323 286 349 b 425 433 352 392 387 413 b 543 504 466 454 505 478 b 635 595 580 529 610 559 b 673 727 659 631 671 675 b 611 930 673 810 652 878 b 473 1031 570 982 524 1015 b 340 1053 422 1046 378 1053 b 256 1044 312 1053 284 1050 b 79 950 189 1030 130 998 b -20 751 28 901 -5 835 z m 142 98 l 132 98 b 79 86 109 98 92 94 b 52 35 66 78 57 61 b 45 -86 47 8 45 -32 b 73 -125 45 -104 55 -117 b 132 -138 90 -134 110 -138 l 136 -138 b 199 -123 159 -138 180 -133 b 226 -82 217 -115 226 -100 l 226 -66 b 227 -39 226 -57 227 -47 b 215 60 227 5 222 38 b 142 98 206 85 182 98 z "},"@":{"ha":1177,"x_min":0,"x_max":0,"o":"m 576 995 b 280 903 461 989 363 959 b 82 687 197 846 131 774 b -5 454 33 600 4 522 b -18 301 -14 387 -18 336 b 5 117 -18 238 -11 177 b 136 -123 28 24 73 -56 b 387 -256 199 -190 283 -234 b 450 -262 408 -260 429 -262 b 538 -250 480 -262 509 -258 b 657 -179 585 -237 624 -214 b 718 -45 690 -145 710 -100 l 718 -41 b 712 -23 718 -35 715 -28 b 693 -14 707 -17 701 -14 b 667 -31 685 -15 677 -20 b 601 -81 648 -54 626 -71 b 521 -96 575 -91 549 -96 b 329 -26 442 -95 378 -71 b 226 140 279 20 245 75 b 197 331 207 205 197 269 b 199 385 197 349 197 367 b 258 621 205 468 225 547 b 398 804 292 694 338 755 b 617 882 458 852 531 878 l 625 882 b 853 814 722 882 798 860 b 969 648 910 768 949 713 b 1000 464 989 584 1000 523 b 998 427 1000 452 999 439 b 957 247 994 356 980 296 b 872 170 933 198 905 172 b 815 224 843 171 825 189 b 802 336 806 260 802 296 b 804 376 802 349 802 362 b 829 532 807 432 816 484 b 876 630 842 581 858 613 b 888 656 884 638 888 647 b 875 688 888 666 884 677 b 811 734 857 709 836 725 b 752 748 787 743 767 748 b 715 741 739 748 727 746 b 679 703 702 733 690 720 b 658 659 668 686 661 671 b 570 743 625 714 596 742 b 528 745 545 745 531 745 b 404 680 482 745 440 724 b 316 482 357 618 328 552 b 300 316 305 413 300 357 b 311 195 300 273 303 233 b 378 59 325 136 347 91 b 454 7 409 26 435 9 b 488 5 474 6 486 5 b 581 45 522 5 552 18 b 646 189 610 75 633 123 b 732 57 661 125 690 82 b 853 19 774 32 814 19 b 901 24 869 19 885 21 b 1050 129 961 40 1010 75 b 1126 296 1089 182 1115 238 b 1145 448 1139 355 1145 405 b 1137 552 1145 483 1142 517 b 1053 774 1124 631 1096 706 b 874 936 1009 843 950 897 b 601 996 798 975 707 996 z m 531 158 b 494 201 513 159 500 173 b 486 290 489 230 486 259 b 488 332 486 303 487 317 b 506 475 490 380 496 428 b 538 581 516 522 526 557 b 574 616 551 604 562 616 b 585 612 577 616 581 615 b 610 547 600 601 608 578 b 614 468 613 514 614 488 b 610 374 614 438 613 407 b 581 229 604 319 595 270 b 531 158 568 186 551 163 z "},"A":{"ha":808,"x_min":0,"x_max":0,"o":"m 728 -37 b 673 39 704 -33 686 -7 b 647 256 661 85 652 157 b 646 629 642 353 642 478 b 665 1042 651 779 658 918 b 582 1120 654 1080 626 1106 b 444 1129 538 1133 492 1137 b 312 1083 395 1122 351 1107 b 168 892 256 1045 208 981 b 70 587 128 803 96 701 b 12 243 45 472 25 357 b -12 -60 -1 129 -9 28 b 12 -92 -11 -73 -3 -84 b 64 -108 26 -100 43 -106 b 127 -107 85 -111 106 -110 b 180 -87 148 -104 165 -97 b 202 -50 194 -78 201 -66 b 205 26 203 -30 203 -4 b 210 113 207 57 209 86 b 212 149 211 127 212 138 b 321 159 233 153 269 157 b 464 155 372 162 420 161 b 498 -8 466 84 477 30 b 572 -86 518 -47 543 -73 b 661 -104 602 -100 631 -106 b 735 -85 690 -102 715 -96 b 751 -58 747 -79 753 -70 b 728 -37 751 -47 743 -40 z m 460 283 b 221 283 380 293 300 293 b 295 671 241 448 265 577 b 387 874 324 766 355 834 b 473 939 418 915 447 937 b 472 887 473 923 473 906 b 463 697 471 869 467 806 b 460 283 457 589 456 451 z "},"B":{"ha":734,"x_min":0,"x_max":0,"o":"m 131 1154 b 58 1118 94 1148 69 1137 b 33 1035 45 1101 37 1073 b -7 493 3 854 -11 673 b 74 -40 -3 313 24 136 b 96 -91 78 -58 85 -75 b 137 -120 106 -108 120 -117 b 371 -86 214 -127 292 -116 b 559 35 450 -57 512 -16 b 642 199 606 87 633 141 b 600 358 650 256 635 309 b 413 467 563 406 500 443 b 646 703 532 539 609 618 b 648 943 682 788 683 868 b 452 1118 613 1019 548 1076 b 131 1154 357 1159 250 1171 z m 273 9 b 248 119 264 34 256 71 b 229 267 240 168 234 217 b 220 380 223 315 220 353 b 399 340 302 385 361 371 b 455 224 437 309 456 270 b 407 93 455 177 439 134 b 273 9 374 52 330 24 z m 210 505 b 222 766 210 583 214 670 b 260 1029 231 861 243 949 b 423 972 332 1025 387 1005 b 487 848 460 938 481 897 b 463 702 492 800 484 751 b 366 573 442 652 410 609 b 210 505 323 536 271 513 z "},"C":{"ha":799,"x_min":0,"x_max":0,"o":"m 578 359 b 559 189 581 303 574 247 b 496 43 545 131 524 83 b 408 -14 470 5 440 -14 b 300 92 360 -8 325 27 b 257 330 276 156 261 235 b 269 616 252 424 256 519 b 330 865 282 712 302 795 b 431 993 357 935 391 978 b 525 943 467 1004 498 988 b 574 728 552 899 568 827 b 615 678 576 701 591 685 b 690 684 640 671 665 673 b 732 737 715 694 729 712 b 707 888 730 790 722 841 b 646 1015 693 936 673 978 b 550 1102 621 1052 588 1081 b 418 1134 511 1124 467 1134 b 245 1082 352 1134 294 1116 b 121 940 196 1046 155 999 b 43 739 87 880 61 814 b 9 509 24 665 14 589 b 37 198 4 400 14 296 b 156 -45 60 100 100 19 b 381 -150 213 -109 288 -144 b 543 -104 444 -151 498 -136 b 652 23 587 -72 624 -30 b 717 192 681 75 703 132 b 743 363 732 252 741 309 b 700 417 741 390 727 408 b 619 416 673 426 646 426 b 578 359 593 407 579 388 z "},"D":{"ha":831,"x_min":0,"x_max":0,"o":"m 117 1123 b 73 1103 102 1120 87 1113 b 45 1063 58 1093 49 1080 b 3 510 11 899 -3 714 b 77 -39 8 306 33 123 b 126 -119 88 -82 105 -109 b 213 -125 146 -129 176 -132 b 492 14 314 -107 408 -60 b 686 281 577 87 642 177 b 752 603 730 387 752 493 b 681 901 752 712 728 812 b 463 1100 633 990 561 1057 b 117 1123 364 1143 249 1151 z m 270 23 b 228 527 243 172 229 340 b 256 1032 227 714 236 882 b 454 950 340 1036 407 1008 b 543 726 500 892 530 818 b 534 442 555 634 553 540 b 439 180 516 344 485 257 b 270 23 395 104 338 52 z "},"E":{"ha":697,"x_min":0,"x_max":0,"o":"m 715 319 b 579 77 680 217 635 137 b 412 -15 523 18 467 -13 b 281 45 357 -17 313 3 b 230 227 249 87 232 148 b 261 392 230 281 241 337 b 354 532 281 447 313 494 b 510 598 395 570 447 591 b 550 643 530 602 544 616 b 550 720 557 669 556 694 b 514 759 543 745 532 758 b 376 779 452 755 406 762 b 322 845 347 795 328 818 b 323 930 315 873 316 901 b 393 1033 337 980 360 1014 b 486 1035 425 1052 456 1053 b 539 916 516 1017 534 977 b 580 869 542 890 556 875 b 652 876 604 863 628 866 b 688 924 675 886 687 903 b 631 1067 686 983 667 1031 b 500 1139 597 1102 553 1126 b 340 1141 448 1152 394 1152 b 196 1071 286 1130 237 1106 b 113 926 154 1035 127 987 b 115 824 107 893 108 859 b 164 730 123 789 139 757 b 267 673 189 702 223 683 b 96 550 196 642 139 601 b 5 383 54 499 23 444 b -14 201 -12 323 -18 262 b 73 -21 -7 109 23 35 b 257 -134 124 -77 185 -115 b 470 -135 328 -153 399 -153 b 665 1 541 -117 606 -71 b 798 294 724 73 768 171 b 766 338 802 317 791 332 b 715 319 740 345 723 338 z "},"F":{"ha":722,"x_min":0,"x_max":0,"o":"m 212 1114 b 54 916 136 1063 83 997 b 12 655 26 836 12 749 b 26 376 13 561 18 469 b 38 88 37 281 40 184 b -20 -116 36 -8 17 -77 b -28 -123 -22 -119 -25 -121 b -51 -151 -39 -133 -46 -142 b -33 -178 -55 -161 -50 -170 b 43 -183 -18 -185 7 -186 b 155 -142 79 -179 116 -165 b 246 -32 193 -119 224 -83 b 264 235 269 19 275 108 l 505 241 b 544 286 525 246 538 261 b 543 361 550 311 549 336 b 506 401 536 385 524 399 l 249 388 b 239 533 244 421 241 470 b 245 732 237 596 239 663 b 288 910 252 800 267 860 b 385 997 310 961 342 989 b 459 960 419 1000 444 987 b 485 854 474 931 483 897 b 481 730 487 812 486 770 b 464 635 475 689 470 657 b 493 572 458 606 467 585 b 576 561 518 559 546 556 b 633 603 606 566 625 580 b 646 907 661 724 665 826 b 547 1093 628 989 595 1051 b 386 1162 500 1135 446 1158 b 212 1114 326 1165 268 1149 z "},"G":{"ha":802,"x_min":0,"x_max":0,"o":"m 709 471 b 602 485 686 479 649 484 b 465 485 553 487 508 487 b 387 480 422 484 396 482 b 353 435 369 475 358 460 b 357 363 348 410 349 387 b 397 325 364 340 378 327 b 475 324 414 324 440 324 b 587 327 509 324 547 325 b 561 166 587 269 579 215 b 490 52 543 118 519 79 b 399 14 461 23 431 11 b 281 123 347 22 309 58 b 234 361 255 188 239 268 b 248 646 229 456 234 551 b 314 893 262 742 284 824 b 425 1020 344 962 381 1005 b 528 970 464 1031 498 1015 b 581 755 557 926 576 854 b 627 705 585 728 600 712 b 709 711 655 699 682 701 b 755 764 736 722 752 739 b 729 916 753 817 745 868 b 662 1042 713 963 691 1005 b 549 1135 633 1079 595 1109 b 358 1149 503 1160 439 1164 b 152 998 277 1134 209 1084 b 39 762 96 912 58 833 b 5 536 21 691 9 616 b 35 226 0 427 9 324 b 144 -16 60 128 96 47 b 370 -123 192 -80 268 -115 b 562 -77 446 -125 509 -110 b 688 53 614 -44 656 -1 b 751 222 719 106 741 163 b 758 380 762 279 765 332 b 709 471 752 429 736 459 z "},"H":{"ha":848,"x_min":0,"x_max":0,"o":"m 760 -46 b 669 68 718 -33 688 5 b 638 301 651 132 640 210 b 646 587 635 393 638 488 b 671 859 653 686 662 777 b 696 1055 682 942 690 1007 b 680 1112 701 1078 695 1098 b 610 1139 664 1126 641 1135 b 530 1135 580 1143 553 1142 b 486 1090 507 1128 493 1113 b 458 813 479 1042 469 949 b 445 373 448 677 443 530 l 201 368 b 211 667 201 477 205 577 b 236 947 218 756 226 850 b 247 1063 239 984 243 1022 b 219 1109 248 1082 239 1097 b 149 1130 199 1120 176 1127 b 75 1125 121 1133 97 1131 b 38 1093 54 1119 41 1108 b -6 511 11 905 -4 711 b 10 -43 -8 309 -3 125 b 39 -85 14 -61 23 -75 b 109 -102 56 -96 79 -101 b 188 -87 138 -103 165 -98 b 225 -43 211 -77 223 -62 b 219 52 224 -16 222 16 b 209 208 215 92 212 144 l 454 214 b 490 27 460 138 473 76 b 590 -104 513 -35 546 -78 b 753 -109 633 -131 688 -132 b 779 -77 768 -102 776 -92 b 760 -46 781 -62 774 -52 z "},"I":{"ha":394,"x_min":0,"x_max":0,"o":"m 335 -79 b 237 32 290 -67 257 -31 b 201 262 216 94 205 171 b 208 546 199 353 201 448 b 238 860 216 644 226 749 b 268 1097 250 971 260 1050 b 245 1156 272 1122 264 1141 b 170 1185 224 1171 199 1181 b 86 1179 140 1190 112 1187 b 38 1132 60 1171 45 1155 b 14 908 32 1099 24 1024 b -7 564 5 791 -3 677 b -4 237 -12 451 -11 342 b 43 -16 2 133 18 49 b 151 -142 68 -75 104 -118 b 328 -142 199 -168 258 -167 b 356 -109 345 -134 353 -123 b 335 -79 359 -94 351 -84 z "},"J":{"ha":674,"x_min":0,"x_max":0,"o":"m 514 1111 l 96 1111 b 52 1058 72 1107 58 1090 b 57 963 46 1026 48 994 b 100 909 66 931 80 913 l 361 957 b 388 444 385 753 394 582 b 345 127 382 307 368 201 b 268 4 322 55 296 14 b 206 52 245 -1 224 14 b 176 202 189 90 178 140 b 127 255 172 229 156 247 b 42 248 98 262 70 260 b -3 184 14 236 -1 214 b 28 16 -3 122 7 66 b 121 -104 49 -34 80 -74 b 279 -149 163 -134 216 -149 b 417 -106 332 -149 378 -135 b 513 10 455 -78 488 -39 b 574 178 539 59 559 115 b 606 376 589 240 600 307 b 612 585 612 446 614 515 b 602 784 612 655 608 722 b 577 952 595 847 587 903 b 546 1068 568 1001 557 1040 b 514 1111 535 1097 524 1111 z "},"K":{"ha":704,"x_min":0,"x_max":0,"o":"m 617 165 b 503 150 584 149 546 144 b 395 193 459 156 424 171 b 337 268 368 216 348 241 b 522 483 416 322 477 394 b 619 770 567 572 600 668 b 653 1064 639 873 650 970 b 625 1109 653 1084 644 1099 b 561 1127 608 1120 586 1126 b 493 1119 536 1129 513 1126 b 466 1098 478 1114 469 1106 b 463 1067 463 1089 462 1079 b 463 1055 463 1063 463 1059 b 443 800 465 978 458 893 b 362 543 428 708 401 622 b 197 338 324 464 269 395 b 220 712 200 471 208 595 b 271 1052 233 830 250 943 b 237 1101 271 1072 260 1088 b 176 1125 214 1114 195 1122 b 112 1122 159 1128 137 1126 b 66 1094 86 1118 71 1109 b 56 -76 -7 667 -10 277 b 98 -123 60 -98 75 -114 b 189 -121 121 -133 151 -132 b 254 -55 227 -109 249 -87 b 216 143 239 -2 227 64 b 323 51 245 104 281 74 b 467 12 366 28 414 15 b 642 52 521 9 579 23 b 677 107 664 67 676 86 b 663 159 680 128 674 145 b 617 165 650 172 635 174 z "},"L":{"ha":494,"x_min":0,"x_max":0,"o":"m 470 82 b 416 78 458 81 441 80 b 331 71 389 75 361 73 b 260 67 301 68 277 67 b 227 555 231 220 220 383 b 288 1069 234 728 254 899 b 258 1118 289 1088 279 1105 b 182 1145 237 1131 212 1140 b 103 1147 153 1150 127 1151 b 60 1118 79 1142 65 1133 b -1 503 21 913 1 709 b 51 -47 -3 297 14 114 b 106 -68 56 -57 74 -64 b 234 -70 139 -72 181 -73 b 390 -58 287 -67 338 -63 b 490 -39 441 -52 475 -46 b 509 6 502 -31 509 -16 b 501 60 511 28 508 47 b 470 82 495 75 484 82 z "},"M":{"ha":1148,"x_min":0,"x_max":0,"o":"m 1092 -24 b 1010 51 1053 -18 1025 7 b 990 218 996 94 989 151 b 1001 440 991 287 995 360 b 1007 709 1007 518 1009 608 b 932 943 1005 809 980 887 b 735 1006 883 998 818 1019 b 549 855 653 994 591 943 b 504 1038 545 946 529 1007 b 416 1094 478 1070 449 1088 b 329 1093 383 1099 354 1099 b 235 1016 289 1082 257 1057 b 184 856 212 975 195 921 b 185 917 184 882 185 902 b 187 964 186 932 186 947 b 188 992 187 972 188 982 b 169 1042 188 1013 182 1030 b 121 1068 156 1055 140 1064 b 64 1070 102 1073 83 1074 b 15 1048 45 1067 28 1059 b -8 1004 1 1037 -7 1022 b -7 481 -13 835 -12 661 b 16 -37 -2 301 6 128 b 74 -77 24 -58 43 -71 b 165 -71 106 -82 136 -80 b 214 -16 195 -61 212 -43 b 221 476 211 176 214 340 b 254 792 229 612 240 718 b 304 941 269 867 286 916 b 358 959 322 966 340 971 b 382 855 370 949 378 914 b 385 637 385 796 386 724 b 377 371 383 551 380 463 b 372 -14 370 205 369 77 b 395 -51 374 -30 382 -42 b 442 -68 408 -60 424 -66 b 498 -67 461 -71 479 -71 b 544 -47 516 -64 531 -56 b 562 -7 556 -37 562 -23 b 562 26 562 3 562 14 b 565 218 562 77 563 140 b 576 465 566 296 570 379 b 607 709 583 552 593 633 b 679 863 621 784 645 836 b 774 874 712 890 744 894 b 814 761 804 854 818 816 b 799 578 811 706 806 645 b 781 380 792 513 786 448 b 780 188 777 313 777 249 b 812 26 783 127 794 73 b 901 -77 830 -20 860 -54 b 1052 -104 941 -101 991 -110 b 1105 -83 1074 -102 1092 -94 b 1125 -47 1119 -71 1126 -60 b 1092 -24 1124 -36 1114 -28 z "},"N":{"ha":916,"x_min":0,"x_max":0,"o":"m 816 -33 b 751 71 784 -13 762 22 b 736 244 740 119 734 177 b 745 458 736 311 739 383 b 753 743 751 556 755 651 b 714 983 753 836 740 916 b 576 1116 689 1050 643 1095 b 433 1115 527 1130 479 1130 b 309 1021 386 1100 345 1069 b 231 823 273 974 247 908 b 237 1017 231 892 233 957 b 205 1099 237 1053 227 1080 b 129 1131 184 1119 158 1129 b 51 1106 100 1132 74 1124 b 13 1021 28 1088 16 1060 b 8 475 6 845 4 663 b 26 -39 12 287 18 116 b 64 -96 29 -64 42 -84 b 140 -113 86 -109 111 -114 b 216 -92 168 -113 193 -105 b 254 -34 238 -79 250 -59 b 277 562 246 211 254 410 b 369 895 301 715 332 826 b 477 989 406 964 442 995 b 534 920 506 983 526 960 b 544 766 544 880 547 829 b 530 561 541 704 536 635 b 513 334 522 486 517 410 b 518 123 509 258 511 188 b 570 -37 526 58 543 5 b 690 -111 596 -79 637 -104 b 775 -104 720 -114 748 -112 b 832 -73 803 -97 822 -87 b 816 -33 843 -60 838 -47 z "},"O":{"ha":853,"x_min":0,"x_max":0,"o":"m 431 1147 b 190 1052 334 1147 254 1115 b 48 806 126 988 79 907 b 4 488 18 706 3 600 b 55 174 5 376 22 271 b 197 -61 87 75 135 -3 b 430 -138 260 -119 338 -144 b 642 -42 514 -136 585 -104 b 772 195 700 19 743 98 b 818 503 802 292 817 394 b 777 811 819 611 805 714 b 649 1050 749 908 707 987 b 431 1147 591 1112 519 1144 z m 436 4 b 324 111 390 12 353 47 b 266 347 295 176 276 254 b 266 627 256 440 256 534 b 330 868 277 722 298 802 b 462 985 362 935 406 974 b 553 942 498 985 528 970 b 614 827 579 913 599 876 b 646 667 629 780 640 726 b 650 484 652 608 653 547 b 629 302 648 421 641 361 b 586 146 618 243 604 192 b 520 38 567 100 545 64 b 436 4 495 13 467 1 z "},"P":{"ha":720,"x_min":0,"x_max":0,"o":"m 163 1150 b 113 1149 146 1150 130 1149 b 64 1139 96 1147 79 1144 b 39 1122 55 1135 47 1130 b 24 1093 31 1114 26 1104 b -7 499 2 905 -9 707 b 35 -119 -6 292 7 86 b 71 -158 39 -139 51 -152 b 139 -162 90 -164 113 -165 b 208 -142 165 -159 188 -152 b 242 -97 228 -131 239 -116 b 237 5 242 -73 241 -39 b 227 124 233 49 230 89 b 227 131 227 126 227 129 b 553 309 370 161 479 220 b 678 633 628 396 669 504 b 657 829 683 701 676 767 b 563 994 638 890 607 945 b 389 1108 518 1042 460 1080 b 163 1150 317 1136 242 1150 z m 218 252 b 214 643 210 356 209 486 b 241 1027 219 800 229 928 b 410 945 313 1021 370 994 b 487 764 450 895 476 836 b 477 547 498 693 495 621 b 387 357 460 475 430 411 b 218 252 342 302 287 267 z "},"Q":{"ha":871,"x_min":0,"x_max":0,"o":"m 414 1141 b 172 1045 317 1140 236 1108 b 31 800 109 981 61 900 b -14 481 0 699 -15 593 b 37 167 -12 370 5 264 b 180 -68 69 68 117 -9 b 412 -144 243 -126 320 -151 b 465 -140 431 -144 448 -142 b 545 -224 490 -166 516 -195 b 616 -295 572 -253 597 -277 b 652 -290 626 -302 637 -300 b 692 -246 666 -280 680 -265 b 718 -191 705 -228 713 -209 b 709 -149 722 -172 720 -158 b 601 -72 675 -121 638 -96 b 745 157 664 -16 712 60 b 801 469 779 254 798 358 b 765 789 804 581 792 688 b 637 1038 738 890 695 972 b 414 1141 578 1103 504 1137 z m 419 -3 b 307 104 373 5 335 41 b 248 340 277 169 258 248 b 249 621 238 433 238 527 b 313 861 259 715 280 795 b 444 978 345 928 389 967 b 536 935 481 978 511 964 b 597 821 562 907 582 869 b 629 661 612 773 623 720 b 633 477 635 601 636 540 b 612 296 631 414 624 354 b 568 139 602 237 587 185 b 503 31 550 93 528 57 b 419 -3 478 6 450 -5 z "},"R":{"ha":834,"x_min":0,"x_max":0,"o":"m 772 -98 b 692 3 728 -79 701 -45 b 682 167 683 51 680 105 b 673 340 684 224 681 282 b 606 476 666 389 644 435 b 439 568 568 518 512 549 b 591 636 499 580 550 603 b 682 751 631 670 661 709 b 710 873 702 794 711 834 b 641 1034 708 935 685 988 b 448 1139 597 1079 533 1114 b 170 1177 363 1164 271 1177 b 138 1177 166 1177 155 1177 b 81 1171 120 1177 101 1175 b 39 1126 60 1166 46 1152 b 8 482 14 917 3 703 b 41 -92 13 262 24 71 b 85 -134 45 -112 60 -125 b 151 -141 110 -142 132 -144 b 214 -119 171 -138 192 -131 b 248 -70 237 -106 248 -90 b 239 75 245 -33 241 15 b 233 258 236 134 234 195 b 229 417 231 320 229 373 b 229 491 229 461 229 486 b 441 439 342 512 414 495 b 462 346 454 414 461 383 b 458 225 463 309 461 268 b 457 55 453 167 453 110 b 510 -84 460 -1 478 -47 b 673 -146 541 -121 595 -142 b 743 -140 697 -146 720 -144 b 788 -122 765 -136 781 -130 b 772 -98 796 -115 791 -107 z m 227 604 b 229 792 225 635 226 697 b 246 1069 233 887 238 979 b 418 1025 320 1069 377 1055 b 494 913 458 996 484 958 b 484 778 505 869 501 824 b 392 661 466 732 435 693 b 227 604 349 628 294 609 z "},"S":{"ha":722,"x_min":0,"x_max":0,"o":"m 193 747 b 169 842 174 778 166 810 b 202 931 172 875 183 905 b 271 991 220 958 243 978 b 362 998 301 1005 332 1007 b 435 932 393 989 417 966 b 452 786 453 897 459 848 b 468 745 451 768 456 755 b 513 725 479 734 494 728 b 569 728 532 722 551 723 b 617 754 588 732 604 741 b 637 805 631 767 637 784 b 610 969 637 869 628 924 b 536 1078 592 1014 567 1050 b 429 1136 505 1105 469 1125 b 301 1146 388 1147 346 1151 b 109 1052 223 1137 159 1105 b 8 861 58 998 24 935 b 23 661 -8 788 -3 721 b 111 542 44 612 73 572 b 229 463 149 512 188 486 b 327 399 265 443 297 421 b 400 316 356 376 380 349 b 418 178 420 283 426 237 b 368 73 410 133 394 98 b 271 34 343 48 311 35 b 177 72 233 33 201 45 b 134 169 153 99 138 132 b 125 271 128 206 125 240 b 124 299 125 281 125 291 b 81 346 117 336 102 352 b 22 257 58 339 39 310 b 9 87 5 205 1 149 b 97 -71 18 26 47 -26 b 309 -136 147 -117 218 -138 b 536 -46 400 -135 476 -105 b 647 166 596 12 633 83 b 628 382 661 250 654 321 b 514 527 602 442 564 490 b 362 623 465 564 414 595 b 263 680 326 642 293 661 b 193 747 233 700 210 722 z "},"T":{"ha":810,"x_min":0,"x_max":0,"o":"m 729 1140 b 16 1140 484 1140 247 1140 b -25 1089 -6 1137 -20 1120 b -16 997 -30 1059 -27 1028 b 39 946 -5 966 14 949 l 251 987 b 223 675 240 905 231 801 b 218 303 215 550 213 426 b 269 9 223 180 240 82 b 380 -121 294 -52 332 -96 b 565 -126 430 -148 491 -149 b 593 -94 581 -119 591 -109 b 572 -64 596 -79 589 -69 b 475 39 528 -52 496 -18 b 437 248 454 95 441 165 b 439 511 432 331 433 418 b 465 775 446 603 454 691 b 494 987 475 859 486 930 l 709 946 b 760 996 732 949 749 966 b 769 1088 770 1027 773 1058 b 729 1140 764 1120 751 1137 z "},"U":{"ha":886,"x_min":0,"x_max":0,"o":"m 837 -26 b 757 98 800 -12 772 30 b 732 347 741 166 732 250 b 741 644 731 444 734 543 b 762 916 748 746 755 836 b 774 1050 768 971 771 1016 b 746 1126 777 1082 767 1107 b 669 1158 725 1144 699 1155 b 587 1141 640 1161 612 1156 b 545 1067 563 1126 549 1102 b 526 858 541 1012 534 942 b 494 591 517 773 507 684 b 446 326 480 497 465 409 b 382 121 428 242 407 174 b 300 36 359 68 331 39 b 224 134 264 36 238 68 b 207 387 210 199 204 283 b 235 718 210 491 219 602 b 291 1047 250 835 269 945 b 268 1122 296 1076 289 1101 b 191 1162 248 1142 222 1156 b 103 1152 159 1168 130 1165 b 50 1078 76 1139 58 1115 b 19 878 41 1034 31 967 b -7 579 7 788 -1 688 b 1 261 -13 470 -10 364 b 73 0 12 158 35 71 b 237 -127 109 -71 165 -114 b 373 -85 288 -134 333 -120 b 473 50 413 -52 446 -6 b 527 223 499 106 517 163 b 553 85 528 180 536 134 b 627 -48 569 35 594 -9 b 753 -119 660 -87 702 -110 b 852 -108 800 -124 833 -121 b 876 -64 872 -96 880 -81 b 837 -26 873 -47 860 -35 z "},"V":{"ha":825,"x_min":0,"x_max":0,"o":"m 542 1100 b 522 789 540 1007 533 903 b 476 458 509 675 494 564 b 418 195 458 351 439 264 b 361 88 399 126 379 90 b 309 195 344 91 326 127 b 261 455 291 264 275 351 b 228 778 247 560 235 667 b 219 1073 220 888 217 987 b 184 1131 219 1099 208 1118 b 102 1150 161 1144 134 1150 b 20 1127 72 1149 44 1142 b -19 1060 -4 1112 -17 1090 b -11 822 -20 1004 -17 924 b 22 492 -5 720 7 610 b 83 166 37 375 58 267 b 176 -61 109 66 140 -9 b 283 -130 205 -96 241 -119 b 408 -121 326 -140 367 -137 b 505 -38 449 -106 481 -79 b 594 237 535 18 564 110 b 676 654 624 364 651 503 b 738 1075 701 806 722 946 b 712 1135 739 1100 730 1120 b 647 1162 694 1150 672 1159 b 578 1152 622 1165 599 1162 b 542 1100 558 1141 546 1124 z "},"W":{"ha":1366,"x_min":0,"x_max":0,"o":"m 1214 1189 b 1041 1160 1142 1199 1084 1189 b 948 1023 998 1131 966 1086 b 914 798 929 959 918 884 b 909 533 910 712 908 623 b 904 283 910 443 908 360 b 871 98 901 206 889 144 b 783 31 853 52 824 30 b 713 118 751 35 728 63 b 684 340 697 173 688 248 b 690 658 681 434 683 540 b 724 1031 697 777 708 901 b 692 1103 726 1061 715 1085 b 609 1132 669 1120 642 1130 b 524 1114 577 1135 549 1128 b 484 1040 498 1099 486 1074 b 475 709 483 937 480 827 b 450 375 469 591 461 480 b 404 119 438 269 422 184 b 333 26 385 55 361 24 b 273 137 309 33 290 70 b 239 393 257 205 245 290 b 235 720 232 497 231 606 b 271 1038 241 833 252 939 b 248 1103 275 1063 267 1085 b 175 1138 228 1121 203 1133 b 94 1130 146 1144 119 1141 b 46 1062 69 1118 53 1096 b 28 905 39 1027 33 975 b 16 667 22 836 18 755 b 24 395 15 578 18 488 b 62 139 31 304 43 218 b 143 -54 81 60 109 -5 b 279 -138 178 -104 224 -132 b 432 -66 338 -139 389 -115 b 526 117 475 -17 506 44 b 576 -1 534 76 551 37 b 674 -90 602 -38 634 -68 b 811 -121 714 -113 760 -123 b 975 -45 880 -115 935 -90 b 1063 125 1015 -1 1044 56 b 1102 356 1082 195 1095 272 b 1116 608 1109 439 1113 524 b 1128 837 1118 690 1122 766 b 1162 1017 1133 908 1145 968 b 1239 1116 1178 1067 1204 1100 b 1256 1139 1248 1121 1254 1128 b 1250 1170 1259 1149 1257 1160 b 1214 1189 1243 1179 1232 1186 z "},"X":{"ha":797,"x_min":0,"x_max":0,"o":"m 781 4 b 648 43 739 -5 695 8 b 515 201 602 79 557 132 b 406 447 473 271 436 353 b 599 778 465 555 529 665 b 760 1025 668 891 722 973 b 761 1098 772 1049 772 1074 b 710 1161 750 1122 733 1143 b 640 1191 687 1179 663 1188 b 583 1163 616 1193 597 1183 b 448 920 547 1101 501 1020 b 334 713 406 840 368 771 b 294 905 321 762 308 827 b 264 1090 279 985 269 1046 b 218 1155 259 1122 244 1143 b 134 1164 193 1166 165 1170 b 58 1124 104 1158 79 1144 b 36 1041 38 1103 31 1075 b 98 782 49 975 69 889 b 197 455 126 675 159 566 b 165 391 186 435 176 413 b -37 -12 92 248 24 113 b -22 -95 -48 -41 -43 -69 b 57 -145 -1 -121 26 -138 b 134 -118 89 -153 115 -144 b 205 45 152 -73 176 -18 b 290 224 235 110 263 170 b 376 66 312 170 340 117 b 500 -62 412 15 454 -28 b 648 -118 546 -95 595 -114 b 807 -65 700 -122 753 -104 b 831 -12 830 -45 838 -28 b 781 4 823 3 806 9 z "},"Y":{"ha":765,"x_min":0,"x_max":0,"o":"m 431 1083 b 444 941 435 1051 440 1004 b 444 743 448 878 448 812 b 404 562 439 673 425 613 b 302 477 382 512 349 484 b 205 532 254 474 221 492 b 187 681 189 571 183 621 b 214 861 192 741 201 802 b 250 1008 228 921 239 970 b 257 1033 253 1017 255 1025 b 239 1098 262 1059 257 1081 b 172 1131 222 1115 199 1126 b 94 1128 144 1137 118 1136 b 47 1084 70 1120 54 1105 b 12 925 33 1034 22 981 b -6 755 3 869 -3 812 b 3 593 -8 699 -5 645 b 49 455 12 541 26 496 b 134 363 71 414 99 384 b 264 338 170 342 213 334 b 398 382 314 342 359 357 b 511 536 437 408 475 459 b 465 235 507 406 492 305 b 373 81 437 163 407 113 b 269 54 338 49 304 40 b 182 185 235 68 205 112 b 138 220 174 207 160 218 b 71 205 117 222 95 217 b 17 154 48 193 30 176 b 10 85 3 133 1 110 b 142 -70 38 19 82 -33 b 340 -119 201 -107 268 -123 b 515 -46 404 -114 462 -90 b 651 165 568 -2 613 68 b 713 551 688 262 709 391 b 651 1130 716 710 696 903 b 606 1167 646 1149 630 1161 b 530 1168 581 1173 555 1173 b 460 1138 505 1162 481 1152 b 431 1083 439 1123 429 1105 z "},"Z":{"ha":745,"x_min":0,"x_max":0,"o":"m 677 91 b 493 127 622 109 561 121 b 284 117 426 134 356 131 b 451 309 336 173 392 237 b 610 536 510 380 563 456 b 708 777 657 616 690 696 b 691 1006 726 857 720 934 b 566 1136 661 1072 619 1115 b 389 1153 512 1157 453 1163 b 200 1095 325 1143 262 1124 b 39 1002 138 1067 85 1036 b 15 941 20 987 12 966 b 45 869 18 916 28 892 b 105 822 62 846 82 831 b 171 833 128 813 150 817 b 261 903 197 856 227 880 b 368 964 295 927 331 947 b 469 989 404 981 437 989 b 534 956 504 989 526 978 b 531 865 543 933 542 903 b 475 735 519 826 501 783 b 386 585 450 687 420 637 b 279 431 352 532 317 481 b 174 292 243 380 208 334 b 86 185 140 250 111 214 b 34 129 62 157 44 138 b 2 28 7 102 -3 68 b 49 -75 8 -12 24 -46 b 131 -109 73 -104 101 -115 b 627 -96 302 -38 467 -34 b 688 -65 652 -102 672 -92 b 713 23 705 -39 713 -9 b 677 91 713 56 701 79 z "},"[":{"ha":443,"x_min":0,"x_max":0,"o":"m 397 1137 b 421 1173 410 1140 418 1152 b 426 1224 425 1193 426 1210 b 423 1263 426 1237 425 1250 b 399 1311 419 1290 411 1306 b 326 1315 386 1314 362 1315 b 251 1314 304 1315 279 1314 b 63 1313 199 1313 136 1313 b 42 1301 55 1313 48 1309 b 34 1271 37 1293 34 1282 l 34 -189 b 43 -218 34 -200 37 -210 b 63 -231 48 -227 55 -231 l 396 -231 b 417 -218 404 -231 412 -227 b 425 -189 422 -210 425 -200 l 425 -124 b 425 -81 425 -106 425 -92 b 416 -53 424 -67 420 -58 b 392 -44 411 -48 403 -45 b 336 -41 379 -42 361 -41 b 303 -41 326 -41 315 -41 b 239 -43 285 -42 263 -43 l 239 1133 b 326 1133 265 1133 294 1133 b 397 1137 358 1134 382 1135 z "},"\\":{"ha":454,"x_min":0,"x_max":0,"o":"m 58 1318 b 24 1338 54 1331 43 1338 l 23 1338 b -39 1323 4 1338 -17 1333 b -96 1286 -62 1313 -81 1300 b -117 1244 -110 1272 -117 1257 b -116 1236 -117 1241 -117 1238 l 229 -226 b 260 -245 232 -239 243 -245 l 263 -245 b 326 -227 282 -245 303 -239 b 381 -188 349 -216 367 -203 b 402 -144 395 -173 402 -159 b 401 -137 402 -142 402 -140 z "},"]":{"ha":397,"x_min":0,"x_max":0,"o":"m 267 1250 b 65 1251 189 1250 121 1250 b -15 1252 34 1251 7 1252 b -94 1248 -54 1252 -80 1251 b -118 1210 -106 1243 -115 1230 b -123 1160 -121 1190 -123 1173 b -119 1120 -123 1146 -121 1133 b -92 1074 -115 1093 -106 1078 b -16 1071 -76 1072 -50 1072 b 78 1070 19 1070 50 1070 l 78 -101 b 9 -100 52 -101 29 -100 b -26 -100 -4 -100 -16 -100 b -86 -102 -53 -100 -73 -100 b -112 -111 -98 -103 -106 -106 b -121 -136 -117 -116 -120 -125 b -122 -182 -122 -149 -122 -164 l -122 -202 b -121 -246 -122 -215 -121 -230 b -113 -276 -121 -258 -119 -267 b -91 -288 -106 -284 -100 -288 l 267 -288 b 289 -276 275 -288 283 -284 b 298 -246 295 -267 298 -258 l 298 1208 b 289 1238 298 1219 295 1230 b 267 1250 283 1246 275 1250 z "},"^":{"ha":521,"x_min":0,"x_max":0,"o":"m 245 1088 l 41 795 b 34 774 36 789 34 781 b 35 768 34 772 34 770 b 50 744 37 758 41 750 b 122 699 85 719 109 704 b 149 693 134 695 143 693 b 174 703 159 693 167 696 b 269 878 184 713 216 772 b 312 783 274 869 288 837 b 353 692 335 730 349 699 b 369 681 357 684 363 681 b 382 684 373 681 378 682 b 425 707 398 693 412 701 b 476 736 452 719 469 728 b 487 759 483 743 487 751 b 481 783 487 766 485 774 b 431 872 472 802 456 831 b 309 1084 401 919 361 990 b 287 1103 301 1097 294 1103 b 275 1103 280 1103 276 1103 b 245 1088 263 1103 254 1098 z "},"_":{"ha":817,"x_min":0,"x_max":0,"o":"m 741 155 l 36 155 b 13 146 27 155 19 152 b 3 123 6 139 3 132 b 2 100 3 117 3 109 b -1 56 0 86 -1 71 b 7 14 -1 39 2 26 b 36 -4 12 2 22 -4 l 741 -4 b 764 5 750 -4 758 -1 b 774 29 770 12 774 20 b 775 51 774 35 774 42 b 777 96 777 65 777 80 b 770 138 777 112 775 126 b 741 155 765 149 755 155 z "},"`":{"ha":418,"x_min":0,"x_max":0,"o":"m 267 846 b 212 944 256 865 237 898 b 122 1090 185 989 155 1038 b 100 1099 117 1096 110 1099 b 83 1096 96 1099 90 1098 b 29 1067 65 1090 47 1080 b -9 1028 12 1053 -1 1040 b -20 1000 -16 1017 -20 1006 b -14 982 -20 993 -18 987 b 184 776 44 909 111 840 b 209 768 192 770 200 768 b 227 770 214 768 220 768 b 261 795 242 776 254 784 b 272 824 268 806 272 815 b 267 846 272 831 270 838 z "},"a":{"ha":809,"x_min":0,"x_max":0,"o":"m 221 -30 b 329 -10 267 -34 302 -27 b 391 56 356 7 376 29 b 426 134 406 83 417 109 b 444 177 433 151 439 165 b 465 194 450 188 457 194 b 534 50 482 135 506 87 b 657 -19 564 13 604 -10 b 731 -9 690 -22 715 -19 b 755 25 747 1 755 12 b 731 52 755 38 747 47 b 671 128 704 62 684 87 b 649 276 659 169 652 218 b 650 454 647 334 647 393 b 661 618 653 515 656 570 b 666 699 663 650 665 677 b 631 764 665 730 654 753 b 548 772 608 777 581 779 b 488 728 516 766 496 751 b 461 660 478 687 469 664 b 415 681 453 655 438 663 b 405 688 412 684 408 686 b 311 725 378 708 346 720 b 205 709 275 730 240 724 b 114 627 170 694 140 667 b 54 460 88 585 68 530 b 41 248 41 391 36 321 b 90 62 45 176 62 114 b 221 -30 119 9 163 -21 z m 338 612 b 401 562 370 610 391 593 b 408 441 411 529 414 489 b 378 297 402 393 392 345 b 328 175 363 249 346 208 b 278 121 310 142 294 124 b 247 182 263 119 253 139 b 266 482 237 300 244 399 b 338 612 288 564 312 608 z "},"b":{"ha":716,"x_min":0,"x_max":0,"o":"m 247 76 b 332 -6 268 40 296 12 b 463 -19 368 -24 412 -28 b 589 78 514 -7 556 26 b 661 263 622 130 646 192 b 675 474 675 334 680 405 b 632 648 671 544 656 602 b 549 724 612 684 585 710 b 436 735 513 739 475 743 b 336 681 397 728 363 709 b 268 553 307 649 285 606 b 227 401 251 500 237 450 b 238 714 226 501 229 605 b 286 1055 247 823 263 937 b 264 1113 290 1078 282 1097 b 199 1141 247 1128 225 1137 b 127 1134 173 1145 149 1143 b 85 1082 105 1124 91 1107 b 43 677 62 952 48 817 b 42 281 37 537 37 405 b 65 -28 47 157 55 54 b 92 -48 66 -37 75 -43 b 149 -46 108 -52 126 -52 b 209 -9 170 -41 190 -28 b 247 76 227 10 240 39 z m 286 262 b 310 395 290 304 298 348 b 357 523 321 442 337 485 b 423 600 376 560 398 586 b 467 548 445 604 459 587 b 473 404 475 509 477 461 b 448 235 470 345 461 290 b 398 115 435 182 418 142 b 343 96 380 95 361 89 b 298 153 325 104 310 123 b 286 262 288 182 283 218 z "},"c":{"ha":589,"x_min":0,"x_max":0,"o":"m 509 250 b 479 230 500 252 490 245 b 444 174 468 214 456 196 b 395 112 431 150 414 130 b 348 89 375 94 359 87 b 282 184 317 100 295 132 b 267 361 269 235 264 294 b 294 544 270 427 279 488 b 354 656 309 600 330 637 b 392 631 372 667 385 659 b 410 524 399 603 406 567 b 429 412 414 482 420 445 b 468 360 437 378 450 361 b 512 419 481 363 496 382 b 545 545 528 456 538 497 b 536 668 552 592 549 633 b 431 758 516 711 481 741 b 276 768 381 775 330 778 b 152 692 223 757 182 732 b 52 404 98 613 65 517 b 92 98 40 292 54 190 b 191 -12 116 48 149 12 b 332 -47 233 -36 280 -47 b 458 -7 383 -47 425 -34 b 525 92 491 20 513 54 b 536 196 537 132 541 166 b 509 250 532 226 523 244 z "},"d":{"ha":812,"x_min":0,"x_max":0,"o":"m 744 -68 b 773 -35 760 -62 770 -51 b 753 -2 776 -20 770 -9 b 662 123 709 13 679 55 b 636 357 646 193 637 271 b 651 631 636 445 641 536 b 681 870 661 726 671 806 b 710 1046 690 935 700 994 b 712 1057 711 1050 711 1054 b 696 1138 718 1090 713 1117 b 631 1178 680 1158 658 1172 b 554 1172 604 1185 578 1182 b 506 1111 530 1161 514 1141 b 475 939 495 1065 485 1008 b 446 677 465 870 455 783 b 366 743 429 707 402 729 b 241 745 330 757 288 758 b 122 649 195 732 155 700 b 58 473 95 604 74 545 b 36 249 41 399 35 325 b 85 62 37 172 54 110 b 222 -15 116 14 162 -12 b 356 25 283 -18 327 -5 b 418 119 385 56 406 87 b 433 156 424 133 429 146 b 454 183 443 177 450 186 b 464 156 457 180 461 172 b 465 153 465 155 465 154 b 564 -34 484 65 517 3 b 744 -68 612 -71 671 -81 z m 247 180 b 277 495 243 307 253 412 b 352 623 302 578 327 621 b 415 546 389 619 410 593 b 402 379 420 498 416 443 b 347 207 388 316 370 258 b 286 122 324 155 304 127 b 247 180 268 117 255 136 z "},"e":{"ha":625,"x_min":0,"x_max":0,"o":"m 291 233 b 435 273 342 232 391 245 b 541 387 479 300 514 338 b 585 541 566 435 581 486 b 559 686 589 595 580 643 b 450 774 537 729 501 758 b 255 768 375 793 310 791 b 124 662 200 745 157 709 b 55 477 92 614 69 552 b 47 248 41 401 39 325 b 125 46 56 171 82 104 b 293 -49 168 -12 224 -43 b 439 -28 351 -53 399 -46 b 532 50 479 -11 510 15 b 532 109 545 71 544 90 b 479 142 519 127 502 138 b 421 116 458 146 438 137 b 350 72 396 82 372 68 b 294 118 328 76 309 92 b 268 205 279 144 271 174 b 268 209 268 206 268 208 b 270 227 267 216 267 222 b 291 233 272 231 279 233 z m 406 610 b 412 501 420 574 422 538 b 364 404 401 465 386 432 b 304 343 343 375 323 355 b 268 349 284 332 273 334 b 273 449 263 376 264 410 b 311 560 282 489 294 526 b 361 631 327 595 344 618 b 406 610 378 643 394 636 z "},"f":{"ha":623,"x_min":0,"x_max":0,"o":"m 260 -152 b 279 -49 273 -118 279 -83 b 271 58 279 -15 276 21 b 261 203 265 100 262 149 b 385 205 318 203 359 204 b 445 210 410 205 430 207 b 475 230 460 213 470 220 b 483 282 479 240 482 258 b 471 338 484 307 479 326 b 435 354 465 347 454 353 b 361 354 418 355 393 355 b 258 349 330 353 296 351 b 269 584 252 444 256 522 b 321 684 282 646 300 680 b 379 611 342 688 361 664 b 435 537 396 559 415 534 b 488 598 456 541 473 561 b 505 710 503 636 509 673 b 457 794 503 747 486 774 b 334 824 428 813 387 823 b 164 762 267 825 210 805 b 72 586 119 719 88 660 b 51 359 56 512 50 437 b 62 121 52 283 56 203 b 71 -83 68 44 71 -24 b 49 -212 71 -142 64 -185 b 55 -254 39 -230 41 -244 b 117 -265 69 -264 90 -267 b 197 -235 143 -263 170 -253 b 260 -152 224 -217 245 -189 z "},"g":{"ha":701,"x_min":0,"x_max":0,"o":"m 620 705 b 591 753 615 728 606 744 b 544 770 576 763 560 768 b 507 767 528 770 515 770 b 421 768 481 762 453 762 b 336 772 395 772 366 773 b 245 741 307 770 276 760 b 153 642 214 723 183 689 b 73 459 121 590 94 530 b 37 251 51 389 39 319 b 75 77 35 182 47 124 b 218 -1 103 30 151 4 b 300 18 250 -2 277 4 b 356 75 322 32 341 51 b 416 212 380 113 399 159 b 456 360 431 264 445 314 b 468 407 460 377 464 393 b 463 221 468 353 466 291 b 437 18 459 152 450 84 b 376 -151 424 -48 404 -104 b 339 -182 363 -171 350 -182 b 308 -165 328 -182 317 -176 b 281 -126 298 -153 290 -140 b 264 -101 275 -117 270 -109 b 220 -84 254 -87 239 -81 b 162 -129 201 -87 182 -102 b 156 -201 149 -149 146 -172 b 216 -278 165 -229 185 -254 b 336 -321 246 -301 286 -316 b 538 -257 423 -328 491 -306 b 638 -58 587 -208 620 -141 b 665 212 657 26 666 116 b 649 488 665 309 659 400 b 620 705 639 575 629 648 z m 292 216 b 248 174 279 186 264 172 b 225 238 233 176 225 198 b 259 458 229 320 240 393 b 322 610 278 523 299 573 b 379 663 345 647 364 665 b 392 543 399 660 403 620 b 292 216 380 467 347 357 z "},"h":{"ha":705,"x_min":0,"x_max":0,"o":"m 567 -61 b 625 -62 588 -65 608 -66 b 662 -42 643 -58 655 -52 b 651 -9 668 -33 665 -22 b 601 124 623 18 606 63 b 604 338 595 186 597 257 b 617 538 612 420 616 486 b 591 677 618 590 610 636 b 486 758 571 718 536 744 b 340 723 432 769 383 758 b 227 561 296 688 258 634 b 241 789 227 647 232 723 b 269 963 250 854 259 912 b 289 1080 277 1005 284 1044 b 238 1141 286 1107 269 1128 b 145 1149 208 1154 177 1156 b 85 1090 113 1142 94 1122 b 28 527 51 908 32 721 b 62 42 24 333 36 172 b 113 -1 66 21 83 6 b 203 3 144 -9 174 -7 b 253 50 233 15 249 31 b 256 313 245 154 245 242 b 311 513 265 385 283 452 b 388 602 337 575 363 605 b 408 555 400 600 407 583 b 407 446 410 526 409 490 b 405 211 403 357 402 279 b 444 35 408 143 421 84 b 567 -61 468 -15 509 -47 z "},"i":{"ha":374,"x_min":0,"x_max":0,"o":"m 316 31 b 259 103 290 39 270 63 b 240 247 248 142 241 191 b 245 419 239 303 241 361 b 260 577 250 478 255 530 b 267 655 263 609 266 635 b 241 717 270 682 261 702 b 170 742 222 731 198 740 b 96 728 142 744 117 739 b 58 672 73 716 60 698 b 49 551 56 635 53 595 b 37 359 43 489 39 425 b 48 175 35 294 39 232 b 108 32 58 117 78 70 b 241 -35 138 -6 182 -28 b 315 -25 274 -37 299 -34 b 340 5 332 -16 340 -5 b 316 31 340 17 332 25 z m 182 823 b 251 853 208 823 231 833 b 279 925 270 873 279 897 b 251 997 279 954 270 977 b 182 1027 231 1017 208 1027 b 113 997 155 1027 132 1017 b 84 925 94 977 84 954 b 113 853 84 897 94 873 b 182 823 132 833 155 823 z "},"j":{"ha":597,"x_min":0,"x_max":0,"o":"m 511 715 b 453 764 503 742 484 758 b 367 748 422 769 394 764 b 332 671 340 732 328 707 b 356 407 344 596 352 508 b 344 62 361 305 357 191 b 268 -223 332 -66 306 -161 b 231 -253 254 -243 242 -252 b 199 -237 220 -253 210 -248 b 173 -200 190 -226 181 -214 b 157 -176 167 -191 161 -184 b 112 -160 146 -163 131 -157 b 54 -203 93 -163 73 -177 b 48 -271 41 -221 39 -244 b 108 -344 57 -297 77 -321 b 228 -385 138 -366 178 -380 b 432 -321 315 -391 383 -369 b 534 -77 481 -272 515 -191 b 563 235 554 37 564 141 b 546 505 563 330 557 419 b 511 715 535 590 524 660 z m 391 831 b 460 860 417 831 440 841 b 488 929 479 880 488 903 b 460 998 488 956 479 979 b 391 1027 440 1017 417 1027 b 321 998 363 1027 340 1017 b 292 929 302 979 292 956 b 321 860 292 903 302 880 b 391 831 340 841 363 831 z "},"k":{"ha":703,"x_min":0,"x_max":0,"o":"m 651 157 b 597 151 641 153 623 151 b 498 189 570 151 538 164 b 386 319 460 214 422 258 b 538 403 447 330 498 357 b 614 555 579 448 604 499 b 597 705 625 612 619 663 b 487 788 575 748 538 776 b 329 731 431 798 378 779 b 224 503 279 682 244 606 b 243 825 223 608 229 715 b 288 1107 256 935 271 1028 b 265 1164 290 1131 283 1149 b 200 1194 248 1180 226 1190 b 128 1185 174 1198 150 1195 b 87 1133 106 1177 92 1159 b 43 734 64 1004 49 871 b 41 347 37 597 36 468 b 63 43 46 227 54 125 b 115 1 68 22 85 7 b 205 3 145 -5 175 -5 b 256 45 235 10 252 24 b 254 182 254 91 253 136 b 262 286 254 227 257 261 b 293 203 263 272 274 244 b 380 69 313 161 341 116 b 503 -14 418 22 458 -5 b 591 4 537 -18 566 -12 b 647 63 615 20 633 40 b 668 129 660 86 667 109 b 651 157 669 149 663 159 z m 275 377 b 295 457 278 397 285 425 b 332 554 305 490 318 523 b 378 627 347 586 363 610 b 425 633 395 643 410 646 b 433 555 437 619 439 593 b 385 444 427 517 410 481 b 275 377 358 408 321 386 z "},"l":{"ha":458,"x_min":0,"x_max":0,"o":"m 391 -61 b 420 -31 407 -55 416 -45 b 399 1 422 -16 416 -5 b 298 113 353 17 319 54 b 263 325 278 171 266 241 b 271 585 260 408 263 494 b 302 838 279 675 290 759 b 333 1029 313 916 324 980 b 335 1040 334 1033 334 1037 b 317 1117 340 1072 334 1097 b 248 1158 299 1137 276 1151 b 170 1153 220 1164 194 1162 b 122 1096 145 1143 129 1124 b 87 910 112 1054 100 991 b 54 639 73 829 62 739 b 49 346 45 540 43 442 b 97 93 54 250 70 165 b 206 -45 121 30 157 -16 b 391 -61 255 -75 317 -79 z "},"m":{"ha":1065,"x_min":0,"x_max":0,"o":"m 614 45 b 623 305 614 135 618 222 b 655 512 629 389 640 457 b 721 599 670 566 692 595 b 772 541 752 600 769 581 b 766 366 775 503 773 444 b 755 175 760 309 755 245 b 798 12 755 105 769 51 b 924 -56 827 -28 869 -50 b 984 -52 945 -58 966 -57 b 1021 -32 1002 -48 1015 -41 b 1008 -3 1028 -23 1023 -14 b 954 127 975 22 956 66 b 960 327 950 190 953 256 b 968 528 966 404 968 471 b 941 672 968 583 959 631 b 838 753 922 713 888 739 b 696 732 791 763 744 756 b 587 612 649 708 612 668 b 544 709 581 655 566 688 b 469 749 522 731 496 745 b 389 749 440 755 414 754 b 291 683 351 739 318 718 b 231 557 264 649 244 607 b 234 675 231 599 231 639 b 205 727 233 698 224 715 b 140 747 186 740 165 746 b 73 728 115 747 92 741 b 40 665 53 715 42 694 b 41 354 36 561 37 456 b 65 28 47 251 55 142 b 117 -16 70 6 87 -8 b 208 -18 147 -24 178 -25 b 259 21 238 -12 255 1 b 283 456 247 206 255 351 b 386 600 311 561 345 609 b 415 536 399 595 410 573 b 425 398 421 498 425 452 b 426 233 426 344 427 289 b 429 40 425 153 425 88 b 483 -14 435 12 453 -6 b 570 -11 513 -22 542 -22 b 614 45 597 -1 612 18 z "},"n":{"ha":724,"x_min":0,"x_max":0,"o":"m 405 602 b 435 538 425 595 435 574 b 422 373 435 503 431 448 b 406 184 413 315 408 253 b 437 17 404 116 414 60 b 570 -61 460 -26 505 -52 b 634 -58 591 -63 613 -62 b 677 -39 655 -53 669 -47 b 665 -14 686 -31 682 -22 b 618 50 642 -2 626 19 b 610 170 610 79 608 120 b 623 317 613 221 617 270 b 637 528 631 400 635 470 b 612 676 638 585 630 634 b 510 758 594 718 560 745 b 355 724 454 769 403 758 b 237 561 308 690 269 635 b 244 677 239 602 241 641 b 216 728 245 699 235 715 b 149 747 198 740 176 747 b 80 729 123 748 100 742 b 45 667 60 716 48 696 b 37 361 37 564 35 463 b 52 42 39 260 45 154 b 104 -1 56 21 73 6 b 197 -4 135 -9 166 -10 b 251 35 229 2 246 16 b 267 346 245 155 251 259 b 328 543 281 433 302 498 b 405 602 354 589 379 608 z "},"o":{"ha":629,"x_min":0,"x_max":0,"o":"m 441 0 b 559 187 496 41 535 104 b 589 448 583 271 593 358 b 534 670 584 538 566 612 b 406 775 503 721 460 756 b 240 787 352 795 297 798 b 96 706 183 774 136 748 b 34 537 57 665 36 608 b 41 474 35 513 37 492 b 47 428 43 460 45 445 b 43 361 48 410 47 388 b 37 272 39 329 37 299 b 66 115 37 210 47 157 b 140 14 85 73 110 39 b 241 -35 171 -10 205 -26 b 347 -37 277 -43 312 -43 b 441 0 382 -31 414 -18 z m 363 544 b 380 415 374 507 379 464 b 356 329 381 374 373 346 b 285 331 340 312 315 313 b 218 427 251 355 229 387 b 213 549 208 468 206 509 b 248 644 220 590 231 621 b 305 660 265 667 284 673 b 363 544 326 648 345 609 z m 217 252 b 290 224 237 235 261 226 b 364 229 319 221 344 223 b 313 90 354 157 337 111 b 247 99 290 68 267 71 b 217 252 227 126 217 178 z "},"p":{"ha":758,"x_min":0,"x_max":0,"o":"m 302 686 b 280 746 305 711 298 730 b 215 776 262 762 241 771 b 142 768 189 780 165 777 b 101 714 121 758 106 740 b 69 496 91 661 81 588 b 43 198 58 404 50 304 b 42 -107 37 91 37 -10 b 84 -345 47 -203 61 -283 b 161 -431 100 -384 126 -412 b 271 -460 197 -450 233 -460 b 365 -431 309 -460 340 -450 b 373 -422 368 -429 370 -426 b 374 -412 375 -419 376 -416 b 360 -398 373 -407 368 -403 b 282 -281 326 -377 300 -338 b 248 -84 264 -224 253 -158 b 241 135 242 -9 240 63 b 319 9 256 80 282 38 b 463 -27 357 -20 405 -33 b 597 60 515 -20 559 9 b 686 243 635 111 665 172 b 721 459 707 315 719 387 b 693 642 722 531 713 592 b 617 730 677 682 652 711 b 506 751 583 748 545 755 b 400 706 467 748 431 732 b 329 598 376 682 352 646 b 275 471 306 551 288 508 b 288 573 279 503 283 537 b 302 686 293 623 298 661 z m 480 614 b 519 556 502 616 515 597 b 512 406 524 515 522 466 b 471 237 503 347 490 290 b 410 118 454 182 433 143 b 353 104 390 98 371 94 b 314 165 336 114 323 134 b 312 279 306 197 305 235 b 348 414 319 322 332 367 b 407 541 364 462 384 504 b 480 614 429 578 454 602 z "},"q":{"ha":791,"x_min":0,"x_max":0,"o":"m 221 -30 b 329 -10 266 -34 302 -27 b 391 56 355 7 376 29 b 426 134 406 83 417 109 b 444 177 432 151 438 165 b 465 194 450 188 457 194 b 482 -186 447 30 453 -96 b 659 -326 512 -275 570 -321 b 731 -310 690 -326 714 -321 b 756 -276 747 -299 755 -288 b 732 -254 757 -264 749 -257 b 679 -181 709 -250 691 -226 b 654 -9 667 -136 659 -79 b 650 215 650 61 649 136 b 659 443 652 294 654 370 b 670 628 663 515 666 577 b 674 704 672 661 673 686 b 640 782 676 742 665 768 b 560 792 616 796 589 800 b 500 741 531 785 511 768 b 462 668 486 697 473 673 b 405 694 451 663 432 672 b 311 730 377 714 346 726 b 205 715 275 735 240 730 b 114 633 170 699 140 672 b 54 465 87 591 68 534 b 40 252 41 395 36 324 b 90 62 45 178 61 115 b 221 -30 119 10 162 -21 z m 338 617 b 401 567 370 616 391 599 b 408 446 411 534 413 494 b 377 300 402 397 392 349 b 328 176 362 251 346 210 b 278 122 310 143 293 125 b 246 182 263 119 252 139 b 266 485 237 300 243 401 b 338 617 288 569 312 613 z "},"r":{"ha":730,"x_min":0,"x_max":0,"o":"m 272 -14 b 294 427 261 161 269 308 b 382 627 319 545 348 612 b 414 614 398 632 409 627 b 415 551 418 600 419 578 b 410 514 414 540 412 528 b 399 406 404 479 399 444 b 422 302 397 368 406 333 b 535 233 440 270 477 248 b 625 233 568 225 597 225 b 681 265 652 241 671 252 b 669 295 692 278 687 288 b 606 374 631 309 610 335 b 608 509 602 414 602 458 b 614 618 612 545 614 582 b 591 720 614 654 606 688 b 494 785 576 752 543 774 b 353 750 445 797 397 785 b 241 572 308 715 271 656 b 245 702 241 618 243 661 b 215 758 245 726 235 745 b 145 780 195 772 172 779 b 75 760 119 781 95 774 b 41 691 54 745 43 722 b 42 350 36 576 37 463 b 67 -7 47 237 56 119 b 122 -55 72 -31 90 -46 b 218 -58 154 -64 186 -64 b 272 -14 250 -51 268 -37 z "},"s":{"ha":616,"x_min":0,"x_max":0,"o":"m 570 157 b 553 316 578 224 573 277 b 470 407 532 355 505 386 b 362 461 435 429 399 447 b 271 507 327 475 296 490 b 228 573 246 523 232 545 b 271 665 230 616 244 647 b 349 671 296 684 323 686 b 393 563 375 656 390 620 b 441 512 396 537 412 520 b 525 517 469 505 497 506 b 568 577 553 527 567 547 b 495 729 562 644 538 694 b 344 785 452 763 402 782 b 178 751 286 789 230 777 b 62 627 125 724 87 683 b 53 483 43 580 40 532 b 146 368 65 434 96 395 b 223 332 172 355 198 342 b 330 275 267 316 302 297 b 361 172 357 253 367 218 b 298 98 352 132 332 107 b 204 111 265 87 234 92 b 162 214 174 131 160 165 b 146 268 163 243 158 260 b 106 262 134 275 121 273 b 73 211 91 252 80 235 b 85 49 56 144 60 91 b 196 -39 111 7 147 -22 b 351 -50 245 -55 297 -59 b 494 14 405 -41 453 -20 b 570 157 535 49 561 96 z "},"t":{"ha":750,"x_min":0,"x_max":0,"o":"m 496 864 l 654 859 b 692 880 671 859 684 865 b 708 928 701 894 707 909 l 708 930 b 700 981 709 949 707 966 b 666 1002 693 995 682 1002 l 517 1000 b 523 1029 519 1010 521 1020 l 525 1040 b 507 1118 531 1072 525 1097 b 438 1158 489 1137 466 1151 b 359 1153 410 1164 384 1162 b 312 1096 335 1143 319 1124 b 292 995 306 1069 299 1036 l 54 990 b 12 968 32 988 18 981 b 1 937 5 956 2 945 b 5 909 1 928 2 918 b 45 880 12 892 24 882 l 271 872 b 244 640 260 801 251 724 b 239 346 235 540 234 442 b 287 93 243 250 260 165 b 396 -45 311 30 347 -16 b 581 -61 445 -74 507 -79 b 610 -31 597 -55 606 -45 b 589 1 612 -16 606 -5 b 488 113 543 17 509 54 b 453 325 467 171 456 241 b 461 585 450 408 453 494 b 492 838 469 675 479 759 b 496 864 493 846 494 856 z "},"u":{"ha":747,"x_min":0,"x_max":0,"o":"m 688 31 b 628 111 661 41 640 67 b 609 269 616 155 610 207 b 614 457 608 331 610 393 b 629 625 619 520 624 576 b 635 696 631 654 634 677 b 608 758 637 722 629 743 b 534 784 588 773 564 781 b 456 770 506 786 479 781 b 418 713 433 758 420 739 b 408 578 416 685 413 640 b 383 380 402 515 394 449 b 343 203 373 310 359 251 b 284 132 327 155 307 131 b 237 227 260 138 244 170 b 238 439 230 284 230 355 b 282 692 245 522 260 607 b 260 741 286 710 279 726 b 192 771 242 755 220 766 b 115 767 165 777 139 775 b 66 713 90 758 74 741 b 45 589 58 686 52 644 b 35 405 38 534 35 473 b 47 212 35 337 39 273 b 100 56 56 151 73 99 b 218 -16 127 13 166 -11 b 332 1 269 -22 307 -16 b 398 79 357 18 379 44 b 438 185 418 113 431 149 b 486 42 441 134 457 85 b 610 -35 515 -2 557 -28 b 688 -25 645 -37 671 -34 b 713 6 705 -16 713 -5 b 688 31 713 18 705 26 z "},"v":{"ha":680,"x_min":0,"x_max":0,"o":"m 452 38 b 560 320 488 93 524 186 b 645 701 597 454 625 581 b 600 759 646 726 630 745 b 502 772 568 772 536 777 b 439 716 468 768 447 749 b 415 479 437 641 429 562 b 367 269 401 397 385 327 b 320 174 349 210 334 178 b 282 266 307 176 294 206 b 252 479 270 326 260 396 b 244 708 245 562 242 638 b 193 762 243 734 226 753 b 92 764 159 772 125 772 b 35 706 58 755 39 736 b 52 498 35 659 40 589 b 108 224 64 406 83 315 b 201 24 132 134 164 67 b 331 -21 236 -8 279 -23 b 452 38 382 -18 423 1 z "},"w":{"ha":979,"x_min":0,"x_max":0,"o":"m 648 -37 b 806 31 709 -39 762 -16 b 906 266 849 79 882 157 b 945 707 930 375 943 522 b 895 766 943 734 926 753 b 798 770 863 777 831 779 b 744 704 766 761 748 739 b 748 534 747 661 749 604 b 736 323 747 465 743 394 b 702 145 729 252 718 192 b 637 78 686 98 665 75 b 587 170 613 83 596 114 b 577 392 577 227 574 300 b 604 698 580 484 589 586 b 578 748 606 719 597 735 b 509 770 559 760 536 768 b 439 755 483 771 460 766 b 407 696 419 743 408 724 b 400 551 407 662 405 613 b 380 359 396 488 389 425 b 342 194 370 294 357 239 b 286 130 327 150 308 128 b 239 224 262 135 246 167 b 238 437 231 282 231 353 b 279 690 245 520 259 605 b 255 739 281 708 274 724 b 186 770 237 753 214 764 b 109 765 159 775 133 774 b 61 711 85 757 68 739 b 42 587 54 684 48 643 b 35 403 37 532 35 471 b 54 205 35 335 42 269 b 115 44 66 142 86 87 b 233 -34 143 0 182 -26 b 352 9 279 -38 319 -24 b 425 130 385 42 410 82 b 648 -37 454 20 528 -35 z "},"x":{"ha":774,"x_min":0,"x_max":0,"o":"m 720 47 b 730 89 733 64 736 78 b 694 96 725 100 713 102 b 568 125 655 79 613 90 b 438 319 524 161 480 226 b 585 517 486 386 534 452 b 707 661 636 582 677 630 b 699 735 722 686 718 710 b 623 789 678 760 653 778 b 553 781 592 800 569 798 b 446 635 523 743 488 694 b 356 510 414 588 383 546 b 323 633 346 542 334 583 b 298 751 311 684 302 723 b 237 798 292 778 271 793 b 141 781 203 802 172 796 b 103 715 111 766 98 745 b 154 547 114 673 131 617 b 235 336 177 478 204 408 b 199 282 224 319 212 300 b 49 51 145 200 95 123 b 63 -11 39 31 44 10 b 136 -56 83 -33 106 -48 b 208 -41 165 -65 189 -60 b 264 60 222 -13 241 21 b 329 161 288 98 309 132 b 414 41 353 115 382 75 b 523 -27 446 7 483 -15 b 621 -25 555 -37 587 -36 b 720 47 654 -14 688 10 z "},"y":{"ha":688,"x_min":0,"x_max":0,"o":"m 621 730 b 567 783 614 758 595 774 b 481 777 538 790 509 788 b 433 716 454 766 437 746 b 425 568 435 680 433 630 b 389 380 417 507 405 444 b 334 219 374 315 355 262 b 267 157 313 176 291 156 b 224 237 243 162 229 189 b 234 422 219 286 222 347 b 284 661 245 496 262 576 b 251 725 289 686 277 707 b 163 749 225 743 195 751 b 92 692 130 747 106 728 b 54 540 79 658 66 607 b 34 326 41 473 34 401 b 76 128 35 252 48 185 b 222 22 104 71 153 36 b 362 57 271 12 317 24 b 471 262 406 91 443 159 b 446 37 469 180 460 105 b 376 -137 431 -30 408 -88 b 336 -168 361 -157 349 -168 b 304 -151 325 -169 314 -163 b 275 -112 293 -140 283 -127 b 257 -87 269 -103 263 -94 b 210 -70 246 -73 230 -67 b 148 -115 190 -73 169 -88 b 142 -187 134 -135 132 -159 b 205 -265 152 -216 173 -241 b 334 -309 237 -289 281 -304 b 509 -238 399 -313 458 -290 b 620 -35 560 -186 597 -119 b 654 237 643 47 654 138 b 645 522 654 334 650 429 b 621 730 640 613 631 683 z "},"z":{"ha":760,"x_min":0,"x_max":0,"o":"m 498 170 b 516 197 503 176 509 186 b 592 330 540 227 565 271 b 634 544 620 388 633 460 b 551 730 626 626 598 688 b 366 791 505 772 443 792 b 164 701 279 788 212 758 b 80 479 116 644 88 570 b 121 426 80 454 94 437 b 205 416 149 415 176 412 b 257 455 235 420 252 433 b 269 538 257 474 261 503 b 304 638 276 574 288 608 b 369 688 321 669 342 685 b 426 640 397 688 416 671 b 432 520 436 608 438 568 b 364 297 420 443 397 369 b 270 172 331 226 299 184 b 58 56 150 144 80 105 b 78 -41 42 14 49 -18 b 207 -59 108 -64 151 -71 b 388 47 263 -48 323 -12 b 501 16 421 45 459 34 b 607 -45 543 -2 578 -22 b 665 -35 625 -54 644 -51 b 710 26 684 -19 700 1 b 709 87 720 51 720 71 b 616 137 692 103 661 120 b 498 170 570 154 531 165 z "},"{":{"ha":498,"x_min":0,"x_max":0,"o":"m 135 -184 b 199 -266 149 -218 171 -245 b 297 -311 229 -286 261 -301 b 406 -331 334 -321 370 -328 b 503 -336 443 -334 475 -336 b 534 -309 517 -336 527 -327 b 545 -263 541 -290 545 -275 b 545 -243 545 -250 545 -243 b 535 -185 545 -221 542 -202 b 503 -157 528 -168 517 -158 b 366 -131 438 -157 393 -149 b 323 -72 340 -113 326 -94 b 320 -20 321 -51 320 -33 b 325 50 320 1 321 24 b 330 149 328 81 330 114 l 330 158 b 310 274 330 196 323 235 b 235 389 296 313 271 351 b 327 508 280 427 311 467 b 351 631 343 549 351 590 l 351 633 b 342 751 351 675 348 714 b 336 833 338 781 336 808 b 337 857 336 842 336 850 b 375 929 338 888 351 912 b 493 954 398 946 437 954 l 502 954 b 535 989 519 956 530 968 b 541 1044 539 1011 541 1029 b 538 1085 541 1058 540 1072 b 507 1133 532 1114 522 1130 b 473 1133 496 1133 485 1133 b 383 1129 446 1133 416 1132 b 251 1095 336 1125 292 1114 b 159 1006 210 1077 179 1047 b 136 892 144 969 136 930 l 136 886 b 146 765 137 845 140 805 b 155 652 152 726 155 688 b 129 557 155 617 146 585 b 34 488 111 529 80 506 b -18 442 6 475 -12 460 b -28 396 -25 424 -28 408 b -22 359 -28 384 -26 372 b 31 304 -13 334 5 316 b 109 239 69 287 95 265 b 130 149 123 212 130 182 b 123 42 130 115 127 79 b 115 -44 118 5 115 -24 b 115 -76 115 -64 115 -75 b 135 -184 115 -113 121 -149 z "},"|":{"ha":288,"x_min":0,"x_max":0,"o":"m 195 1157 b 168 1158 187 1157 178 1158 b 109 1160 149 1160 130 1160 b 56 1151 89 1159 71 1156 b 34 1120 41 1145 34 1135 l 34 -217 b 43 -243 34 -227 37 -236 b 66 -254 50 -250 58 -254 b 94 -255 74 -254 83 -254 b 152 -256 112 -256 131 -256 b 205 -248 172 -256 190 -253 b 227 -217 220 -242 227 -232 l 227 1120 b 218 1146 227 1131 224 1139 b 195 1157 211 1154 203 1157 z "},"}":{"ha":534,"x_min":0,"x_max":0,"o":"m 447 345 b 498 391 474 357 491 372 b 509 437 505 409 509 425 b 501 473 509 449 506 461 b 444 528 492 498 473 516 b 347 598 397 547 365 570 b 320 693 329 626 320 658 b 329 806 320 729 323 766 b 339 898 336 846 338 876 b 339 932 339 919 339 930 b 315 1047 339 971 332 1010 b 222 1136 296 1088 264 1118 b 97 1169 179 1154 138 1166 b -6 1174 56 1173 22 1174 b -42 1173 -18 1174 -31 1174 b -71 1137 -57 1171 -66 1158 b -77 1084 -75 1116 -77 1099 b -73 1040 -77 1070 -75 1055 b -36 995 -66 1012 -54 997 l -27 995 b 94 970 30 995 70 987 b 132 916 118 953 131 935 b 134 874 134 896 134 882 b 127 792 134 849 132 822 b 119 705 122 755 119 726 b 119 671 119 684 119 672 b 143 549 119 631 127 591 b 238 429 160 508 192 468 b 161 315 201 392 175 353 b 140 225 147 275 140 245 b 140 189 140 204 140 193 b 146 90 140 155 142 121 b 151 20 149 65 151 42 b 149 -17 151 7 150 -5 b 103 -90 146 -48 131 -73 b -38 -117 76 -108 29 -117 b -71 -144 -52 -117 -63 -127 b -81 -202 -77 -161 -81 -180 l -81 -205 b -69 -268 -80 -229 -77 -250 b -38 -295 -62 -286 -52 -295 b 62 -290 -9 -295 24 -294 b 174 -271 99 -288 136 -281 b 275 -225 212 -260 245 -245 b 341 -144 304 -205 326 -178 b 361 -35 355 -109 361 -73 l 361 -32 b 353 83 361 7 358 45 b 346 189 348 120 346 156 b 368 279 346 222 353 253 b 447 345 382 306 409 328 z "},"~":{"ha":831,"x_min":0,"x_max":0,"o":"m 637 525 b 566 462 607 488 583 467 b 530 452 549 456 537 454 b 473 459 511 450 491 452 b 394 496 447 469 420 481 b 303 538 362 516 332 530 b 227 547 275 547 249 550 b 168 532 208 545 189 540 b 16 403 123 513 73 471 b 1 352 4 387 -1 370 b 5 334 1 346 3 340 b 42 288 14 311 26 295 b 80 279 58 281 71 277 b 117 296 92 280 104 286 b 191 347 150 326 174 342 b 220 352 206 350 216 352 b 285 345 243 355 264 353 b 357 311 309 336 332 325 b 442 271 387 292 416 279 b 512 264 469 264 492 262 b 580 283 533 267 555 273 b 745 422 626 304 681 351 b 757 467 755 437 758 452 b 749 490 755 474 753 482 b 708 535 738 513 724 528 b 671 544 692 542 680 545 b 637 525 659 543 648 536 z "},"":{"ha":298,"x_min":0,"x_max":0,"o":"m 264 -28 l 235 696 b 198 743 231 720 219 736 b 144 753 177 749 159 753 b 106 747 131 753 119 751 b 60 696 78 739 63 722 l 34 -28 b 69 -70 35 -46 46 -60 b 127 -85 92 -80 111 -85 b 153 -85 142 -85 151 -85 b 229 -71 182 -85 207 -80 b 264 -28 252 -62 263 -47 z m 219 851 b 235 906 224 862 229 880 b 248 978 241 931 245 956 b 252 1033 251 1001 252 1019 b 250 1061 252 1043 252 1053 b 207 1104 244 1084 230 1098 b 146 1114 183 1111 163 1114 b 108 1110 133 1114 121 1113 b 55 1067 78 1103 60 1089 b 52 1025 54 1055 52 1041 b 54 993 52 1015 53 1004 b 63 911 56 964 58 937 b 76 857 67 886 71 867 b 113 825 85 839 97 828 b 151 819 127 821 140 819 b 180 823 160 819 170 820 b 219 851 199 828 212 838 z "},"":{"ha":754,"x_min":0,"x_max":0,"o":"m 275 -170 b 290 -120 280 -159 285 -142 b 304 -71 294 -106 298 -90 b 378 -78 330 -76 355 -78 b 521 -43 429 -78 477 -66 b 677 105 586 -9 638 40 b 743 317 718 170 739 240 b 713 351 741 335 732 347 b 668 358 695 356 680 358 b 633 354 656 358 645 357 b 595 323 609 349 597 338 l 595 319 b 559 183 595 269 583 224 b 477 96 534 140 507 111 b 401 73 447 80 422 73 b 348 84 383 73 366 77 l 511 655 b 550 597 526 637 539 618 b 572 543 560 576 568 557 b 613 521 578 528 592 521 l 616 521 b 681 537 640 521 661 526 b 711 573 701 547 711 559 l 710 576 b 656 709 701 625 683 669 b 554 807 631 749 596 781 l 591 936 b 591 943 591 939 591 941 b 562 981 591 958 582 970 b 507 999 539 992 521 998 b 482 1000 492 1000 484 1000 b 437 981 460 1000 444 994 b 419 922 432 968 426 949 b 401 854 415 903 409 881 b 367 855 389 855 378 855 b 157 798 286 855 216 836 b 1 624 89 754 37 696 b -54 449 -35 551 -53 492 b -56 375 -56 405 -56 380 b -7 161 -56 299 -40 227 b 155 -9 26 88 81 32 l 121 -128 b 121 -135 121 -130 121 -132 b 151 -172 121 -150 130 -162 b 204 -191 172 -184 191 -191 b 227 -192 218 -192 226 -192 b 275 -170 251 -192 267 -184 z m 209 178 b 164 291 183 218 168 255 b 157 372 159 326 157 353 b 169 475 157 406 161 440 b 233 612 181 527 202 572 b 355 690 264 652 304 677 z "},"":{"ha":858,"x_min":0,"x_max":0,"o":"m 11 25 b 22 0 14 17 18 9 b 50 -56 31 -23 40 -41 b 83 -79 60 -71 71 -79 b 98 -75 87 -79 92 -77 b 331 32 190 -27 268 8 b 494 67 394 55 448 67 b 556 60 515 67 536 64 b 734 -70 619 48 678 5 b 759 -81 741 -77 749 -81 b 787 -73 768 -81 777 -78 b 842 -28 810 -61 828 -46 b 863 18 857 -9 863 5 b 860 32 863 22 863 27 b 736 176 829 85 788 134 b 592 258 686 218 637 245 b 484 275 547 269 511 275 b 363 254 445 275 404 268 b 378 414 373 307 378 360 b 376 467 378 431 377 449 l 548 467 b 572 476 557 467 566 470 b 582 500 578 483 582 491 b 583 543 582 517 583 531 b 583 566 583 551 583 559 b 580 606 583 583 582 597 b 553 628 576 618 567 626 b 506 631 540 630 524 631 b 464 630 494 631 479 631 b 366 629 437 629 406 629 b 363 692 364 651 363 672 b 370 780 363 725 366 754 b 430 875 378 821 397 853 b 585 907 463 897 515 907 l 589 907 b 623 939 608 909 619 920 b 628 984 627 957 628 972 b 623 1027 628 998 627 1013 b 589 1069 616 1053 606 1066 l 566 1069 b 224 962 404 1069 291 1033 b 147 736 173 906 147 831 b 157 629 147 703 151 667 l -14 629 b -39 618 -24 629 -32 625 b -48 595 -45 612 -48 604 b -49 552 -48 578 -48 564 b -50 530 -50 544 -50 536 b -46 489 -50 511 -48 498 b -20 467 -42 477 -33 469 b 31 465 -5 465 11 465 b 70 465 42 465 56 465 b 166 467 96 466 127 467 b 167 422 167 451 167 437 b 149 252 167 351 161 294 b 96 137 135 200 117 162 b 37 83 75 113 55 95 b 12 61 24 75 16 66 b 5 44 7 55 5 50 b 11 25 5 39 7 32 z "},"":{"ha":654,"x_min":0,"x_max":0,"o":"m 66 629 b 37 602 55 619 45 610 b -7 544 7 575 -7 556 b 37 486 -7 532 7 513 b 65 459 45 479 54 470 b 43 357 50 425 43 391 b 64 257 43 323 50 290 b 46 241 59 252 53 247 b 7 201 29 227 16 214 b -6 172 -1 189 -6 180 b 3 151 -6 165 -3 157 b 31 123 13 140 22 131 b 79 78 56 93 73 78 b 88 78 85 78 88 78 b 143 120 100 78 118 92 b 168 144 150 127 158 136 b 270 119 201 128 236 119 b 377 148 306 119 341 129 b 392 131 381 143 387 137 b 431 93 406 115 418 102 b 460 79 443 83 452 79 b 481 88 467 79 475 82 b 509 116 492 98 501 108 b 554 173 539 142 554 161 b 509 231 554 185 539 205 b 479 260 500 240 490 250 b 500 361 492 294 500 327 b 480 458 500 393 493 425 b 500 475 486 463 492 469 b 540 516 517 490 531 504 b 553 545 549 528 553 538 b 544 566 553 553 550 559 b 517 595 534 577 525 587 b 459 640 490 624 471 639 b 403 597 448 640 429 625 b 378 571 395 589 387 581 b 273 597 343 589 309 597 b 169 571 239 597 203 589 b 155 587 164 575 160 581 b 117 625 142 603 129 615 b 87 638 104 633 94 638 b 66 629 79 638 73 635 z m 274 431 b 327 402 302 431 320 421 b 337 353 334 383 337 367 b 331 315 337 340 335 328 b 281 265 322 288 305 271 b 269 264 277 264 273 264 b 229 283 252 264 238 271 b 214 339 219 299 214 317 l 214 341 b 230 401 214 363 220 384 b 274 431 241 420 255 429 z "},"":{"ha":696,"x_min":0,"x_max":0,"o":"m 403 104 l 573 104 b 595 113 582 104 589 108 b 604 135 601 119 604 127 b 604 175 604 150 604 163 b 605 197 605 183 605 191 b 602 231 605 212 604 224 b 577 251 598 243 590 249 b 532 254 565 253 550 254 b 493 253 522 254 508 254 b 403 252 469 252 439 252 l 403 277 l 573 277 b 595 286 582 277 589 280 b 604 307 601 292 604 299 b 604 346 604 321 604 334 b 605 366 605 353 605 359 b 602 403 605 382 604 395 b 578 423 599 414 591 421 b 536 426 566 425 552 426 b 498 425 525 426 513 425 b 414 424 476 424 448 424 l 674 772 b 681 791 679 779 681 785 l 680 795 b 668 815 680 803 675 810 b 649 831 663 819 656 825 b 607 862 633 845 618 856 b 580 872 595 869 586 872 b 557 861 571 872 564 868 l 331 559 l 154 867 b 129 878 149 874 140 878 b 116 877 125 878 121 878 b 59 852 98 872 79 864 b 14 815 39 840 24 827 b -3 785 3 803 -3 793 b -1 776 -3 782 -2 779 l 213 424 l 51 424 b 30 415 43 424 36 421 b 21 393 24 409 21 401 b 20 353 21 378 20 365 b 20 331 20 345 20 338 b 23 297 20 316 21 304 b 47 277 26 286 34 279 b 92 275 60 275 75 275 b 131 276 103 275 116 275 b 222 277 155 277 186 277 l 222 252 l 51 252 b 30 243 43 252 36 249 b 21 221 24 237 21 229 b 20 180 21 205 20 192 b 20 159 20 173 20 165 b 23 125 20 144 21 132 b 47 105 26 113 34 106 b 98 102 61 103 77 102 b 131 103 107 102 119 102 b 222 104 155 104 186 104 b 221 65 222 92 222 78 b 220 35 220 54 220 44 b 220 16 220 28 220 22 b 228 -20 220 1 223 -11 b 252 -34 233 -29 241 -34 l 277 -34 b 299 -35 285 -34 292 -35 b 362 -29 327 -35 348 -33 b 396 6 380 -25 392 -13 b 403 104 400 25 403 58 z "},"":{"ha":255,"x_min":0,"x_max":0,"o":"m 180 442 b 132 443 162 442 146 442 b 106 444 123 444 114 444 b 61 435 86 444 71 441 b 37 378 47 427 39 408 b 34 277 35 348 34 314 b 35 169 34 246 34 210 b 38 -131 37 94 38 -6 b 49 -172 38 -146 41 -160 b 75 -188 56 -182 65 -188 b 123 -189 93 -188 109 -189 b 149 -191 132 -190 141 -191 b 194 -182 169 -191 184 -187 b 218 -124 208 -174 216 -154 b 221 -23 220 -94 221 -60 b 220 85 221 7 221 44 b 217 385 218 160 217 260 b 206 425 217 401 214 414 b 180 442 199 437 190 442 z m 180 1168 b 132 1170 162 1168 146 1169 b 106 1171 123 1171 114 1171 b 61 1162 86 1171 71 1168 b 37 1105 47 1154 39 1135 b 34 1004 35 1074 34 1041 b 35 895 34 973 34 937 b 38 595 37 821 38 721 b 49 555 38 580 41 566 b 75 538 56 544 65 538 b 123 537 93 538 109 538 b 146 536 131 536 139 536 b 194 545 168 536 184 539 b 218 602 208 553 216 572 b 221 703 220 633 221 667 b 220 812 221 734 221 770 b 217 1112 218 886 217 987 b 206 1152 217 1127 214 1141 b 180 1168 199 1163 190 1168 z "},"":{"ha":566,"x_min":0,"x_max":0,"o":"m 347 129 b 347 124 347 127 347 125 b 313 87 347 106 336 94 b 295 84 307 85 301 84 b 227 99 274 82 252 87 b 150 193 194 115 169 146 b 136 211 146 201 142 208 b 119 215 130 214 125 215 b 110 212 117 215 113 214 b 85 203 102 209 94 206 b 27 176 62 195 43 186 b 3 140 11 166 3 154 b 5 129 3 136 3 132 b 115 -32 27 58 64 4 b 239 -84 165 -67 207 -85 b 295 -83 271 -83 290 -83 b 438 -22 348 -79 395 -58 b 510 89 480 17 504 54 b 518 160 515 124 518 148 b 482 275 518 202 507 241 b 533 450 516 345 533 404 l 533 455 b 494 570 532 503 519 541 b 403 638 469 599 439 621 b 298 680 367 655 332 669 b 227 707 270 688 246 698 b 193 739 208 715 197 727 b 193 746 193 742 193 744 b 228 790 193 767 205 782 b 252 795 236 793 243 795 b 316 783 271 797 293 793 b 389 690 349 768 372 736 b 402 671 391 680 396 674 b 418 667 408 668 414 667 b 429 670 422 667 425 669 b 454 680 436 673 444 677 b 511 706 475 687 495 696 b 535 743 527 717 535 729 b 534 754 535 747 534 750 b 424 914 511 825 475 878 b 299 966 373 949 332 967 b 243 965 267 966 249 966 b 100 905 191 961 143 941 b 28 793 58 865 34 828 b 20 722 23 758 20 734 b 56 608 20 680 32 642 b 3 433 20 539 3 481 l 3 428 b 45 309 4 379 18 340 b 141 233 71 277 103 252 b 250 186 178 214 215 199 b 317 158 277 176 299 167 b 347 129 334 149 345 140 z m 183 522 b 252 497 208 513 231 504 b 345 456 297 484 328 470 b 369 412 361 442 369 428 b 355 360 369 397 365 380 b 286 385 331 370 308 378 b 194 426 241 399 210 412 b 169 470 178 439 169 454 b 183 522 169 485 174 502 z "},"":{"ha":529,"x_min":0,"x_max":0,"o":"m 245 951 b 248 999 245 964 245 981 b 250 1069 250 1023 250 1046 b 241 1129 250 1093 247 1113 b 203 1153 234 1145 221 1153 l 145 1153 b 73 1149 113 1153 89 1152 b 39 1128 53 1146 41 1139 b 34 1088 35 1116 34 1103 b 36 1050 34 1078 35 1065 b 39 951 38 1025 39 991 b 52 928 39 942 43 934 b 82 918 60 922 71 918 b 111 917 90 918 99 918 b 153 916 124 916 138 916 l 169 916 b 222 923 189 916 207 918 b 245 951 237 928 245 937 z m 448 1153 l 391 1153 b 318 1149 359 1153 334 1152 b 283 1128 298 1146 286 1139 b 279 1088 280 1116 279 1103 b 281 1050 279 1078 279 1065 b 284 951 283 1025 284 991 b 297 928 284 942 288 934 b 327 918 305 922 315 918 b 355 917 334 918 344 918 b 398 916 369 916 383 916 l 414 916 b 467 923 434 916 452 918 b 490 951 483 928 490 937 b 492 999 490 964 491 981 b 495 1058 494 1019 495 1038 l 495 1069 b 486 1129 495 1093 492 1113 b 448 1153 479 1145 466 1153 z "},"":{"ha":983,"x_min":0,"x_max":0,"o":"m 570 347 b 570 335 570 343 570 339 b 555 273 570 315 565 294 b 512 222 542 248 528 231 b 473 209 496 213 483 209 b 429 223 459 209 444 214 b 388 288 410 237 396 259 b 376 368 380 317 376 343 b 381 423 376 385 378 404 b 439 547 389 467 408 509 b 488 570 456 563 473 570 b 512 564 496 570 505 568 b 553 486 535 553 549 526 b 574 455 555 468 563 458 b 603 451 587 452 596 451 b 635 457 614 451 625 453 b 663 488 652 464 662 475 b 602 611 661 541 640 581 b 465 654 564 640 518 654 b 314 601 412 654 361 636 b 235 487 273 565 246 528 b 218 385 224 447 218 413 b 227 312 218 361 221 336 b 305 184 239 260 266 217 b 463 134 345 151 397 134 l 471 134 b 607 195 525 138 570 158 b 673 342 644 233 667 282 b 654 376 673 361 667 372 b 622 381 641 380 630 381 b 595 377 613 381 604 380 b 570 349 578 372 570 362 z m 932 391 b 867 633 932 479 910 560 b 692 808 823 707 765 765 b 449 873 619 852 538 873 b 206 808 360 873 279 852 b 31 633 133 765 75 707 b -34 391 -12 560 -34 479 b 31 147 -34 302 -12 220 b 206 -27 75 75 133 16 b 449 -93 279 -71 360 -93 b 692 -27 538 -93 619 -71 b 867 147 765 16 823 75 b 932 391 910 220 932 302 z m 125 391 b 162 545 125 448 137 500 b 260 654 186 589 220 626 b 372 706 302 683 339 700 b 451 715 406 712 432 715 b 543 702 481 715 512 711 b 678 620 591 688 637 661 b 758 494 720 577 747 535 b 774 391 768 452 774 418 b 763 309 774 363 770 336 b 678 161 749 254 720 204 b 557 83 637 121 596 95 b 452 66 517 72 482 66 b 395 71 433 66 414 68 b 260 126 347 79 302 98 b 162 237 220 155 186 192 b 125 391 137 281 125 333 z "},"":{"ha":962,"x_min":0,"x_max":0,"o":"m 614 288 b 582 285 604 286 593 285 b 540 290 568 285 554 286 b 484 322 514 295 495 307 b 600 415 538 349 577 380 b 633 512 622 450 633 482 b 631 541 633 522 633 532 b 551 634 622 581 596 612 b 376 668 507 657 449 668 b 336 667 363 668 350 668 b 328 667 333 667 330 667 b 306 664 319 667 313 666 b 294 650 299 662 295 658 b 275 406 281 569 275 488 b 294 161 275 325 281 243 b 313 148 296 155 302 150 b 345 145 324 146 335 145 b 365 146 351 145 357 146 b 410 157 382 148 397 151 b 430 178 423 162 430 170 b 427 199 429 183 428 191 b 417 275 421 220 418 245 b 502 220 439 248 468 230 b 591 206 536 211 566 206 b 622 208 602 206 612 207 b 644 226 634 211 642 217 b 648 248 646 235 648 242 b 643 271 648 255 646 263 b 617 288 637 282 629 288 z m 410 385 b 429 583 410 448 416 513 l 433 583 b 513 557 473 583 499 574 b 527 515 522 545 527 531 b 524 492 527 508 526 500 b 482 424 517 467 503 444 b 410 385 462 403 437 390 z m 448 873 b 211 810 361 873 282 852 b 40 639 139 767 82 710 b -24 401 -3 568 -24 488 b 40 163 -24 314 -3 235 b 211 -7 82 92 139 35 b 448 -72 282 -50 361 -72 b 686 -7 536 -72 615 -50 b 857 163 758 35 815 92 b 921 401 900 235 921 314 b 857 639 921 488 900 568 b 686 810 815 710 758 767 b 448 873 615 852 536 873 z m 673 176 b 554 100 633 137 593 112 b 452 83 515 89 481 83 b 397 88 433 83 415 85 b 264 142 349 97 304 115 b 168 250 225 171 193 207 b 132 401 144 294 132 345 b 168 552 132 457 144 508 b 264 659 193 595 225 631 b 374 710 304 687 341 704 b 451 719 407 715 433 719 b 541 705 480 719 510 714 b 673 625 588 692 633 665 b 751 502 714 583 740 542 b 766 401 761 461 766 428 b 756 321 766 374 763 347 b 673 176 742 267 714 219 z "},"":{"ha":295,"x_min":0,"x_max":0,"o":"m -28 873 b -28 860 -28 869 -28 864 b 16 735 -28 810 -14 768 b 103 677 47 699 77 680 b 151 672 130 673 146 672 b 268 720 192 672 231 688 b 328 815 307 758 327 789 b 329 857 328 840 329 854 b 288 980 329 903 315 944 b 165 1046 258 1018 218 1040 l 154 1046 b 33 1000 107 1046 66 1031 b -28 873 -2 966 -23 924 z m 201 901 b 214 854 210 884 214 868 b 210 831 214 846 213 838 b 178 795 201 812 191 800 b 147 789 164 791 154 789 b 117 798 137 789 126 792 b 92 862 100 808 92 829 b 115 909 93 884 100 900 b 155 923 128 918 142 923 b 163 922 158 923 161 923 b 201 901 180 921 193 913 z "},"":{"ha":602,"x_min":0,"x_max":0,"o":"m 559 464 l 559 486 b 559 509 559 494 559 503 b 555 557 559 531 558 547 b 533 583 552 572 545 581 b 493 585 522 585 508 585 b 456 584 482 585 470 585 b 355 581 430 583 397 581 b 357 636 355 598 355 616 b 359 706 358 661 359 684 b 351 762 359 729 356 747 b 325 785 347 777 338 785 b 301 785 316 785 309 785 l 284 785 b 230 781 260 785 242 784 b 205 760 216 779 208 771 b 203 723 203 749 203 736 b 204 682 203 711 203 698 b 206 581 205 657 206 623 b 152 583 190 581 172 582 b 81 585 127 585 104 585 b 25 578 59 585 40 583 b 3 551 10 573 3 564 l 3 509 b 6 456 3 485 4 468 b 28 432 9 442 16 434 b 64 429 39 430 52 429 b 105 431 76 429 90 429 b 206 433 132 432 165 433 b 205 378 206 416 206 398 b 203 321 203 359 203 340 l 203 308 b 210 252 203 285 205 267 b 237 229 215 237 224 229 l 279 229 b 332 233 302 229 320 231 b 356 254 346 235 354 243 b 359 295 358 267 359 279 b 358 332 359 306 359 318 b 355 433 356 357 355 391 b 410 431 372 433 390 432 b 467 429 429 430 448 429 l 480 429 b 536 436 503 429 522 431 b 559 464 551 441 559 450 z m 539 22 b 541 43 539 27 540 34 b 542 89 542 57 542 73 b 535 134 542 106 540 121 b 508 153 530 146 522 153 l 14 153 b -7 143 5 153 -2 149 b -17 121 -14 137 -17 130 b -18 100 -17 116 -17 109 b -20 54 -19 86 -20 71 b -13 10 -20 37 -18 23 b 14 -9 -8 -3 1 -9 l 508 -9 b 530 0 517 -9 524 -6 b 539 22 536 6 539 14 z "},"":{"ha":418,"x_min":0,"x_max":0,"o":"m 214 1090 b 107 914 174 1027 138 969 b 41 796 75 859 54 820 b 34 769 37 787 34 778 b 43 740 34 759 37 749 b 80 708 55 723 67 713 b 110 701 94 703 103 701 b 139 711 121 701 130 704 b 378 960 228 789 308 871 b 385 980 382 966 385 972 b 375 1008 385 989 381 998 b 326 1062 363 1027 347 1045 b 271 1093 304 1078 286 1088 b 239 1100 256 1097 245 1100 b 214 1090 229 1100 220 1097 z "},"":{"ha":681,"x_min":0,"x_max":0,"o":"m 457 92 b 459 74 458 87 458 81 b 465 34 460 62 462 48 b 476 -6 467 19 471 6 b 524 -32 486 -22 501 -31 b 535 -32 528 -32 531 -32 b 613 -11 564 -31 589 -24 b 649 31 636 2 648 16 l 649 35 b 615 308 629 127 618 218 b 616 574 612 397 613 486 l 618 591 b 621 646 618 611 620 629 l 622 663 b 622 714 623 684 623 702 b 586 754 618 736 606 749 b 539 762 566 759 551 762 b 486 756 522 763 504 761 b 441 716 458 749 444 736 b 439 642 441 692 441 667 b 427 492 437 594 433 544 b 370 279 417 413 398 342 b 321 210 353 239 336 216 b 291 201 306 203 296 200 b 233 257 271 201 252 220 b 204 368 214 298 204 336 b 205 435 204 401 205 423 b 220 562 207 477 212 519 b 258 706 231 615 244 663 b 258 711 258 707 258 709 b 231 746 259 724 250 736 b 179 772 210 759 193 767 b 132 781 165 777 150 780 b 104 781 122 781 113 781 b 58 760 79 779 64 772 b -5 461 24 649 3 549 b -20 260 -14 374 -18 307 b -22 10 -24 177 -24 94 b 5 -357 -17 -120 -8 -242 b 38 -386 9 -372 20 -382 b 89 -393 56 -391 73 -393 b 127 -393 101 -394 114 -394 b 174 -374 136 -389 151 -383 b 212 -338 197 -365 210 -353 b 205 -257 212 -320 210 -294 b 184 54 196 -197 189 -94 b 288 22 218 34 252 24 b 326 24 300 22 313 22 b 457 92 374 31 418 54 z "},"":{"ha":702,"x_min":0,"x_max":0,"o":"m 315 -43 b 342 493 333 136 342 314 b 328 888 342 625 337 756 b 369 888 344 888 357 888 b 407 888 380 888 393 888 b 421 888 412 888 416 888 b 448 438 439 739 448 589 b 420 -18 448 286 439 134 b 420 -24 420 -20 420 -22 b 427 -45 420 -32 422 -39 b 448 -59 431 -53 439 -58 b 471 -62 455 -60 463 -61 b 516 -68 488 -65 503 -68 b 545 -70 529 -70 538 -71 b 574 -66 555 -70 565 -68 b 598 -37 588 -62 596 -52 b 628 452 618 125 628 289 b 604 894 628 600 620 747 l 757 892 l 759 892 b 792 920 772 893 783 902 b 810 969 802 937 808 954 b 812 1000 811 984 812 995 b 802 1050 812 1019 808 1035 b 756 1084 793 1070 778 1081 b 583 1087 718 1085 661 1086 b 370 1084 507 1087 435 1086 b 297 1082 346 1084 321 1083 b 102 1061 207 1078 142 1071 b -11 972 49 1042 11 1013 b -44 848 -33 931 -44 890 b -43 828 -44 841 -44 835 b 6 697 -40 779 -23 735 b 131 631 35 660 77 637 b 132 509 132 591 132 550 b 106 -31 132 329 123 149 l 106 -35 b 113 -58 106 -43 109 -51 b 136 -71 119 -65 127 -69 b 155 -73 141 -71 148 -71 b 208 -77 174 -75 192 -76 b 241 -78 223 -78 234 -79 b 283 -73 256 -78 271 -76 b 315 -43 302 -68 313 -58 z "},"":{"ha":344,"x_min":0,"x_max":0,"o":"m 109 -58 b 109 -51 109 -56 109 -54 b 110 -38 109 -47 110 -43 l 110 -31 b 106 -12 109 -24 108 -17 b 94 -3 104 -6 100 -3 b 82 -2 90 -3 86 -3 b 68 -1 77 -2 73 -1 b 52 -3 62 -1 57 -2 b 36 -17 42 -4 37 -9 b 35 -66 36 -36 35 -52 b 34 -94 35 -77 34 -85 b 39 -129 34 -111 36 -123 b 56 -136 41 -134 47 -136 b 80 -133 62 -136 71 -135 b 98 -131 87 -132 93 -131 b 113 -134 104 -131 110 -132 b 123 -144 119 -136 123 -140 b 122 -147 123 -145 123 -146 b 110 -158 121 -152 117 -156 b 93 -161 104 -160 98 -161 b 63 -157 85 -161 75 -159 b 59 -156 62 -156 60 -156 b 52 -157 56 -156 54 -157 b 45 -168 48 -160 46 -163 b 41 -178 44 -171 43 -174 b 35 -202 37 -189 35 -197 b 34 -212 34 -208 34 -210 b 45 -227 34 -219 37 -224 b 95 -233 63 -231 79 -233 b 146 -222 115 -233 132 -229 b 189 -177 171 -208 185 -193 b 195 -143 193 -161 195 -150 b 181 -96 195 -127 191 -111 b 109 -58 167 -75 143 -62 z "},"":{"ha":670,"x_min":0,"x_max":0,"o":"m 606 213 l 606 220 b 581 274 606 243 597 260 b 533 298 561 290 545 297 b 515 298 522 298 515 298 b 477 273 494 298 482 290 b 412 135 465 212 444 166 b 336 85 381 104 355 87 b 298 83 315 83 303 83 b 220 114 269 83 243 93 b 179 224 195 138 181 175 b 223 326 180 265 195 299 b 325 402 251 352 285 378 b 434 481 362 425 399 451 b 519 590 469 510 498 547 b 551 748 540 633 551 686 l 551 766 b 519 806 548 787 538 800 b 472 814 501 811 485 814 b 441 810 462 814 452 812 b 401 774 418 804 405 793 b 367 670 399 734 387 699 b 290 594 347 641 321 616 b 192 532 260 572 227 551 b 82 461 153 510 117 486 b -3 369 47 435 19 405 b -40 237 -26 333 -39 290 b 18 35 -40 154 -20 86 b 147 -66 57 -18 100 -51 b 270 -89 194 -81 235 -89 b 349 -80 296 -89 323 -86 b 514 15 412 -66 467 -34 b 606 213 562 63 592 130 z m 455 867 l 465 867 b 513 878 486 867 502 871 b 538 930 526 886 534 903 b 546 1050 543 956 546 996 b 519 1090 545 1068 536 1081 b 464 1102 503 1098 485 1102 l 461 1102 b 403 1088 439 1102 420 1097 b 377 1046 385 1079 377 1065 l 377 1031 b 376 1003 376 1021 376 1012 b 387 905 376 959 380 926 b 455 867 395 880 418 867 z "},"":{"ha":808,"x_min":0,"x_max":0,"o":"m 728 -37 b 673 39 704 -33 686 -7 b 647 256 661 85 652 157 b 646 629 642 353 642 478 b 665 1042 651 779 658 918 b 582 1120 654 1080 626 1106 b 444 1129 538 1133 492 1137 b 312 1083 395 1122 351 1107 b 168 892 256 1045 208 981 b 70 587 128 803 96 701 b 12 243 45 472 25 357 b -12 -60 -1 129 -9 28 b 12 -92 -11 -73 -3 -84 b 64 -108 26 -100 43 -106 b 127 -107 85 -111 106 -110 b 180 -87 148 -104 165 -97 b 202 -50 194 -78 201 -66 b 205 26 203 -30 203 -4 b 210 113 207 57 209 86 b 212 149 211 127 212 138 b 321 159 233 153 269 157 b 464 155 372 162 420 161 b 498 -8 466 84 477 30 b 572 -86 518 -47 543 -73 b 661 -104 602 -100 631 -106 b 735 -85 690 -102 715 -96 b 751 -58 747 -79 753 -70 b 728 -37 751 -47 743 -40 z m 460 283 b 221 283 380 293 300 293 b 295 671 241 448 265 577 b 387 874 324 766 355 834 b 473 939 418 915 447 937 b 472 887 473 923 473 906 b 463 697 471 869 467 806 b 460 283 457 589 456 451 z m 522 1165 b 545 1158 528 1160 536 1158 b 561 1160 550 1158 555 1158 b 595 1184 576 1166 588 1174 b 606 1211 602 1194 606 1204 b 600 1234 606 1219 604 1226 b 547 1328 590 1253 572 1284 b 460 1470 522 1372 493 1419 b 441 1478 456 1476 449 1478 b 423 1475 435 1478 429 1477 b 371 1447 406 1470 389 1461 b 334 1410 354 1434 342 1421 b 323 1382 327 1398 323 1389 b 329 1365 323 1376 326 1370 b 522 1165 386 1295 450 1227 z "},"":{"ha":808,"x_min":0,"x_max":0,"o":"m 728 -37 b 673 39 704 -33 686 -7 b 647 256 661 85 652 157 b 646 629 642 353 642 478 b 665 1042 651 779 658 918 b 582 1120 654 1080 626 1106 b 444 1129 538 1133 492 1137 b 312 1083 395 1122 351 1107 b 168 892 256 1045 208 981 b 70 587 128 803 96 701 b 12 243 45 472 25 357 b -12 -60 -1 129 -9 28 b 12 -92 -11 -73 -3 -84 b 64 -108 26 -100 43 -106 b 127 -107 85 -111 106 -110 b 180 -87 148 -104 165 -97 b 202 -50 194 -78 201 -66 b 205 26 203 -30 203 -4 b 210 113 207 57 209 86 b 212 149 211 127 212 138 b 321 159 233 153 269 157 b 464 155 372 162 420 161 b 498 -8 466 84 477 30 b 572 -86 518 -47 543 -73 b 661 -104 602 -100 631 -106 b 735 -85 690 -102 715 -96 b 751 -58 747 -79 753 -70 b 728 -37 751 -47 743 -40 z m 460 283 b 221 283 380 293 300 293 b 295 671 241 448 265 577 b 387 874 324 766 355 834 b 473 939 418 915 447 937 b 472 887 473 923 473 906 b 463 697 471 869 467 806 b 460 283 457 589 456 451 z m 546 1458 b 465 1326 515 1411 488 1367 b 415 1237 441 1284 425 1255 b 410 1216 412 1230 410 1223 b 417 1194 410 1208 412 1201 b 444 1170 425 1181 435 1173 b 467 1165 454 1166 462 1165 b 489 1172 475 1165 482 1167 b 669 1360 556 1231 616 1293 b 674 1375 673 1364 674 1370 b 667 1397 674 1382 672 1389 b 630 1437 659 1411 646 1425 b 589 1461 613 1449 600 1457 b 564 1466 577 1464 570 1466 b 546 1458 557 1466 551 1463 z "},"":{"ha":808,"x_min":0,"x_max":0,"o":"m 728 -37 b 673 39 704 -33 686 -7 b 647 256 661 85 652 157 b 646 629 642 353 642 478 b 665 1042 651 779 658 918 b 582 1120 654 1080 626 1106 b 444 1129 538 1133 492 1137 b 312 1083 395 1122 351 1107 b 168 892 256 1045 208 981 b 70 587 128 803 96 701 b 12 243 45 472 25 357 b -12 -60 -1 129 -9 28 b 12 -92 -11 -73 -3 -84 b 64 -108 26 -100 43 -106 b 127 -107 85 -111 106 -110 b 180 -87 148 -104 165 -97 b 202 -50 194 -78 201 -66 b 205 26 203 -30 203 -4 b 210 113 207 57 209 86 b 212 149 211 127 212 138 b 321 159 233 153 269 157 b 464 155 372 162 420 161 b 498 -8 466 84 477 30 b 572 -86 518 -47 543 -73 b 661 -104 602 -100 631 -106 b 735 -85 690 -102 715 -96 b 751 -58 747 -79 753 -70 b 728 -37 751 -47 743 -40 z m 460 283 b 221 283 380 293 300 293 b 295 671 241 448 265 577 b 387 874 324 766 355 834 b 473 939 418 915 447 937 b 472 887 473 923 473 906 b 463 697 471 869 467 806 b 460 283 457 589 456 451 z m 504 1407 l 376 1225 b 372 1211 373 1220 372 1216 b 372 1207 372 1210 372 1208 b 381 1192 373 1201 376 1196 b 427 1164 404 1177 418 1167 b 444 1160 434 1162 440 1160 b 458 1166 450 1160 454 1162 b 482 1200 465 1173 473 1184 b 513 1249 490 1214 500 1230 b 528 1221 517 1244 522 1234 b 551 1184 536 1208 543 1196 b 568 1160 557 1173 562 1165 b 581 1153 572 1156 577 1153 b 589 1155 583 1153 586 1154 b 616 1169 599 1160 608 1165 b 648 1187 633 1177 643 1183 b 654 1202 652 1192 654 1197 b 650 1217 654 1206 653 1211 b 619 1272 645 1228 635 1247 b 543 1405 601 1301 576 1346 b 530 1417 538 1413 534 1417 b 522 1417 525 1417 523 1417 b 504 1407 515 1417 509 1413 z "},"":{"ha":808,"x_min":0,"x_max":0,"o":"m 728 -37 b 673 39 704 -33 686 -7 b 647 256 661 85 652 157 b 646 629 642 353 642 478 b 665 1042 651 779 658 918 b 582 1120 654 1080 626 1106 b 444 1129 538 1133 492 1137 b 312 1083 395 1122 351 1107 b 168 892 256 1045 208 981 b 70 587 128 803 96 701 b 12 243 45 472 25 357 b -12 -60 -1 129 -9 28 b 12 -92 -11 -73 -3 -84 b 64 -108 26 -100 43 -106 b 127 -107 85 -111 106 -110 b 180 -87 148 -104 165 -97 b 202 -50 194 -78 201 -66 b 205 26 203 -30 203 -4 b 210 113 207 57 209 86 b 212 149 211 127 212 138 b 321 159 233 153 269 157 b 464 155 372 162 420 161 b 498 -8 466 84 477 30 b 572 -86 518 -47 543 -73 b 661 -104 602 -100 631 -106 b 735 -85 690 -102 715 -96 b 751 -58 747 -79 753 -70 b 728 -37 751 -47 743 -40 z m 460 283 b 221 283 380 293 300 293 b 295 671 241 448 265 577 b 387 874 324 766 355 834 b 473 939 418 915 447 937 b 472 887 473 923 473 906 b 463 697 471 869 467 806 b 460 283 457 589 456 451 z m 608 1345 b 574 1301 595 1320 583 1305 b 549 1295 564 1297 555 1295 b 527 1300 542 1295 534 1296 b 484 1326 513 1306 499 1315 b 437 1355 467 1340 451 1350 b 406 1363 424 1360 414 1363 b 366 1351 393 1363 380 1359 b 296 1261 344 1339 321 1309 b 290 1236 292 1253 290 1244 b 295 1213 290 1229 292 1221 b 316 1181 301 1196 308 1186 b 334 1174 324 1177 330 1174 b 355 1186 341 1174 348 1178 b 391 1221 370 1207 382 1219 b 414 1226 401 1225 408 1226 b 437 1220 422 1226 430 1224 b 477 1196 451 1214 464 1206 b 522 1169 494 1183 509 1173 b 551 1162 534 1164 544 1162 b 593 1177 564 1162 578 1167 b 669 1274 616 1191 642 1223 b 674 1295 673 1280 674 1288 b 668 1321 674 1303 672 1312 b 644 1352 661 1337 652 1348 b 627 1359 636 1357 631 1359 b 608 1345 620 1359 613 1354 z "},"":{"ha":808,"x_min":0,"x_max":0,"o":"m 728 -37 b 673 39 704 -33 686 -7 b 647 256 661 85 652 157 b 646 629 642 353 642 478 b 665 1042 651 779 658 918 b 582 1120 654 1080 626 1106 b 444 1129 538 1133 492 1137 b 312 1083 395 1122 351 1107 b 168 892 256 1045 208 981 b 70 587 128 803 96 701 b 12 243 45 472 25 357 b -12 -60 -1 129 -9 28 b 12 -92 -11 -73 -3 -84 b 64 -108 26 -100 43 -106 b 127 -107 85 -111 106 -110 b 180 -87 148 -104 165 -97 b 202 -50 194 -78 201 -66 b 205 26 203 -30 203 -4 b 210 113 207 57 209 86 b 212 149 211 127 212 138 b 321 159 233 153 269 157 b 464 155 372 162 420 161 b 498 -8 466 84 477 30 b 572 -86 518 -47 543 -73 b 661 -104 602 -100 631 -106 b 735 -85 690 -102 715 -96 b 751 -58 747 -79 753 -70 b 728 -37 751 -47 743 -40 z m 460 283 b 221 283 380 293 300 293 b 295 671 241 448 265 577 b 387 874 324 766 355 834 b 473 939 418 915 447 937 b 472 887 473 923 473 906 b 463 697 471 869 467 806 b 460 283 457 589 456 451 z m 459 1302 l 422 1302 b 377 1300 403 1302 387 1301 b 355 1286 364 1298 357 1293 b 353 1261 353 1279 353 1271 b 353 1238 353 1255 353 1246 b 355 1175 355 1221 355 1200 b 363 1160 355 1168 358 1164 b 382 1154 369 1156 375 1154 b 401 1154 387 1154 393 1154 b 437 1152 412 1153 425 1152 b 471 1157 450 1152 462 1154 b 486 1175 481 1160 486 1166 b 487 1205 486 1183 486 1194 b 489 1242 488 1217 489 1230 l 489 1249 b 483 1287 489 1264 487 1277 b 459 1302 479 1297 471 1302 z m 530 1175 b 538 1160 530 1168 533 1164 b 557 1154 544 1156 550 1154 b 576 1154 562 1154 568 1154 b 612 1152 587 1153 600 1152 b 646 1157 625 1152 637 1154 b 661 1175 656 1160 661 1166 b 662 1205 661 1183 661 1194 b 664 1242 663 1217 664 1230 l 664 1249 b 658 1287 664 1264 662 1277 b 634 1302 654 1297 646 1302 l 598 1302 b 553 1300 578 1302 562 1301 b 530 1286 539 1298 532 1293 b 528 1263 528 1279 528 1272 b 529 1238 528 1256 528 1247 b 530 1175 530 1221 530 1200 z "},"":{"ha":808,"x_min":0,"x_max":0,"o":"m 728 -37 b 673 39 704 -33 686 -7 b 647 256 661 85 652 157 b 646 629 642 353 642 478 b 665 1042 651 779 658 918 b 582 1120 654 1080 626 1106 b 444 1129 538 1133 492 1137 b 312 1083 395 1122 351 1107 b 168 892 256 1045 208 981 b 70 587 128 803 96 701 b 12 243 45 472 25 357 b -12 -60 -1 129 -9 28 b 12 -92 -11 -73 -3 -84 b 64 -108 26 -100 43 -106 b 127 -107 85 -111 106 -110 b 180 -87 148 -104 165 -97 b 202 -50 194 -78 201 -66 b 205 26 203 -30 203 -4 b 210 113 207 57 209 86 b 212 149 211 127 212 138 b 321 159 233 153 269 157 b 464 155 372 162 420 161 b 498 -8 466 84 477 30 b 572 -86 518 -47 543 -73 b 661 -104 602 -100 631 -106 b 735 -85 690 -102 715 -96 b 751 -58 747 -79 753 -70 b 728 -37 751 -47 743 -40 z m 460 283 b 221 283 380 293 300 293 b 295 671 241 448 265 577 b 387 874 324 766 355 834 b 473 939 418 915 447 937 b 472 887 473 923 473 906 b 463 697 471 869 467 806 b 460 283 457 589 456 451 z m 593 1183 b 637 1253 622 1211 637 1234 b 638 1284 638 1272 638 1282 b 608 1373 638 1317 628 1346 b 518 1421 587 1400 557 1416 l 511 1421 b 422 1387 477 1421 447 1410 b 378 1295 396 1363 381 1332 b 378 1286 378 1292 378 1289 b 410 1194 378 1249 389 1219 b 474 1152 433 1168 454 1154 b 509 1148 493 1149 505 1148 b 593 1183 538 1148 567 1160 z m 465 1286 b 481 1321 467 1303 472 1314 b 512 1331 492 1328 502 1331 b 517 1331 514 1331 515 1331 b 545 1315 530 1329 539 1324 b 555 1281 551 1303 555 1291 b 551 1264 555 1275 553 1270 b 528 1238 545 1251 537 1242 b 506 1233 518 1235 511 1233 b 484 1240 498 1233 490 1235 b 465 1286 472 1247 466 1263 z "},"":{"ha":970,"x_min":0,"x_max":0,"o":"m 558 1112 b 489 1109 536 1114 513 1112 b 351 1063 437 1102 391 1086 b 203 872 292 1025 243 961 b 106 566 163 783 130 681 b 53 223 82 452 64 337 b 34 -81 41 109 35 7 b 59 -113 35 -94 43 -104 b 115 -128 75 -121 93 -126 b 182 -127 138 -131 159 -130 b 237 -108 203 -123 222 -117 b 260 -70 252 -98 260 -85 b 262 6 260 -50 260 -24 b 265 93 262 37 264 66 b 267 128 266 106 266 118 b 271 129 268 128 270 129 b 281 128 275 128 278 128 l 532 128 b 572 -28 536 60 550 8 b 653 -106 594 -67 621 -93 b 747 -124 684 -121 715 -126 b 766 -122 753 -123 760 -123 l 949 -122 b 960 -113 954 -122 957 -119 b 965 -92 964 -107 965 -100 l 965 -71 b 966 -26 966 -58 966 -43 b 963 17 966 -10 965 4 b 949 35 961 29 956 35 l 751 35 b 734 128 744 62 739 93 l 852 128 b 877 137 861 128 869 131 b 887 159 884 143 887 150 b 888 179 887 163 888 170 b 891 224 890 193 891 208 b 883 267 891 240 888 254 b 852 286 878 279 867 286 l 722 286 b 719 433 720 332 719 381 b 721 678 719 516 720 598 b 722 894 722 760 723 832 b 720 955 722 917 721 937 l 969 955 b 988 964 977 955 983 958 b 996 985 993 970 996 977 b 996 1006 996 990 996 997 b 998 1051 998 1019 998 1034 b 992 1094 998 1067 996 1081 b 969 1112 988 1106 981 1112 z m 275 285 b 342 652 292 439 314 561 b 434 869 371 746 401 819 b 524 949 467 920 496 947 b 533 846 530 947 533 913 b 528 620 532 778 531 703 b 524 286 524 494 523 382 l 281 286 b 275 285 279 286 277 286 z "},"":{"ha":799,"x_min":0,"x_max":0,"o":"m 578 359 b 559 189 581 303 574 247 b 496 43 545 131 524 83 b 408 -14 470 5 440 -14 b 300 92 360 -8 325 27 b 257 330 276 156 261 235 b 269 616 252 424 256 519 b 330 865 282 712 302 795 b 431 993 357 935 391 978 b 525 943 467 1004 498 988 b 574 728 552 899 568 827 b 615 678 576 701 591 685 b 690 684 640 671 665 673 b 732 737 715 694 729 712 b 707 888 730 790 722 841 b 646 1015 693 936 673 978 b 550 1102 621 1052 588 1081 b 418 1134 511 1124 467 1134 b 245 1082 352 1134 294 1116 b 121 940 196 1046 155 999 b 43 739 87 880 61 814 b 9 509 24 665 14 589 b 37 198 4 400 14 296 b 156 -45 60 100 100 19 b 381 -150 213 -109 288 -144 b 543 -104 444 -151 498 -136 b 652 23 587 -72 624 -30 b 717 192 681 75 703 132 b 743 363 732 252 741 309 b 700 417 741 390 727 408 b 619 416 673 426 646 426 b 578 359 593 407 579 388 z m 475 -201 b 475 -194 475 -199 475 -197 b 476 -180 476 -189 476 -185 l 476 -172 b 472 -152 476 -165 475 -158 b 460 -143 470 -146 466 -143 b 447 -142 456 -142 452 -142 b 432 -141 441 -142 437 -141 b 414 -142 426 -141 420 -142 b 398 -158 404 -144 399 -149 b 397 -210 398 -178 397 -195 b 396 -239 396 -221 396 -231 b 401 -277 396 -258 397 -271 b 419 -285 404 -282 410 -285 b 444 -281 426 -285 435 -283 b 464 -279 452 -279 458 -279 b 480 -281 471 -279 476 -279 b 490 -293 487 -285 490 -288 b 490 -296 490 -294 490 -295 b 477 -307 488 -302 484 -305 b 458 -311 470 -309 464 -311 b 427 -306 450 -311 439 -309 b 422 -305 425 -306 424 -305 b 414 -307 420 -305 417 -306 b 408 -317 411 -309 408 -313 b 404 -330 406 -321 405 -325 b 397 -355 399 -340 397 -349 b 395 -364 396 -360 395 -363 b 407 -380 395 -373 399 -378 b 460 -388 427 -385 444 -388 b 515 -375 481 -388 500 -384 b 561 -328 541 -361 557 -345 b 567 -292 565 -311 567 -299 b 552 -242 567 -274 562 -258 b 475 -201 537 -219 512 -206 z "},"":{"ha":697,"x_min":0,"x_max":0,"o":"m 715 319 b 579 77 680 217 635 137 b 412 -15 523 18 467 -13 b 281 45 357 -17 313 3 b 230 227 249 87 232 148 b 261 392 230 281 241 337 b 354 532 281 447 313 494 b 510 598 395 570 447 591 b 550 643 530 602 544 616 b 550 720 557 669 556 694 b 514 759 543 745 532 758 b 376 779 452 755 406 762 b 322 845 347 795 328 818 b 323 930 315 873 316 901 b 393 1033 337 980 360 1014 b 486 1035 425 1052 456 1053 b 539 916 516 1017 534 977 b 580 869 542 890 556 875 b 652 876 604 863 628 866 b 688 924 675 886 687 903 b 631 1067 686 983 667 1031 b 500 1139 597 1102 553 1126 b 340 1141 448 1152 394 1152 b 196 1071 286 1130 237 1106 b 113 926 154 1035 127 987 b 115 824 107 893 108 859 b 164 730 123 789 139 757 b 267 673 189 702 223 683 b 96 550 196 642 139 601 b 5 383 54 499 23 444 b -14 201 -12 323 -18 262 b 73 -21 -7 109 23 35 b 257 -134 124 -77 185 -115 b 470 -135 328 -153 399 -153 b 665 1 541 -117 606 -71 b 798 294 724 73 768 171 b 766 338 802 317 791 332 b 715 319 740 345 723 338 z m 490 1184 b 513 1177 497 1179 505 1177 b 530 1179 519 1177 524 1177 b 564 1203 545 1185 557 1193 b 574 1230 570 1213 574 1223 b 568 1253 574 1238 572 1245 b 516 1347 559 1272 541 1303 b 429 1489 490 1391 462 1438 b 410 1497 425 1495 418 1497 b 392 1494 404 1497 398 1496 b 340 1466 375 1489 357 1480 b 303 1429 323 1453 310 1440 b 292 1401 296 1417 292 1408 b 298 1384 292 1395 294 1389 b 490 1184 354 1314 418 1246 z "},"":{"ha":697,"x_min":0,"x_max":0,"o":"m 715 319 b 579 77 680 217 635 137 b 412 -15 523 18 467 -13 b 281 45 357 -17 313 3 b 230 227 249 87 232 148 b 261 392 230 281 241 337 b 354 532 281 447 313 494 b 510 598 395 570 447 591 b 550 643 530 602 544 616 b 550 720 557 669 556 694 b 514 759 543 745 532 758 b 376 779 452 755 406 762 b 322 845 347 795 328 818 b 323 930 315 873 316 901 b 393 1033 337 980 360 1014 b 486 1035 425 1052 456 1053 b 539 916 516 1017 534 977 b 580 869 542 890 556 875 b 652 876 604 863 628 866 b 688 924 675 886 687 903 b 631 1067 686 983 667 1031 b 500 1139 597 1102 553 1126 b 340 1141 448 1152 394 1152 b 196 1071 286 1130 237 1106 b 113 926 154 1035 127 987 b 115 824 107 893 108 859 b 164 730 123 789 139 757 b 267 673 189 702 223 683 b 96 550 196 642 139 601 b 5 383 54 499 23 444 b -14 201 -12 323 -18 262 b 73 -21 -7 109 23 35 b 257 -134 124 -77 185 -115 b 470 -135 328 -153 399 -153 b 665 1 541 -117 606 -71 b 798 294 724 73 768 171 b 766 338 802 317 791 332 b 715 319 740 345 723 338 z m 520 1501 b 439 1369 490 1454 463 1410 b 389 1280 415 1326 399 1297 b 384 1259 386 1272 384 1265 b 391 1237 384 1251 387 1244 b 418 1213 399 1224 409 1216 b 441 1208 429 1209 436 1208 b 463 1215 449 1208 456 1210 b 644 1402 530 1274 591 1336 b 648 1418 647 1407 648 1413 b 642 1440 648 1425 646 1432 b 604 1480 633 1454 621 1468 b 563 1503 587 1492 574 1500 b 538 1509 551 1507 544 1509 b 520 1501 531 1509 525 1506 z "},"":{"ha":697,"x_min":0,"x_max":0,"o":"m 715 319 b 579 77 680 217 635 137 b 412 -15 523 18 467 -13 b 281 45 357 -17 313 3 b 230 227 249 87 232 148 b 261 392 230 281 241 337 b 354 532 281 447 313 494 b 510 598 395 570 447 591 b 550 643 530 602 544 616 b 550 720 557 669 556 694 b 514 759 543 745 532 758 b 376 779 452 755 406 762 b 322 845 347 795 328 818 b 323 930 315 873 316 901 b 393 1033 337 980 360 1014 b 486 1035 425 1052 456 1053 b 539 916 516 1017 534 977 b 580 869 542 890 556 875 b 652 876 604 863 628 866 b 688 924 675 886 687 903 b 631 1067 686 983 667 1031 b 500 1139 597 1102 553 1126 b 340 1141 448 1152 394 1152 b 196 1071 286 1130 237 1106 b 113 926 154 1035 127 987 b 115 824 107 893 108 859 b 164 730 123 789 139 757 b 267 673 189 702 223 683 b 96 550 196 642 139 601 b 5 383 54 499 23 444 b -14 201 -12 323 -18 262 b 73 -21 -7 109 23 35 b 257 -134 124 -77 185 -115 b 470 -135 328 -153 399 -153 b 665 1 541 -117 606 -71 b 798 294 724 73 768 171 b 766 338 802 317 791 332 b 715 319 740 345 723 338 z m 465 1438 l 337 1256 b 333 1242 334 1251 333 1247 b 333 1238 333 1241 333 1240 b 342 1223 334 1232 338 1227 b 388 1196 365 1208 380 1198 b 405 1192 395 1193 401 1192 b 420 1198 411 1192 416 1194 b 444 1232 427 1204 435 1215 b 475 1280 451 1245 461 1261 b 490 1253 477 1275 483 1265 b 512 1215 497 1240 505 1227 b 528 1192 518 1204 524 1196 b 542 1184 534 1187 538 1184 b 550 1186 545 1184 547 1185 b 577 1200 560 1192 569 1196 b 609 1219 594 1208 604 1214 b 616 1233 613 1223 616 1228 b 612 1248 616 1237 614 1242 b 581 1303 606 1259 596 1278 b 505 1436 562 1333 536 1377 b 491 1448 500 1444 495 1448 b 484 1448 486 1448 484 1448 b 465 1438 476 1448 470 1444 z "},"":{"ha":697,"x_min":0,"x_max":0,"o":"m 715 319 b 579 77 680 217 635 137 b 412 -15 523 18 467 -13 b 281 45 357 -17 313 3 b 230 227 249 87 232 148 b 261 392 230 281 241 337 b 354 532 281 447 313 494 b 510 598 395 570 447 591 b 550 643 530 602 544 616 b 550 720 557 669 556 694 b 514 759 543 745 532 758 b 376 779 452 755 406 762 b 322 845 347 795 328 818 b 323 930 315 873 316 901 b 393 1033 337 980 360 1014 b 486 1035 425 1052 456 1053 b 539 916 516 1017 534 977 b 580 869 542 890 556 875 b 652 876 604 863 628 866 b 688 924 675 886 687 903 b 631 1067 686 983 667 1031 b 500 1139 597 1102 553 1126 b 340 1141 448 1152 394 1152 b 196 1071 286 1130 237 1106 b 113 926 154 1035 127 987 b 115 824 107 893 108 859 b 164 730 123 789 139 757 b 267 673 189 702 223 683 b 96 550 196 642 139 601 b 5 383 54 499 23 444 b -14 201 -12 323 -18 262 b 73 -21 -7 109 23 35 b 257 -134 124 -77 185 -115 b 470 -135 328 -153 399 -153 b 665 1 541 -117 606 -71 b 798 294 724 73 768 171 b 766 338 802 317 791 332 b 715 319 740 345 723 338 z m 436 1356 l 399 1356 b 354 1354 379 1356 364 1356 b 332 1340 341 1352 334 1348 b 330 1316 330 1333 330 1325 b 330 1292 330 1309 330 1301 b 332 1229 332 1276 332 1255 b 340 1214 332 1223 335 1218 b 359 1208 346 1210 352 1208 b 378 1208 364 1208 370 1208 b 414 1206 389 1207 401 1206 b 448 1211 427 1206 439 1208 b 463 1229 458 1214 463 1220 b 464 1259 463 1238 463 1248 b 466 1297 465 1272 466 1284 l 466 1303 b 460 1341 466 1318 464 1331 b 436 1356 456 1352 448 1356 z m 507 1229 b 515 1214 507 1223 510 1218 b 534 1208 521 1210 527 1208 b 553 1208 539 1208 545 1208 b 589 1206 564 1207 576 1206 b 623 1211 602 1206 614 1208 b 637 1229 633 1214 637 1220 b 639 1259 637 1238 638 1248 b 641 1297 640 1272 641 1284 l 641 1303 b 635 1341 641 1318 639 1331 b 611 1356 630 1352 623 1356 l 575 1356 b 530 1354 555 1356 539 1356 b 507 1341 516 1352 509 1348 b 505 1318 505 1333 505 1326 b 506 1292 505 1310 505 1301 b 507 1229 507 1276 507 1255 z "},"":{"ha":394,"x_min":0,"x_max":0,"o":"m 335 -79 b 237 32 290 -67 257 -31 b 201 262 216 94 205 171 b 208 546 199 353 201 448 b 238 860 216 644 226 749 b 268 1097 250 971 260 1050 b 245 1156 272 1122 264 1141 b 170 1185 224 1171 199 1181 b 86 1179 140 1190 112 1187 b 38 1132 60 1171 45 1155 b 14 908 32 1099 24 1024 b -7 564 5 791 -3 677 b -4 237 -12 451 -11 342 b 43 -16 2 133 18 49 b 151 -142 68 -75 104 -118 b 328 -142 199 -168 258 -167 b 356 -109 345 -134 353 -123 b 335 -79 359 -94 351 -84 z m 298 1166 b 321 1159 304 1162 313 1159 b 338 1162 326 1159 332 1160 b 372 1185 353 1167 365 1175 b 382 1213 378 1196 382 1205 b 376 1236 382 1220 380 1227 b 323 1329 366 1254 349 1285 b 237 1472 298 1373 270 1421 b 217 1480 233 1477 226 1480 b 199 1476 212 1480 206 1478 b 148 1449 182 1472 165 1462 b 111 1411 130 1436 118 1423 b 100 1383 104 1400 100 1390 b 106 1367 100 1377 102 1371 b 298 1166 162 1296 226 1229 z "},"":{"ha":394,"x_min":0,"x_max":0,"o":"m 335 -79 b 237 32 290 -67 257 -31 b 201 262 216 94 205 171 b 208 546 199 353 201 448 b 238 860 216 644 226 749 b 268 1097 250 971 260 1050 b 245 1156 272 1122 264 1141 b 170 1185 224 1171 199 1181 b 86 1179 140 1190 112 1187 b 38 1132 60 1171 45 1155 b 14 908 32 1099 24 1024 b -7 564 5 791 -3 677 b -4 237 -12 451 -11 342 b 43 -16 2 133 18 49 b 151 -142 68 -75 104 -118 b 328 -142 199 -168 258 -167 b 356 -109 345 -134 353 -123 b 335 -79 359 -94 351 -84 z m 281 1444 b 200 1312 251 1398 224 1354 b 150 1223 176 1270 159 1241 b 145 1202 146 1216 145 1209 b 152 1181 145 1195 147 1187 b 180 1156 161 1168 170 1160 b 202 1152 190 1153 197 1152 b 224 1158 210 1152 218 1154 b 404 1346 292 1217 351 1280 b 410 1362 408 1351 410 1356 b 402 1383 410 1369 407 1375 b 365 1423 394 1398 381 1411 b 323 1447 349 1436 335 1444 b 300 1453 313 1451 304 1453 b 281 1444 292 1453 286 1450 z "},"":{"ha":394,"x_min":0,"x_max":0,"o":"m 335 -79 b 237 32 290 -67 257 -31 b 201 262 216 94 205 171 b 208 546 199 353 201 448 b 238 860 216 644 226 749 b 268 1097 250 971 260 1050 b 245 1156 272 1122 264 1141 b 170 1185 224 1171 199 1181 b 86 1179 140 1190 112 1187 b 38 1132 60 1171 45 1155 b 14 908 32 1099 24 1024 b -7 564 5 791 -3 677 b -4 237 -12 451 -11 342 b 43 -16 2 133 18 49 b 151 -142 68 -75 104 -118 b 328 -142 199 -168 258 -167 b 356 -109 345 -134 353 -123 b 335 -79 359 -94 351 -84 z m 240 1423 l 113 1240 b 108 1227 109 1236 108 1232 b 109 1223 108 1225 109 1224 b 118 1208 110 1217 113 1212 b 163 1180 140 1192 155 1183 b 180 1176 171 1177 176 1176 b 195 1182 186 1176 191 1178 b 218 1216 202 1189 210 1200 b 250 1265 227 1230 237 1246 b 265 1237 253 1259 258 1250 b 287 1200 272 1224 279 1212 b 304 1176 294 1188 299 1181 b 317 1168 309 1171 313 1168 b 326 1171 320 1168 323 1169 b 353 1185 336 1176 345 1181 b 384 1203 369 1192 380 1198 b 391 1217 389 1208 391 1213 b 387 1232 391 1221 389 1226 b 356 1288 382 1244 372 1263 b 279 1421 338 1317 312 1362 b 266 1432 275 1428 270 1432 b 258 1432 262 1432 259 1432 b 240 1423 252 1432 245 1429 z "},"":{"ha":394,"x_min":0,"x_max":0,"o":"m 335 -79 b 237 32 290 -67 257 -31 b 201 262 216 94 205 171 b 208 546 199 353 201 448 b 238 860 216 644 226 749 b 268 1097 250 971 260 1050 b 245 1156 272 1122 264 1141 b 170 1185 224 1171 199 1181 b 86 1179 140 1190 112 1187 b 38 1132 60 1171 45 1155 b 14 908 32 1099 24 1024 b -7 564 5 791 -3 677 b -4 237 -12 451 -11 342 b 43 -16 2 133 18 49 b 151 -142 68 -75 104 -118 b 328 -142 199 -168 258 -167 b 356 -109 345 -134 353 -123 b 335 -79 359 -94 351 -84 z m 214 1309 l 178 1309 b 133 1307 158 1309 143 1308 b 111 1293 120 1305 113 1300 b 108 1268 109 1286 108 1278 b 109 1244 108 1261 109 1253 b 111 1181 111 1228 111 1207 b 119 1166 111 1175 114 1171 b 138 1161 125 1162 131 1161 b 156 1160 143 1161 149 1160 b 193 1159 168 1160 180 1159 b 227 1164 206 1159 217 1160 b 241 1181 237 1166 241 1173 b 243 1212 241 1190 242 1200 b 245 1249 244 1224 245 1237 l 244 1256 b 238 1294 244 1271 242 1284 b 214 1309 234 1304 226 1309 z m 286 1181 b 294 1166 286 1175 289 1171 b 313 1161 299 1162 306 1161 b 331 1160 318 1161 323 1160 b 368 1159 342 1160 355 1159 b 401 1164 381 1159 392 1160 b 416 1181 412 1166 416 1173 b 418 1212 416 1190 417 1200 b 419 1249 419 1224 419 1237 l 419 1256 b 413 1294 419 1271 417 1284 b 389 1309 409 1304 401 1309 l 353 1309 b 308 1307 333 1309 318 1308 b 286 1293 295 1305 288 1300 b 283 1270 284 1286 283 1278 b 284 1244 283 1263 283 1254 b 286 1181 286 1228 286 1207 z "},"":{"ha":916,"x_min":0,"x_max":0,"o":"m 167 1123 b 119 1103 150 1120 134 1113 b 88 1063 103 1093 94 1080 b 43 510 52 899 37 714 b 123 -39 50 306 76 123 b 176 -119 136 -82 153 -109 b 269 -125 198 -129 229 -132 b 603 14 400 -107 511 -60 b 810 281 694 87 763 177 b 882 603 858 387 882 493 b 806 901 882 712 857 812 b 571 1100 755 990 676 1057 b 167 1123 465 1143 330 1151 z m 364 23 b 319 527 336 172 321 340 b 349 1032 318 714 328 882 b 562 950 440 1036 511 1008 b 657 726 612 892 644 818 b 648 442 671 634 668 540 b 547 180 629 344 595 257 b 364 23 498 104 437 52 z m 438 581 l -134 581 b -153 572 -141 581 -147 578 b -161 554 -158 568 -161 561 b -161 536 -161 549 -161 543 b -163 499 -163 524 -163 513 b -157 465 -163 486 -161 475 b -134 451 -153 456 -145 451 l 438 451 b 457 459 446 451 452 454 b 465 478 462 464 465 471 b 466 496 465 483 465 488 b 468 532 467 507 468 519 b 462 566 468 545 466 557 b 438 581 458 576 450 581 z "},"":{"ha":916,"x_min":0,"x_max":0,"o":"m 816 -33 b 751 71 784 -13 762 22 b 736 244 740 119 734 177 b 745 458 736 311 739 383 b 753 743 751 556 755 651 b 714 983 753 836 740 916 b 576 1116 689 1050 643 1095 b 433 1115 527 1130 479 1130 b 309 1021 386 1100 345 1069 b 231 823 273 974 247 908 b 237 1017 231 892 233 957 b 205 1099 237 1053 227 1080 b 129 1131 184 1119 158 1129 b 51 1106 100 1132 74 1124 b 13 1021 28 1088 16 1060 b 8 475 6 845 4 663 b 26 -39 12 287 18 116 b 64 -96 29 -64 42 -84 b 140 -113 86 -109 111 -114 b 216 -92 168 -113 193 -105 b 254 -34 238 -79 250 -59 b 277 562 246 211 254 410 b 369 895 301 715 332 826 b 477 989 406 964 442 995 b 534 920 506 983 526 960 b 544 766 544 880 547 829 b 530 561 541 704 536 635 b 513 334 522 486 517 410 b 518 123 509 258 511 188 b 570 -37 526 58 543 5 b 690 -111 596 -79 637 -104 b 775 -104 720 -114 748 -112 b 832 -73 803 -97 822 -87 b 816 -33 843 -60 838 -47 z m 594 1406 b 559 1361 581 1380 570 1365 b 536 1355 550 1357 542 1355 b 513 1360 528 1355 521 1356 b 471 1386 500 1367 486 1375 b 424 1415 453 1400 437 1410 b 392 1423 410 1421 399 1423 b 352 1411 379 1423 366 1419 b 282 1322 330 1399 307 1369 b 277 1297 279 1314 277 1305 b 281 1274 277 1289 278 1281 b 302 1242 287 1257 294 1246 b 320 1234 310 1237 316 1234 b 341 1246 328 1234 334 1238 b 378 1282 356 1267 368 1279 b 399 1286 387 1285 395 1286 b 424 1280 408 1286 416 1284 b 463 1256 437 1274 450 1266 b 508 1230 480 1243 495 1234 b 537 1223 521 1225 530 1223 b 580 1237 551 1223 565 1227 b 656 1334 603 1251 628 1284 b 661 1356 659 1341 661 1348 b 654 1381 661 1364 659 1373 b 631 1413 647 1398 639 1409 b 613 1419 623 1417 617 1419 b 594 1406 606 1419 600 1415 z "},"":{"ha":853,"x_min":0,"x_max":0,"o":"m 431 1147 b 190 1052 334 1147 254 1115 b 48 806 126 988 79 907 b 4 488 18 706 3 600 b 55 174 5 376 22 271 b 197 -61 87 75 135 -3 b 430 -138 260 -119 338 -144 b 642 -42 514 -136 585 -104 b 772 195 700 19 743 98 b 818 503 802 292 817 394 b 777 811 819 611 805 714 b 649 1050 749 908 707 987 b 431 1147 591 1112 519 1144 z m 436 4 b 324 111 390 12 353 47 b 266 347 295 176 276 254 b 266 627 256 440 256 534 b 330 868 277 722 298 802 b 462 985 362 935 406 974 b 553 942 498 985 528 970 b 614 827 579 913 599 876 b 646 667 629 780 640 726 b 650 484 652 608 653 547 b 629 302 648 421 641 361 b 586 146 618 243 604 192 b 520 38 567 100 545 64 b 436 4 495 13 467 1 z m 500 1167 b 524 1160 507 1162 515 1160 b 541 1162 529 1160 534 1160 b 574 1186 556 1168 568 1176 b 585 1213 581 1196 585 1206 b 579 1236 585 1221 583 1228 b 526 1330 569 1255 552 1286 b 440 1472 501 1374 473 1421 b 420 1480 435 1478 429 1480 b 402 1477 415 1480 409 1479 b 351 1449 385 1472 368 1463 b 314 1412 333 1436 321 1423 b 303 1384 307 1400 303 1391 b 309 1367 303 1378 304 1372 b 500 1167 365 1297 429 1230 z "},"":{"ha":853,"x_min":0,"x_max":0,"o":"m 431 1147 b 190 1052 334 1147 254 1115 b 48 806 126 988 79 907 b 4 488 18 706 3 600 b 55 174 5 376 22 271 b 197 -61 87 75 135 -3 b 430 -138 260 -119 338 -144 b 642 -42 514 -136 585 -104 b 772 195 700 19 743 98 b 818 503 802 292 817 394 b 777 811 819 611 805 714 b 649 1050 749 908 707 987 b 431 1147 591 1112 519 1144 z m 436 4 b 324 111 390 12 353 47 b 266 347 295 176 276 254 b 266 627 256 440 256 534 b 330 868 277 722 298 802 b 462 985 362 935 406 974 b 553 942 498 985 528 970 b 614 827 579 913 599 876 b 646 667 629 780 640 726 b 650 484 652 608 653 547 b 629 302 648 421 641 361 b 586 146 618 243 604 192 b 520 38 567 100 545 64 b 436 4 495 13 467 1 z m 451 1441 b 370 1309 421 1394 394 1350 b 320 1220 347 1267 330 1238 b 315 1199 317 1213 315 1206 b 322 1177 315 1192 317 1184 b 350 1153 331 1164 340 1156 b 372 1148 360 1149 368 1148 b 395 1155 380 1148 388 1150 b 574 1343 462 1214 522 1276 b 580 1358 578 1348 580 1353 b 572 1380 580 1365 577 1372 b 535 1420 564 1394 551 1408 b 494 1444 519 1432 505 1440 b 470 1449 483 1447 475 1449 b 451 1441 462 1449 456 1447 z "},"":{"ha":853,"x_min":0,"x_max":0,"o":"m 431 1147 b 190 1052 334 1147 254 1115 b 48 806 126 988 79 907 b 4 488 18 706 3 600 b 55 174 5 376 22 271 b 197 -61 87 75 135 -3 b 430 -138 260 -119 338 -144 b 642 -42 514 -136 585 -104 b 772 195 700 19 743 98 b 818 503 802 292 817 394 b 777 811 819 611 805 714 b 649 1050 749 908 707 987 b 431 1147 591 1112 519 1144 z m 436 4 b 324 111 390 12 353 47 b 266 347 295 176 276 254 b 266 627 256 440 256 534 b 330 868 277 722 298 802 b 462 985 362 935 406 974 b 553 942 498 985 528 970 b 614 827 579 913 599 876 b 646 667 629 780 640 726 b 650 484 652 608 653 547 b 629 302 648 421 641 361 b 586 146 618 243 604 192 b 520 38 567 100 545 64 b 436 4 495 13 467 1 z m 452 1396 l 325 1214 b 320 1200 321 1209 320 1205 b 321 1196 320 1199 321 1198 b 330 1181 322 1190 325 1185 b 375 1154 353 1166 368 1156 b 392 1149 383 1151 389 1149 b 408 1156 398 1149 404 1152 b 431 1190 414 1162 422 1173 b 463 1238 439 1203 449 1219 b 477 1211 465 1233 471 1223 b 499 1173 484 1198 492 1185 b 516 1149 506 1162 511 1154 b 530 1142 521 1145 526 1142 b 538 1144 532 1142 535 1143 b 565 1158 548 1149 557 1154 b 596 1177 581 1166 592 1172 b 603 1191 601 1181 603 1186 b 600 1206 603 1195 602 1200 b 568 1261 594 1217 584 1236 b 492 1394 550 1291 524 1335 b 478 1406 487 1402 482 1406 b 471 1406 474 1406 471 1406 b 452 1396 464 1406 457 1402 z "},"":{"ha":853,"x_min":0,"x_max":0,"o":"m 431 1147 b 190 1052 334 1147 254 1115 b 48 806 126 988 79 907 b 4 488 18 706 3 600 b 55 174 5 376 22 271 b 197 -61 87 75 135 -3 b 430 -138 260 -119 338 -144 b 642 -42 514 -136 585 -104 b 772 195 700 19 743 98 b 818 503 802 292 817 394 b 777 811 819 611 805 714 b 649 1050 749 908 707 987 b 431 1147 591 1112 519 1144 z m 436 4 b 324 111 390 12 353 47 b 266 347 295 176 276 254 b 266 627 256 440 256 534 b 330 868 277 722 298 802 b 462 985 362 935 406 974 b 553 942 498 985 528 970 b 614 827 579 913 599 876 b 646 667 629 780 640 726 b 650 484 652 608 653 547 b 629 302 648 421 641 361 b 586 146 618 243 604 192 b 520 38 567 100 545 64 b 436 4 495 13 467 1 z m 559 1325 b 524 1280 545 1299 534 1284 b 500 1274 515 1276 507 1274 b 478 1280 493 1274 486 1276 b 435 1305 465 1286 450 1295 b 389 1335 418 1320 402 1329 b 357 1343 375 1340 364 1343 b 317 1331 344 1343 330 1339 b 247 1241 295 1318 271 1289 b 241 1216 243 1233 241 1224 b 245 1193 241 1208 243 1200 b 267 1161 252 1176 259 1166 b 285 1154 275 1156 281 1154 b 306 1166 292 1154 299 1158 b 342 1201 321 1187 333 1198 b 364 1206 352 1204 359 1206 b 389 1200 372 1206 380 1204 b 428 1175 401 1194 415 1185 b 473 1149 445 1162 460 1153 b 502 1142 485 1144 495 1142 b 545 1156 515 1142 530 1147 b 621 1253 568 1171 593 1203 b 625 1275 623 1260 625 1267 b 619 1301 625 1283 623 1292 b 595 1332 611 1317 604 1328 b 578 1339 587 1337 581 1339 b 559 1325 570 1339 564 1334 z "},"":{"ha":853,"x_min":0,"x_max":0,"o":"m 431 1147 b 190 1052 334 1147 254 1115 b 48 806 126 988 79 907 b 4 488 18 706 3 600 b 55 174 5 376 22 271 b 197 -61 87 75 135 -3 b 430 -138 260 -119 338 -144 b 642 -42 514 -136 585 -104 b 772 195 700 19 743 98 b 818 503 802 292 817 394 b 777 811 819 611 805 714 b 649 1050 749 908 707 987 b 431 1147 591 1112 519 1144 z m 436 4 b 324 111 390 12 353 47 b 266 347 295 176 276 254 b 266 627 256 440 256 534 b 330 868 277 722 298 802 b 462 985 362 935 406 974 b 553 942 498 985 528 970 b 614 827 579 913 599 876 b 646 667 629 780 640 726 b 650 484 652 608 653 547 b 629 302 648 421 641 361 b 586 146 618 243 604 192 b 520 38 567 100 545 64 b 436 4 495 13 467 1 z m 403 1295 l 367 1295 b 321 1293 347 1295 332 1295 b 299 1279 309 1291 301 1286 b 296 1255 298 1272 296 1264 b 298 1231 296 1248 297 1240 b 300 1168 299 1215 300 1194 b 308 1153 300 1162 302 1157 b 327 1147 313 1149 319 1147 b 345 1147 332 1147 337 1147 b 382 1145 356 1146 368 1145 b 416 1150 395 1145 406 1147 b 430 1168 425 1153 430 1159 b 431 1198 430 1177 431 1187 b 433 1236 433 1211 433 1223 l 433 1242 b 427 1280 433 1257 431 1270 b 403 1295 422 1291 414 1295 z m 475 1168 b 483 1153 475 1162 477 1157 b 502 1147 488 1149 494 1147 b 519 1147 506 1147 512 1147 b 557 1145 531 1146 543 1145 b 590 1150 570 1145 581 1147 b 605 1168 600 1153 605 1159 b 606 1198 605 1177 606 1187 b 608 1236 608 1211 608 1223 l 608 1242 b 602 1280 608 1257 606 1270 b 578 1295 597 1291 589 1295 l 542 1295 b 496 1293 522 1295 507 1295 b 474 1280 484 1291 476 1286 b 471 1257 473 1272 471 1265 b 473 1231 471 1249 472 1240 b 475 1168 474 1215 475 1194 z "},"":{"ha":553,"x_min":0,"x_max":0,"o":"m 356 369 b 396 406 368 380 381 393 b 447 454 414 422 431 437 b 481 498 463 469 474 484 b 478 533 488 512 488 524 l 450 562 b 410 597 433 578 419 591 b 377 600 397 605 387 606 b 349 576 368 593 359 585 b 321 546 341 568 332 557 b 252 473 304 527 281 503 b 215 513 240 485 228 498 b 168 564 199 531 183 548 b 123 598 151 580 136 591 b 88 595 109 606 97 604 l 58 566 b 24 526 42 549 31 536 b 22 494 16 515 15 504 b 46 466 28 485 37 475 b 75 439 54 458 64 449 b 147 369 94 422 119 398 b 108 332 136 357 123 345 b 67 294 94 319 80 307 l 58 284 b 23 240 41 269 30 254 b 26 205 16 226 16 214 l 55 176 b 94 141 72 159 85 147 b 127 140 106 134 117 133 b 157 165 137 146 146 155 b 182 192 165 172 173 182 b 252 264 199 212 222 235 b 289 225 263 253 275 239 b 328 184 302 210 314 197 l 337 174 b 381 140 353 159 368 147 b 416 143 395 133 407 134 l 432 159 b 449 175 438 165 444 170 b 480 212 464 190 474 202 b 481 244 488 224 488 235 b 456 275 475 254 466 264 b 429 300 448 282 439 290 b 356 369 410 316 385 339 z "},"":{"ha":885,"x_min":0,"x_max":0,"o":"m 499 944 l 302 269 b 298 307 300 281 299 294 b 298 587 288 400 288 493 b 362 827 309 681 330 761 b 494 944 394 894 438 932 z m 638 810 b 646 787 641 803 644 795 b 678 627 662 739 672 686 b 682 444 684 568 685 507 b 662 262 680 380 673 320 b 618 105 650 203 636 151 b 553 -2 600 59 578 23 b 468 -37 528 -28 499 -39 b 401 -1 444 -33 421 -21 z m 202 -74 l 172 -180 b 171 -189 171 -183 171 -186 b 187 -224 171 -201 176 -212 b 238 -259 201 -238 218 -250 b 284 -273 258 -268 274 -273 b 304 -272 294 -273 301 -273 b 328 -254 317 -270 325 -264 l 353 -170 b 462 -178 387 -178 422 -182 b 675 -83 547 -176 617 -144 b 804 154 732 -22 775 57 b 850 462 833 251 849 353 b 809 770 850 570 837 673 b 692 996 783 861 744 937 l 723 1103 b 724 1112 724 1105 724 1108 b 707 1145 724 1123 718 1135 b 656 1178 694 1159 677 1170 b 610 1190 635 1186 621 1190 b 592 1189 600 1190 594 1190 b 565 1169 578 1187 569 1181 l 543 1095 b 463 1107 518 1101 492 1105 b 222 1011 366 1106 286 1074 b 80 766 158 948 111 866 b 36 448 50 665 35 559 b 87 133 37 336 54 231 b 202 -74 115 50 153 -20 z "},"":{"ha":886,"x_min":0,"x_max":0,"o":"m 837 -26 b 757 98 800 -12 772 30 b 732 347 741 166 732 250 b 741 644 731 444 734 543 b 762 916 748 746 755 836 b 774 1050 768 971 771 1016 b 746 1126 777 1082 767 1107 b 669 1158 725 1144 699 1155 b 587 1141 640 1161 612 1156 b 545 1067 563 1126 549 1102 b 526 858 541 1012 534 942 b 494 591 517 773 507 684 b 446 326 480 497 465 409 b 382 121 428 242 407 174 b 300 36 359 68 331 39 b 224 134 264 36 238 68 b 207 387 210 199 204 283 b 235 718 210 491 219 602 b 291 1047 250 835 269 945 b 268 1122 296 1076 289 1101 b 191 1162 248 1142 222 1156 b 103 1152 159 1168 130 1165 b 50 1078 76 1139 58 1115 b 19 878 41 1034 31 967 b -7 579 7 788 -1 688 b 1 261 -13 470 -10 364 b 73 0 12 158 35 71 b 237 -127 109 -71 165 -114 b 373 -85 288 -134 333 -120 b 473 50 413 -52 446 -6 b 527 223 499 106 517 163 b 553 85 528 180 536 134 b 627 -48 569 35 594 -9 b 753 -119 660 -87 702 -110 b 852 -108 800 -124 833 -121 b 876 -64 872 -96 880 -81 b 837 -26 873 -47 860 -35 z m 498 1141 b 522 1133 505 1136 513 1133 b 538 1136 526 1133 532 1134 b 572 1160 553 1141 565 1149 b 582 1187 578 1170 582 1179 b 576 1210 582 1194 581 1202 b 524 1303 567 1228 549 1259 b 437 1446 498 1348 470 1395 b 418 1454 433 1451 426 1454 b 400 1451 412 1454 406 1453 b 348 1423 382 1446 366 1436 b 311 1385 330 1410 318 1397 b 300 1358 304 1374 300 1364 b 306 1341 300 1352 302 1345 b 498 1141 362 1270 427 1203 z "},"":{"ha":886,"x_min":0,"x_max":0,"o":"m 837 -26 b 757 98 800 -12 772 30 b 732 347 741 166 732 250 b 741 644 731 444 734 543 b 762 916 748 746 755 836 b 774 1050 768 971 771 1016 b 746 1126 777 1082 767 1107 b 669 1158 725 1144 699 1155 b 587 1141 640 1161 612 1156 b 545 1067 563 1126 549 1102 b 526 858 541 1012 534 942 b 494 591 517 773 507 684 b 446 326 480 497 465 409 b 382 121 428 242 407 174 b 300 36 359 68 331 39 b 224 134 264 36 238 68 b 207 387 210 199 204 283 b 235 718 210 491 219 602 b 291 1047 250 835 269 945 b 268 1122 296 1076 289 1101 b 191 1162 248 1142 222 1156 b 103 1152 159 1168 130 1165 b 50 1078 76 1139 58 1115 b 19 878 41 1034 31 967 b -7 579 7 788 -1 688 b 1 261 -13 470 -10 364 b 73 0 12 158 35 71 b 237 -127 109 -71 165 -114 b 373 -85 288 -134 333 -120 b 473 50 413 -52 446 -6 b 527 223 499 106 517 163 b 553 85 528 180 536 134 b 627 -48 569 35 594 -9 b 753 -119 660 -87 702 -110 b 852 -108 800 -124 833 -121 b 876 -64 872 -96 880 -81 b 837 -26 873 -47 860 -35 z m 574 1428 b 493 1296 544 1381 517 1337 b 443 1207 469 1254 452 1225 b 438 1186 440 1200 438 1193 b 445 1164 438 1179 441 1171 b 473 1140 454 1152 463 1143 b 495 1135 483 1137 490 1135 b 517 1142 503 1135 511 1137 b 697 1330 585 1201 644 1263 b 703 1345 701 1335 703 1340 b 695 1367 703 1352 701 1359 b 658 1407 687 1381 674 1395 b 617 1431 642 1419 628 1428 b 593 1436 606 1434 597 1436 b 574 1428 585 1436 578 1434 z "},"":{"ha":886,"x_min":0,"x_max":0,"o":"m 837 -26 b 757 98 800 -12 772 30 b 732 347 741 166 732 250 b 741 644 731 444 734 543 b 762 916 748 746 755 836 b 774 1050 768 971 771 1016 b 746 1126 777 1082 767 1107 b 669 1158 725 1144 699 1155 b 587 1141 640 1161 612 1156 b 545 1067 563 1126 549 1102 b 526 858 541 1012 534 942 b 494 591 517 773 507 684 b 446 326 480 497 465 409 b 382 121 428 242 407 174 b 300 36 359 68 331 39 b 224 134 264 36 238 68 b 207 387 210 199 204 283 b 235 718 210 491 219 602 b 291 1047 250 835 269 945 b 268 1122 296 1076 289 1101 b 191 1162 248 1142 222 1156 b 103 1152 159 1168 130 1165 b 50 1078 76 1139 58 1115 b 19 878 41 1034 31 967 b -7 579 7 788 -1 688 b 1 261 -13 470 -10 364 b 73 0 12 158 35 71 b 237 -127 109 -71 165 -114 b 373 -85 288 -134 333 -120 b 473 50 413 -52 446 -6 b 527 223 499 106 517 163 b 553 85 528 180 536 134 b 627 -48 569 35 594 -9 b 753 -119 660 -87 702 -110 b 852 -108 800 -124 833 -121 b 876 -64 872 -96 880 -81 b 837 -26 873 -47 860 -35 z m 496 1397 l 369 1215 b 365 1201 366 1210 365 1206 b 365 1197 365 1200 365 1198 b 374 1182 366 1191 369 1186 b 419 1154 397 1166 412 1157 b 437 1150 427 1152 433 1150 b 452 1156 443 1150 448 1152 b 475 1190 458 1163 467 1174 b 507 1239 483 1204 493 1220 b 522 1211 509 1234 515 1224 b 544 1174 529 1198 536 1186 b 560 1150 550 1162 555 1155 b 574 1143 566 1145 570 1143 b 582 1145 576 1143 579 1143 b 609 1159 592 1150 601 1155 b 641 1177 625 1166 636 1173 b 647 1192 645 1182 647 1187 b 644 1206 647 1196 646 1200 b 612 1262 638 1218 628 1237 b 536 1395 594 1291 568 1336 b 522 1407 531 1402 527 1407 b 515 1407 518 1407 516 1407 b 496 1397 508 1407 502 1403 z "},"":{"ha":886,"x_min":0,"x_max":0,"o":"m 837 -26 b 757 98 800 -12 772 30 b 732 347 741 166 732 250 b 741 644 731 444 734 543 b 762 916 748 746 755 836 b 774 1050 768 971 771 1016 b 746 1126 777 1082 767 1107 b 669 1158 725 1144 699 1155 b 587 1141 640 1161 612 1156 b 545 1067 563 1126 549 1102 b 526 858 541 1012 534 942 b 494 591 517 773 507 684 b 446 326 480 497 465 409 b 382 121 428 242 407 174 b 300 36 359 68 331 39 b 224 134 264 36 238 68 b 207 387 210 199 204 283 b 235 718 210 491 219 602 b 291 1047 250 835 269 945 b 268 1122 296 1076 289 1101 b 191 1162 248 1142 222 1156 b 103 1152 159 1168 130 1165 b 50 1078 76 1139 58 1115 b 19 878 41 1034 31 967 b -7 579 7 788 -1 688 b 1 261 -13 470 -10 364 b 73 0 12 158 35 71 b 237 -127 109 -71 165 -114 b 373 -85 288 -134 333 -120 b 473 50 413 -52 446 -6 b 527 223 499 106 517 163 b 553 85 528 180 536 134 b 627 -48 569 35 594 -9 b 753 -119 660 -87 702 -110 b 852 -108 800 -124 833 -121 b 876 -64 872 -96 880 -81 b 837 -26 873 -47 860 -35 z m 454 1297 l 418 1297 b 372 1295 397 1297 382 1297 b 350 1281 359 1293 352 1289 b 347 1257 349 1274 347 1266 b 349 1233 347 1250 348 1242 b 351 1170 350 1217 351 1196 b 359 1155 351 1164 353 1159 b 378 1149 364 1151 370 1149 b 396 1149 382 1149 389 1149 b 433 1147 407 1148 420 1147 b 467 1152 446 1147 456 1149 b 481 1170 476 1155 481 1161 b 482 1200 481 1179 481 1189 b 484 1238 484 1213 484 1225 l 484 1244 b 477 1282 484 1259 482 1272 b 454 1297 473 1293 466 1297 z m 526 1170 b 534 1155 526 1164 528 1159 b 553 1149 539 1151 545 1149 b 571 1149 557 1149 564 1149 b 608 1147 582 1148 594 1147 b 642 1152 621 1147 631 1149 b 656 1170 651 1155 656 1161 b 657 1200 656 1179 656 1189 b 659 1238 659 1213 659 1225 l 659 1244 b 652 1282 659 1259 657 1272 b 629 1297 648 1293 641 1297 l 593 1297 b 547 1295 573 1297 557 1297 b 526 1282 534 1293 527 1289 b 523 1259 524 1274 523 1267 b 524 1233 523 1251 523 1242 b 526 1170 525 1217 526 1196 z "},"":{"ha":765,"x_min":0,"x_max":0,"o":"m 431 1083 b 444 941 435 1051 440 1004 b 444 743 448 878 448 812 b 404 562 439 673 425 613 b 302 477 382 512 349 484 b 205 532 254 474 221 492 b 187 681 189 571 183 621 b 214 861 192 741 201 802 b 250 1008 228 921 239 970 b 257 1033 253 1017 255 1025 b 239 1098 262 1059 257 1081 b 172 1131 222 1115 199 1126 b 94 1128 144 1137 118 1136 b 47 1084 70 1120 54 1105 b 12 925 33 1034 22 981 b -6 755 3 869 -3 812 b 3 593 -8 699 -5 645 b 49 455 12 541 26 496 b 134 363 71 414 99 384 b 264 338 170 342 213 334 b 398 382 314 342 359 357 b 511 536 437 408 475 459 b 465 235 507 406 492 305 b 373 81 437 163 407 113 b 269 54 338 49 304 40 b 182 185 235 68 205 112 b 138 220 174 207 160 218 b 71 205 117 222 95 217 b 17 154 48 193 30 176 b 10 85 3 133 1 110 b 142 -70 38 19 82 -33 b 340 -119 201 -107 268 -123 b 515 -46 404 -114 462 -90 b 651 165 568 -2 613 68 b 713 551 688 262 709 391 b 651 1130 716 710 696 903 b 606 1167 646 1149 630 1161 b 530 1168 581 1173 555 1173 b 460 1138 505 1162 481 1152 b 431 1083 439 1123 429 1105 z m 450 1438 b 368 1306 419 1392 392 1348 b 319 1217 345 1264 328 1235 b 314 1196 315 1210 314 1203 b 321 1175 314 1189 316 1181 b 349 1150 329 1162 338 1154 b 371 1145 358 1147 366 1145 b 393 1152 379 1145 387 1147 b 573 1340 460 1211 520 1274 b 578 1356 576 1345 578 1350 b 571 1377 578 1362 576 1369 b 534 1417 562 1392 550 1405 b 492 1441 517 1430 503 1438 b 469 1447 481 1444 473 1447 b 450 1438 460 1447 454 1444 z "},"":{"ha":758,"x_min":0,"x_max":0,"o":"m 306 1084 b 282 1143 308 1109 300 1128 b 212 1171 264 1158 240 1167 b 134 1158 183 1173 157 1169 b 93 1101 111 1147 98 1128 b 64 708 85 1048 75 916 b 47 210 52 499 46 333 b 61 -120 47 86 52 -24 b 113 -357 71 -216 87 -295 b 193 -439 131 -394 157 -422 b 304 -464 229 -457 267 -465 b 397 -431 342 -462 373 -451 b 404 -422 399 -429 402 -426 b 406 -411 407 -419 407 -415 b 391 -398 404 -407 399 -403 b 308 -284 355 -378 328 -340 b 266 -89 288 -228 274 -163 b 251 130 257 -15 252 58 b 334 7 268 76 296 35 b 479 -23 373 -21 421 -31 b 610 68 530 -14 574 17 b 691 256 646 121 673 183 b 718 473 709 329 718 401 b 682 654 716 545 705 605 b 603 739 665 694 638 722 b 491 756 568 755 530 762 b 386 697 452 751 416 731 b 303 571 355 663 328 621 b 250 440 279 521 260 477 b 258 543 252 471 255 506 b 306 1084 287 878 302 1059 z m 471 618 b 512 562 493 621 507 602 b 511 412 518 521 517 471 b 477 240 505 352 493 295 b 420 119 461 185 442 145 b 364 103 401 99 382 94 b 323 163 347 112 332 132 b 316 277 313 194 311 232 b 347 413 322 319 332 365 b 400 542 361 461 379 504 b 471 618 421 580 445 605 z "},"":{"ha":809,"x_min":0,"x_max":0,"o":"m 221 -30 b 329 -10 267 -34 302 -27 b 391 56 356 7 376 29 b 426 134 406 83 417 109 b 444 177 433 151 439 165 b 465 194 450 188 457 194 b 534 50 482 135 506 87 b 657 -19 564 13 604 -10 b 731 -9 690 -22 715 -19 b 755 25 747 1 755 12 b 731 52 755 38 747 47 b 671 128 704 62 684 87 b 649 276 659 169 652 218 b 650 454 647 334 647 393 b 661 618 653 515 656 570 b 666 699 663 650 665 677 b 631 764 665 730 654 753 b 548 772 608 777 581 779 b 488 728 516 766 496 751 b 461 660 478 687 469 664 b 415 681 453 655 438 663 b 405 688 412 684 408 686 b 311 725 378 708 346 720 b 205 709 275 730 240 724 b 114 627 170 694 140 667 b 54 460 88 585 68 530 b 41 248 41 391 36 321 b 90 62 45 176 62 114 b 221 -30 119 9 163 -21 z m 338 612 b 401 562 370 610 391 593 b 408 441 411 529 414 489 b 378 297 402 393 392 345 b 328 175 363 249 346 208 b 278 121 310 142 294 124 b 247 182 263 119 253 139 b 266 482 237 300 244 399 b 338 612 288 564 312 608 z m 366 771 b 389 764 372 766 380 764 b 406 766 394 764 399 764 b 439 790 421 772 433 780 b 450 817 446 800 450 810 b 444 840 450 825 448 832 b 391 934 434 859 417 890 b 305 1076 366 978 338 1025 b 285 1084 300 1082 294 1084 b 267 1081 280 1084 274 1083 b 216 1053 250 1076 233 1067 b 179 1016 198 1040 186 1027 b 168 988 172 1004 168 995 b 174 971 168 982 170 976 b 366 771 230 901 294 833 z "},"":{"ha":809,"x_min":0,"x_max":0,"o":"m 221 -30 b 329 -10 267 -34 302 -27 b 391 56 356 7 376 29 b 426 134 406 83 417 109 b 444 177 433 151 439 165 b 465 194 450 188 457 194 b 534 50 482 135 506 87 b 657 -19 564 13 604 -10 b 731 -9 690 -22 715 -19 b 755 25 747 1 755 12 b 731 52 755 38 747 47 b 671 128 704 62 684 87 b 649 276 659 169 652 218 b 650 454 647 334 647 393 b 661 618 653 515 656 570 b 666 699 663 650 665 677 b 631 764 665 730 654 753 b 548 772 608 777 581 779 b 488 728 516 766 496 751 b 461 660 478 687 469 664 b 415 681 453 655 438 663 b 405 688 412 684 408 686 b 311 725 378 708 346 720 b 205 709 275 730 240 724 b 114 627 170 694 140 667 b 54 460 88 585 68 530 b 41 248 41 391 36 321 b 90 62 45 176 62 114 b 221 -30 119 9 163 -21 z m 338 612 b 401 562 370 610 391 593 b 408 441 411 529 414 489 b 378 297 402 393 392 345 b 328 175 363 249 346 208 b 278 121 310 142 294 124 b 247 182 263 119 253 139 b 266 482 237 300 244 399 b 338 612 288 564 312 608 z m 399 1099 b 318 966 369 1052 342 1008 b 268 878 294 924 277 895 b 263 857 264 870 263 863 b 270 835 263 849 265 842 b 298 810 279 822 288 814 b 320 806 308 807 315 806 b 342 812 328 806 336 808 b 522 1000 410 871 469 934 b 528 1016 526 1005 528 1010 b 520 1038 528 1023 525 1029 b 483 1078 512 1052 499 1065 b 441 1101 467 1090 453 1098 b 418 1107 431 1105 422 1107 b 399 1099 410 1107 404 1104 z "},"":{"ha":809,"x_min":0,"x_max":0,"o":"m 221 -30 b 329 -10 267 -34 302 -27 b 391 56 356 7 376 29 b 426 134 406 83 417 109 b 444 177 433 151 439 165 b 465 194 450 188 457 194 b 534 50 482 135 506 87 b 657 -19 564 13 604 -10 b 731 -9 690 -22 715 -19 b 755 25 747 1 755 12 b 731 52 755 38 747 47 b 671 128 704 62 684 87 b 649 276 659 169 652 218 b 650 454 647 334 647 393 b 661 618 653 515 656 570 b 666 699 663 650 665 677 b 631 764 665 730 654 753 b 548 772 608 777 581 779 b 488 728 516 766 496 751 b 461 660 478 687 469 664 b 415 681 453 655 438 663 b 405 688 412 684 408 686 b 311 725 378 708 346 720 b 205 709 275 730 240 724 b 114 627 170 694 140 667 b 54 460 88 585 68 530 b 41 248 41 391 36 321 b 90 62 45 176 62 114 b 221 -30 119 9 163 -21 z m 338 612 b 401 562 370 610 391 593 b 408 441 411 529 414 489 b 378 297 402 393 392 345 b 328 175 363 249 346 208 b 278 121 310 142 294 124 b 247 182 263 119 253 139 b 266 482 237 300 244 399 b 338 612 288 564 312 608 z m 333 1065 l 205 882 b 201 869 203 878 201 873 b 201 865 201 867 201 866 b 211 850 203 859 205 854 b 256 822 233 834 248 825 b 273 818 264 819 269 818 b 288 824 279 818 284 820 b 311 858 295 831 302 842 b 343 907 319 871 330 888 b 358 879 346 901 351 892 b 380 842 365 866 372 854 b 397 818 387 830 392 823 b 410 810 401 813 406 810 b 418 812 413 810 416 811 b 446 827 429 818 437 823 b 477 845 462 834 473 840 b 484 859 481 850 484 854 b 480 874 484 863 482 868 b 449 930 475 886 465 905 b 372 1063 431 959 405 1004 b 359 1074 368 1070 363 1074 b 352 1074 355 1074 352 1074 b 333 1065 345 1074 338 1071 z "},"":{"ha":809,"x_min":0,"x_max":0,"o":"m 221 -30 b 329 -10 267 -34 302 -27 b 391 56 356 7 376 29 b 426 134 406 83 417 109 b 444 177 433 151 439 165 b 465 194 450 188 457 194 b 534 50 482 135 506 87 b 657 -19 564 13 604 -10 b 731 -9 690 -22 715 -19 b 755 25 747 1 755 12 b 731 52 755 38 747 47 b 671 128 704 62 684 87 b 649 276 659 169 652 218 b 650 454 647 334 647 393 b 661 618 653 515 656 570 b 666 699 663 650 665 677 b 631 764 665 730 654 753 b 548 772 608 777 581 779 b 488 728 516 766 496 751 b 461 660 478 687 469 664 b 415 681 453 655 438 663 b 405 688 412 684 408 686 b 311 725 378 708 346 720 b 205 709 275 730 240 724 b 114 627 170 694 140 667 b 54 460 88 585 68 530 b 41 248 41 391 36 321 b 90 62 45 176 62 114 b 221 -30 119 9 163 -21 z m 338 612 b 401 562 370 610 391 593 b 408 441 411 529 414 489 b 378 297 402 393 392 345 b 328 175 363 249 346 208 b 278 121 310 142 294 124 b 247 182 263 119 253 139 b 266 482 237 300 244 399 b 338 612 288 564 312 608 z m 473 995 b 438 950 459 969 448 954 b 414 944 429 946 420 944 b 392 949 407 944 399 945 b 349 975 378 956 364 964 b 302 1004 332 989 316 999 b 271 1013 289 1010 278 1013 b 231 1000 258 1013 244 1008 b 161 911 209 988 185 958 b 155 886 157 903 155 894 b 159 863 155 878 157 870 b 180 831 165 846 173 836 b 199 823 189 826 195 823 b 220 836 206 823 213 827 b 256 871 235 857 247 868 b 278 876 266 874 273 876 b 302 869 286 876 294 873 b 342 845 315 863 329 855 b 387 819 359 832 374 823 b 416 812 399 814 409 812 b 458 826 429 812 444 817 b 534 923 481 840 507 873 b 539 945 537 930 539 937 b 533 970 539 953 537 962 b 509 1002 525 987 517 998 b 492 1008 501 1006 495 1008 b 473 995 484 1008 478 1004 z "},"":{"ha":809,"x_min":0,"x_max":0,"o":"m 221 -30 b 329 -10 267 -34 302 -27 b 391 56 356 7 376 29 b 426 134 406 83 417 109 b 444 177 433 151 439 165 b 465 194 450 188 457 194 b 534 50 482 135 506 87 b 657 -19 564 13 604 -10 b 731 -9 690 -22 715 -19 b 755 25 747 1 755 12 b 731 52 755 38 747 47 b 671 128 704 62 684 87 b 649 276 659 169 652 218 b 650 454 647 334 647 393 b 661 618 653 515 656 570 b 666 699 663 650 665 677 b 631 764 665 730 654 753 b 548 772 608 777 581 779 b 488 728 516 766 496 751 b 461 660 478 687 469 664 b 415 681 453 655 438 663 b 405 688 412 684 408 686 b 311 725 378 708 346 720 b 205 709 275 730 240 724 b 114 627 170 694 140 667 b 54 460 88 585 68 530 b 41 248 41 391 36 321 b 90 62 45 176 62 114 b 221 -30 119 9 163 -21 z m 338 612 b 401 562 370 610 391 593 b 408 441 411 529 414 489 b 378 297 402 393 392 345 b 328 175 363 249 346 208 b 278 121 310 142 294 124 b 247 182 263 119 253 139 b 266 482 237 300 244 399 b 338 612 288 564 312 608 z m 306 947 l 270 947 b 224 945 250 947 235 946 b 202 930 212 943 204 938 b 199 906 201 924 199 916 b 201 882 199 899 200 891 b 203 819 202 866 203 845 b 211 804 203 813 205 808 b 230 799 216 800 222 799 b 248 798 235 799 240 798 b 285 797 259 798 271 797 b 319 802 298 797 309 798 b 333 819 328 804 333 810 b 334 850 333 828 334 838 b 336 887 336 862 336 875 l 336 894 b 330 932 336 909 334 922 b 306 947 326 942 318 947 z m 378 819 b 386 804 378 813 380 808 b 405 799 391 800 397 799 b 422 798 410 799 415 798 b 460 797 434 798 446 797 b 494 802 473 797 484 798 b 508 819 503 804 508 810 b 509 850 508 828 509 838 b 511 887 511 862 511 875 l 511 894 b 505 932 511 909 509 922 b 481 947 500 942 492 947 l 445 947 b 399 945 425 947 410 946 b 377 931 387 943 379 938 b 374 908 376 924 374 916 b 376 882 374 901 375 892 b 378 819 377 866 378 845 z "},"":{"ha":809,"x_min":0,"x_max":0,"o":"m 221 -30 b 329 -10 267 -34 302 -27 b 391 56 356 7 376 29 b 426 134 406 83 417 109 b 444 177 433 151 439 165 b 465 194 450 188 457 194 b 534 50 482 135 506 87 b 657 -19 564 13 604 -10 b 731 -9 690 -22 715 -19 b 755 25 747 1 755 12 b 731 52 755 38 747 47 b 671 128 704 62 684 87 b 649 276 659 169 652 218 b 650 454 647 334 647 393 b 661 618 653 515 656 570 b 666 699 663 650 665 677 b 631 764 665 730 654 753 b 548 772 608 777 581 779 b 488 728 516 766 496 751 b 461 660 478 687 469 664 b 415 681 453 655 438 663 b 405 688 412 684 408 686 b 311 725 378 708 346 720 b 205 709 275 730 240 724 b 114 627 170 694 140 667 b 54 460 88 585 68 530 b 41 248 41 391 36 321 b 90 62 45 176 62 114 b 221 -30 119 9 163 -21 z m 338 612 b 401 562 370 610 391 593 b 408 441 411 529 414 489 b 378 297 402 393 392 345 b 328 175 363 249 346 208 b 278 121 310 142 294 124 b 247 182 263 119 253 139 b 266 482 237 300 244 399 b 338 612 288 564 312 608 z m 386 802 b 430 872 415 830 430 853 b 431 903 431 891 431 901 b 401 992 431 937 421 966 b 311 1040 380 1020 350 1036 l 304 1040 b 216 1006 269 1040 240 1029 b 171 915 189 983 174 951 b 170 906 170 911 170 909 b 203 814 170 869 181 838 b 267 771 226 787 248 773 b 302 768 286 769 298 768 b 386 802 332 768 359 779 z m 258 905 b 275 941 259 922 264 934 b 305 951 284 947 294 951 b 311 950 307 951 309 951 b 338 935 323 949 332 943 b 348 901 345 922 348 911 b 344 884 348 895 347 889 b 321 858 338 870 330 861 b 299 852 311 854 304 852 b 277 859 291 852 283 854 b 258 905 264 867 258 882 z "},"":{"ha":1018,"x_min":0,"x_max":0,"o":"m 338 612 b 401 562 370 610 391 593 b 408 441 412 530 414 490 b 378 297 402 393 392 345 b 328 175 363 249 347 208 b 279 121 310 142 294 124 b 247 182 263 119 253 139 b 266 482 238 300 244 399 b 338 612 288 564 312 608 z m 805 621 b 810 513 818 585 820 549 b 765 414 800 475 785 443 b 706 353 744 385 724 364 b 671 358 687 341 675 342 b 676 460 666 386 667 420 b 713 572 685 500 697 537 b 762 643 728 606 745 630 b 805 621 779 656 793 648 z m 458 192 b 524 53 473 136 494 89 b 695 -43 571 -5 628 -37 b 837 -23 751 -47 798 -41 b 927 56 876 -5 905 21 b 926 116 939 77 939 98 b 876 149 914 134 897 145 b 819 123 854 153 836 144 b 750 79 795 89 772 74 b 696 125 728 83 711 99 b 671 214 682 152 673 181 l 671 216 b 673 235 670 224 671 231 b 693 241 675 239 682 241 b 833 281 743 240 790 254 b 935 396 876 309 909 347 b 979 552 960 446 975 497 b 953 699 982 606 974 655 b 848 787 932 742 897 772 b 659 782 775 807 712 805 b 534 680 609 760 568 726 b 519 664 528 675 524 669 b 473 644 505 644 489 637 b 415 681 457 650 437 663 b 405 688 412 683 408 686 b 311 725 378 708 347 720 b 205 709 275 730 240 724 b 114 627 170 694 140 667 b 55 460 88 585 68 529 b 41 249 41 391 36 321 b 90 62 45 176 62 114 b 221 -30 119 9 162 -21 b 329 -10 267 -34 302 -27 b 391 56 355 7 376 29 b 426 134 406 83 417 109 b 444 177 432 151 438 165 b 458 192 448 184 452 190 z "},"":{"ha":589,"x_min":0,"x_max":0,"o":"m 283 -19 b 279 -27 280 -21 279 -24 b 277 -65 279 -41 278 -54 l 277 -86 b 281 -114 277 -100 279 -109 b 294 -120 283 -118 288 -120 b 313 -117 299 -120 305 -119 b 328 -115 318 -116 323 -115 b 339 -117 332 -115 336 -116 b 346 -126 344 -119 346 -123 l 346 -128 b 336 -136 345 -132 341 -135 b 323 -139 332 -138 327 -139 b 300 -136 317 -139 309 -138 b 296 -135 298 -135 297 -135 b 291 -136 294 -135 293 -136 b 286 -144 288 -138 286 -140 b 283 -153 285 -146 284 -149 b 278 -171 280 -161 279 -167 b 277 -178 277 -175 277 -178 b 285 -190 277 -184 279 -188 b 324 -195 300 -193 313 -195 b 364 -186 340 -195 353 -192 b 398 -151 384 -176 395 -164 b 402 -125 401 -139 402 -130 b 391 -89 402 -112 399 -100 b 335 -59 381 -72 362 -62 b 336 -54 335 -58 335 -56 b 336 -43 336 -50 336 -47 l 336 -38 b 334 -22 336 -32 335 -27 b 332 -20 333 -22 332 -21 b 452 25 376 -16 416 -1 b 507 109 479 47 496 75 b 515 204 516 144 519 175 b 489 256 511 233 503 250 b 458 237 480 258 470 251 b 423 184 447 222 435 205 b 385 126 410 161 397 142 b 348 104 372 109 359 102 b 282 193 317 115 295 145 b 267 359 269 241 264 297 b 294 531 270 422 279 479 b 354 637 309 583 329 618 b 393 612 372 647 385 639 b 410 513 400 586 406 553 b 429 407 414 473 420 438 b 468 359 436 376 450 359 b 512 414 481 361 496 379 b 545 532 528 448 538 488 b 536 648 552 576 549 615 b 431 732 516 688 481 717 b 277 741 381 748 330 751 b 152 671 223 730 182 707 b 53 400 98 595 65 505 b 92 113 40 295 54 199 b 192 10 116 66 149 33 b 283 -19 221 -5 252 -16 z "},"":{"ha":625,"x_min":0,"x_max":0,"o":"m 291 233 b 435 273 342 232 391 245 b 541 387 479 300 514 338 b 585 541 566 435 581 486 b 559 686 589 595 580 643 b 450 774 537 729 501 758 b 255 768 375 793 310 791 b 124 662 200 745 157 709 b 55 477 92 614 69 552 b 47 248 41 401 39 325 b 125 46 56 171 82 104 b 293 -49 168 -12 224 -43 b 439 -28 351 -53 399 -46 b 532 50 479 -11 510 15 b 532 109 545 71 544 90 b 479 142 519 127 502 138 b 421 116 458 146 438 137 b 350 72 396 82 372 68 b 294 118 328 76 309 92 b 268 205 279 144 271 174 b 268 209 268 206 268 208 b 270 227 267 216 267 222 b 291 233 272 231 279 233 z m 406 610 b 412 501 420 574 422 538 b 364 404 401 465 386 432 b 304 343 343 375 323 355 b 268 349 284 332 273 334 b 273 449 263 376 264 410 b 311 560 282 489 294 526 b 361 631 327 595 344 618 b 406 610 378 643 394 636 z m 363 833 b 387 826 371 829 378 826 b 404 829 392 826 398 827 b 437 852 419 834 431 842 b 448 880 444 863 448 872 b 442 903 448 887 446 895 b 390 996 433 921 415 952 b 303 1139 364 1040 336 1088 b 283 1147 298 1144 292 1147 b 266 1143 278 1147 272 1145 b 214 1116 248 1139 231 1129 b 177 1078 196 1103 184 1090 b 166 1050 170 1067 166 1057 b 172 1034 166 1044 168 1038 b 363 833 228 963 292 896 z "},"":{"ha":625,"x_min":0,"x_max":0,"o":"m 291 233 b 435 273 342 232 391 245 b 541 387 479 300 514 338 b 585 541 566 435 581 486 b 559 686 589 595 580 643 b 450 774 537 729 501 758 b 255 768 375 793 310 791 b 124 662 200 745 157 709 b 55 477 92 614 69 552 b 47 248 41 401 39 325 b 125 46 56 171 82 104 b 293 -49 168 -12 224 -43 b 439 -28 351 -53 399 -46 b 532 50 479 -11 510 15 b 532 109 545 71 544 90 b 479 142 519 127 502 138 b 421 116 458 146 438 137 b 350 72 396 82 372 68 b 294 118 328 76 309 92 b 268 205 279 144 271 174 b 268 209 268 206 268 208 b 270 227 267 216 267 222 b 291 233 272 231 279 233 z m 406 610 b 412 501 420 574 422 538 b 364 404 401 465 386 432 b 304 343 343 375 323 355 b 268 349 284 332 273 334 b 273 449 263 376 264 410 b 311 560 282 489 294 526 b 361 631 327 595 344 618 b 406 610 378 643 394 636 z m 406 1140 b 325 1008 376 1093 349 1049 b 275 919 301 966 284 937 b 270 898 272 911 270 905 b 277 876 270 890 273 883 b 304 852 286 863 295 855 b 327 847 315 848 322 847 b 349 854 335 847 342 849 b 529 1042 416 913 476 975 b 534 1057 533 1046 534 1052 b 527 1079 534 1064 532 1071 b 490 1119 519 1093 506 1107 b 449 1143 473 1131 460 1139 b 425 1148 437 1146 429 1148 b 406 1140 417 1148 410 1145 z "},"":{"ha":625,"x_min":0,"x_max":0,"o":"m 291 233 b 435 273 342 232 391 245 b 541 387 479 300 514 338 b 585 541 566 435 581 486 b 559 686 589 595 580 643 b 450 774 537 729 501 758 b 255 768 375 793 310 791 b 124 662 200 745 157 709 b 55 477 92 614 69 552 b 47 248 41 401 39 325 b 125 46 56 171 82 104 b 293 -49 168 -12 224 -43 b 439 -28 351 -53 399 -46 b 532 50 479 -11 510 15 b 532 109 545 71 544 90 b 479 142 519 127 502 138 b 421 116 458 146 438 137 b 350 72 396 82 372 68 b 294 118 328 76 309 92 b 268 205 279 144 271 174 b 268 209 268 206 268 208 b 270 227 267 216 267 222 b 291 233 272 231 279 233 z m 406 610 b 412 501 420 574 422 538 b 364 404 401 465 386 432 b 304 343 343 375 323 355 b 268 349 284 332 273 334 b 273 449 263 376 264 410 b 311 560 282 489 294 526 b 361 631 327 595 344 618 b 406 610 378 643 394 636 z m 341 1094 l 214 911 b 210 898 211 907 210 903 b 210 894 210 897 210 895 b 219 879 211 888 214 883 b 264 851 241 863 256 854 b 281 847 272 848 277 847 b 296 853 287 847 292 849 b 320 887 303 860 311 871 b 351 936 328 901 338 917 b 366 908 354 930 359 921 b 389 871 374 895 380 883 b 405 847 395 859 400 852 b 418 840 410 842 414 840 b 427 842 421 840 424 840 b 454 856 437 847 446 852 b 486 874 470 863 481 869 b 492 888 490 879 492 884 b 488 903 492 892 491 897 b 457 959 483 915 473 934 b 380 1092 439 988 413 1033 b 367 1103 376 1099 372 1103 b 360 1103 363 1103 361 1103 b 341 1094 353 1103 347 1100 z "},"":{"ha":625,"x_min":0,"x_max":0,"o":"m 291 233 b 435 273 342 232 391 245 b 541 387 479 300 514 338 b 585 541 566 435 581 486 b 559 686 589 595 580 643 b 450 774 537 729 501 758 b 255 768 375 793 310 791 b 124 662 200 745 157 709 b 55 477 92 614 69 552 b 47 248 41 401 39 325 b 125 46 56 171 82 104 b 293 -49 168 -12 224 -43 b 439 -28 351 -53 399 -46 b 532 50 479 -11 510 15 b 532 109 545 71 544 90 b 479 142 519 127 502 138 b 421 116 458 146 438 137 b 350 72 396 82 372 68 b 294 118 328 76 309 92 b 268 205 279 144 271 174 b 268 209 268 206 268 208 b 270 227 267 216 267 222 b 291 233 272 231 279 233 z m 406 610 b 412 501 420 574 422 538 b 364 404 401 465 386 432 b 304 343 343 375 323 355 b 268 349 284 332 273 334 b 273 449 263 376 264 410 b 311 560 282 489 294 526 b 361 631 327 595 344 618 b 406 610 378 643 394 636 z m 311 1044 l 275 1044 b 229 1042 254 1044 239 1043 b 207 1027 216 1040 209 1035 b 204 1003 205 1021 204 1013 b 205 979 204 996 205 988 b 208 916 207 963 208 942 b 216 901 208 910 210 905 b 235 896 221 897 227 896 b 253 895 239 896 245 895 b 290 894 264 895 276 894 b 323 899 302 894 313 895 b 338 916 333 901 338 907 b 339 947 338 925 338 935 b 341 984 340 959 341 972 l 341 991 b 334 1029 341 1006 339 1019 b 311 1044 330 1039 323 1044 z m 382 916 b 391 901 382 910 385 905 b 410 896 396 897 402 896 b 427 895 414 896 420 895 b 465 894 439 895 451 894 b 498 899 477 894 488 895 b 513 916 508 901 513 907 b 514 947 513 925 513 935 b 516 984 515 959 516 972 l 516 991 b 509 1029 516 1006 514 1019 b 486 1044 505 1039 498 1044 l 450 1044 b 404 1042 430 1044 414 1043 b 382 1028 391 1040 384 1035 b 380 1005 380 1021 380 1013 b 381 979 380 998 380 989 b 382 916 382 963 382 942 z "},"":{"ha":374,"x_min":0,"x_max":0,"o":"m 316 32 b 259 106 290 41 270 66 b 240 254 248 146 241 196 b 245 430 239 311 241 370 b 260 591 250 490 255 544 b 267 671 263 624 266 650 b 241 734 270 699 261 719 b 170 760 222 749 198 758 b 96 746 142 762 117 758 b 58 688 73 734 60 715 b 49 565 56 651 53 610 b 37 369 43 501 39 436 b 48 180 35 302 39 239 b 108 33 58 121 78 72 b 241 -35 138 -5 182 -28 b 315 -24 274 -37 299 -34 b 340 7 332 -16 340 -5 b 316 32 340 18 332 26 z m 195 837 b 218 829 201 832 210 829 b 235 832 223 829 229 830 b 269 856 250 838 261 846 b 279 883 275 866 279 876 b 273 906 279 890 277 898 b 220 1000 263 924 245 956 b 134 1142 195 1044 166 1091 b 114 1150 129 1147 123 1150 b 96 1147 109 1150 103 1149 b 45 1119 79 1142 62 1133 b 7 1082 27 1106 15 1093 b -3 1054 1 1070 -3 1061 b 3 1037 -3 1048 -1 1042 b 195 837 59 966 123 899 z "},"":{"ha":374,"x_min":0,"x_max":0,"o":"m 316 32 b 259 106 290 41 270 66 b 240 254 248 146 241 196 b 245 430 239 311 241 370 b 260 591 250 490 255 544 b 267 671 263 624 266 650 b 241 734 270 699 261 719 b 170 760 222 749 198 758 b 96 746 142 762 117 758 b 58 688 73 734 60 715 b 49 565 56 651 53 610 b 37 369 43 501 39 436 b 48 180 35 302 39 239 b 108 33 58 121 78 72 b 241 -35 138 -5 182 -28 b 315 -24 274 -37 299 -34 b 340 7 332 -16 340 -5 b 316 32 340 18 332 26 z m 193 1126 b 113 994 163 1080 136 1036 b 62 905 89 952 72 923 b 58 884 59 898 58 891 b 64 863 58 877 60 869 b 92 838 73 850 82 842 b 115 833 102 835 110 833 b 136 840 123 833 130 836 b 317 1028 204 899 264 962 b 322 1044 320 1033 322 1038 b 315 1065 322 1050 319 1057 b 277 1105 306 1080 294 1093 b 236 1129 261 1118 248 1126 b 212 1135 225 1133 217 1135 b 193 1126 204 1135 198 1132 z "},"":{"ha":374,"x_min":0,"x_max":0,"o":"m 316 32 b 259 106 290 41 270 66 b 240 254 248 146 241 196 b 245 430 239 311 241 370 b 260 591 250 490 255 544 b 267 671 263 624 266 650 b 241 734 270 699 261 719 b 170 760 222 749 198 758 b 96 746 142 762 117 758 b 58 688 73 734 60 715 b 49 565 56 651 53 610 b 37 369 43 501 39 436 b 48 180 35 302 39 239 b 108 33 58 121 78 72 b 241 -35 138 -5 182 -28 b 315 -24 274 -37 299 -34 b 340 7 332 -16 340 -5 b 316 32 340 18 332 26 z m 151 1077 l 22 895 b 18 881 20 890 18 886 b 19 877 18 880 18 878 b 28 862 20 871 23 866 b 73 834 50 846 66 837 b 90 830 81 831 87 830 b 106 836 96 830 102 832 b 129 870 113 843 120 854 b 160 919 136 884 147 900 b 176 891 163 913 168 904 b 197 854 182 878 190 866 b 214 830 204 842 210 835 b 228 823 219 825 224 823 b 236 825 231 823 233 823 b 263 839 246 830 255 835 b 294 857 279 846 290 852 b 301 871 299 862 301 867 b 298 886 301 876 300 880 b 267 942 292 898 281 917 b 190 1075 248 971 222 1016 b 176 1086 185 1082 180 1086 b 169 1086 172 1086 170 1086 b 151 1077 161 1086 155 1083 z "},"":{"ha":374,"x_min":0,"x_max":0,"o":"m 316 32 b 259 106 290 41 270 66 b 240 254 248 146 241 196 b 245 430 239 311 241 370 b 260 591 250 490 255 544 b 267 671 263 624 266 650 b 241 734 270 699 261 719 b 170 760 222 749 198 758 b 96 746 142 762 117 758 b 58 688 73 734 60 715 b 49 565 56 651 53 610 b 37 369 43 501 39 436 b 48 180 35 302 39 239 b 108 33 58 121 78 72 b 241 -35 138 -5 182 -28 b 315 -24 274 -37 299 -34 b 340 7 332 -16 340 -5 b 316 32 340 18 332 26 z m 129 1011 l 93 1011 b 47 1009 73 1011 58 1010 b 25 995 35 1007 27 1002 b 22 970 23 988 22 980 b 24 947 22 964 23 956 b 26 884 25 930 26 909 b 34 869 26 878 28 873 b 53 863 39 865 45 863 b 71 863 57 863 63 863 b 108 861 82 862 94 861 b 141 866 120 861 132 863 b 156 884 151 869 156 875 b 157 914 156 892 156 903 b 159 951 159 926 159 939 l 159 958 b 153 996 159 973 157 986 b 129 1011 149 1006 140 1011 z m 201 884 b 209 869 201 878 203 873 b 228 863 214 865 220 863 b 245 863 232 863 238 863 b 282 861 257 862 269 861 b 316 866 295 861 307 863 b 331 884 326 869 331 875 b 332 914 331 892 331 903 b 334 951 333 926 334 939 l 334 958 b 328 996 334 973 332 986 b 304 1011 323 1006 315 1011 l 268 1011 b 222 1009 248 1011 233 1010 b 200 996 210 1007 202 1002 b 197 972 199 988 197 981 b 199 947 197 965 198 956 b 201 884 200 930 201 909 z "},"":{"ha":823,"x_min":0,"x_max":0,"o":"m 240 189 b 272 503 236 315 247 420 b 349 630 297 585 323 628 b 414 553 387 627 408 601 b 401 387 420 506 415 450 b 344 216 386 324 367 267 b 279 121 320 164 298 133 b 240 189 258 110 245 132 z m 701 937 l 847 987 b 866 1000 854 989 861 994 b 869 1016 871 1005 871 1010 b 867 1029 869 1019 867 1023 b 859 1059 865 1038 862 1048 b 843 1084 855 1069 850 1078 b 812 1087 836 1090 825 1091 l 723 1057 b 732 1105 726 1074 730 1090 b 734 1116 733 1109 734 1113 b 719 1196 741 1149 736 1175 b 650 1237 701 1217 678 1231 b 572 1230 623 1243 596 1240 b 522 1169 547 1219 530 1199 b 484 975 511 1124 498 1060 l 335 924 b 315 911 326 922 320 918 b 311 895 311 905 309 900 b 315 882 312 892 313 888 b 323 852 317 873 319 863 b 339 827 326 842 332 833 b 369 824 346 821 356 819 l 465 857 b 446 684 458 802 451 745 b 363 749 428 713 400 735 b 241 751 326 764 285 764 b 125 656 198 739 159 707 b 59 480 98 611 76 553 b 37 258 42 408 35 334 b 79 60 38 181 52 115 b 206 -41 105 3 147 -30 b 315 -24 251 -47 287 -42 b 379 45 342 -7 363 16 b 417 128 395 74 408 102 b 433 165 422 142 428 155 b 454 192 443 186 450 195 b 465 165 458 189 461 180 b 465 162 465 164 465 163 b 568 -23 485 75 519 13 b 753 -58 616 -60 678 -71 b 784 -25 770 -52 781 -41 b 763 7 787 -9 780 1 b 669 133 718 22 686 64 b 642 366 652 201 643 279 b 658 638 642 453 647 544 b 696 903 669 732 682 821 b 701 937 697 915 699 926 z "},"":{"ha":724,"x_min":0,"x_max":0,"o":"m 405 602 b 435 538 425 595 435 574 b 422 373 435 503 431 448 b 406 184 413 315 408 253 b 437 17 404 116 414 60 b 570 -61 460 -26 505 -52 b 634 -58 591 -63 613 -62 b 677 -39 655 -53 669 -47 b 665 -14 686 -31 682 -22 b 618 50 642 -2 626 19 b 610 170 610 79 608 120 b 623 317 613 221 617 270 b 637 528 631 400 635 470 b 612 676 638 585 630 634 b 510 758 594 718 560 745 b 355 724 454 769 403 758 b 237 561 308 690 269 635 b 244 677 239 602 241 641 b 216 728 245 699 235 715 b 149 747 198 740 176 747 b 80 729 123 748 100 742 b 45 667 60 716 48 696 b 37 361 37 564 35 463 b 52 42 39 260 45 154 b 104 -1 56 21 73 6 b 197 -4 135 -9 166 -10 b 251 35 229 2 246 16 b 267 346 245 155 251 259 b 328 543 281 433 302 498 b 405 602 354 589 379 608 z m 469 1000 b 435 956 456 975 445 960 b 411 949 425 951 417 949 b 389 955 404 949 397 951 b 347 981 375 961 361 970 b 299 1010 328 995 313 1004 b 267 1018 286 1015 275 1018 b 228 1006 255 1018 241 1014 b 157 916 205 994 182 964 b 153 891 154 908 153 899 b 157 868 153 884 154 876 b 178 836 163 851 170 841 b 196 829 186 831 192 829 b 216 841 203 829 210 833 b 254 876 231 862 244 873 b 275 881 263 880 270 881 b 300 875 283 881 292 879 b 338 850 313 869 326 861 b 383 824 356 838 371 828 b 412 817 396 819 406 817 b 456 831 426 817 440 822 b 532 928 478 846 504 878 b 536 950 534 935 536 943 b 530 976 536 958 534 967 b 506 1007 522 992 514 1003 b 489 1014 498 1012 492 1014 b 469 1000 481 1014 475 1009 z "},"":{"ha":629,"x_min":0,"x_max":0,"o":"m 441 0 b 559 187 496 41 535 104 b 589 448 583 271 593 358 b 534 670 584 538 566 612 b 406 775 503 721 460 756 b 240 787 352 795 297 798 b 96 706 183 774 136 748 b 34 537 57 665 36 608 b 41 474 35 513 37 492 b 47 428 43 460 45 445 b 43 361 48 410 47 388 b 37 272 39 329 37 299 b 66 115 37 210 47 157 b 140 14 85 73 110 39 b 241 -35 171 -10 205 -26 b 347 -37 277 -43 312 -43 b 441 0 382 -31 414 -18 z m 363 544 b 380 415 374 507 379 464 b 356 329 381 374 373 346 b 285 331 340 312 315 313 b 218 427 251 355 229 387 b 213 549 208 468 206 509 b 248 644 220 590 231 621 b 305 660 265 667 284 673 b 363 544 326 648 345 609 z m 217 252 b 290 224 237 235 261 226 b 364 229 319 221 344 223 b 313 90 354 157 337 111 b 247 99 290 68 267 71 b 217 252 227 126 217 178 z m 333 840 b 356 833 340 836 348 833 b 372 836 361 833 367 833 b 406 859 389 841 399 849 b 417 886 414 869 417 879 b 412 909 417 894 415 901 b 359 1003 401 928 384 959 b 273 1145 334 1047 304 1095 b 252 1154 267 1151 260 1154 b 235 1150 247 1154 241 1152 b 183 1122 218 1145 200 1136 b 146 1085 165 1109 153 1097 b 135 1057 139 1074 135 1064 b 141 1040 135 1051 137 1045 b 333 840 197 970 261 903 z "},"":{"ha":629,"x_min":0,"x_max":0,"o":"m 441 0 b 559 187 496 41 535 104 b 589 448 583 271 593 358 b 534 670 584 538 566 612 b 406 775 503 721 460 756 b 240 787 352 795 297 798 b 96 706 183 774 136 748 b 34 537 57 665 36 608 b 41 474 35 513 37 492 b 47 428 43 460 45 445 b 43 361 48 410 47 388 b 37 272 39 329 37 299 b 66 115 37 210 47 157 b 140 14 85 73 110 39 b 241 -35 171 -10 205 -26 b 347 -37 277 -43 312 -43 b 441 0 382 -31 414 -18 z m 363 544 b 380 415 374 507 379 464 b 356 329 381 374 373 346 b 285 331 340 312 315 313 b 218 427 251 355 229 387 b 213 549 208 468 206 509 b 248 644 220 590 231 621 b 305 660 265 667 284 673 b 363 544 326 648 345 609 z m 217 252 b 290 224 237 235 261 226 b 364 229 319 221 344 223 b 313 90 354 157 337 111 b 247 99 290 68 267 71 b 217 252 227 126 217 178 z m 328 1126 b 246 994 297 1080 270 1036 b 197 905 222 952 206 923 b 192 884 193 898 192 891 b 199 863 192 877 194 869 b 227 838 207 850 216 842 b 249 833 236 835 243 833 b 271 840 257 833 264 836 b 451 1028 338 899 398 962 b 456 1044 454 1033 456 1038 b 449 1065 456 1050 454 1057 b 412 1105 440 1080 428 1093 b 370 1129 395 1118 381 1126 b 347 1135 359 1133 351 1135 b 328 1126 338 1135 332 1132 z "},"":{"ha":629,"x_min":0,"x_max":0,"o":"m 441 0 b 559 187 496 41 535 104 b 589 448 583 271 593 358 b 534 670 584 538 566 612 b 406 775 503 721 460 756 b 240 787 352 795 297 798 b 96 706 183 774 136 748 b 34 537 57 665 36 608 b 41 474 35 513 37 492 b 47 428 43 460 45 445 b 43 361 48 410 47 388 b 37 272 39 329 37 299 b 66 115 37 210 47 157 b 140 14 85 73 110 39 b 241 -35 171 -10 205 -26 b 347 -37 277 -43 312 -43 b 441 0 382 -31 414 -18 z m 363 544 b 380 415 374 507 379 464 b 356 329 381 374 373 346 b 285 331 340 312 315 313 b 218 427 251 355 229 387 b 213 549 208 468 206 509 b 248 644 220 590 231 621 b 305 660 265 667 284 673 b 363 544 326 648 345 609 z m 217 252 b 290 224 237 235 261 226 b 364 229 319 221 344 223 b 313 90 354 157 337 111 b 247 99 290 68 267 71 b 217 252 227 126 217 178 z m 318 1099 l 190 917 b 186 903 187 912 186 908 b 186 899 186 902 186 901 b 195 884 187 893 191 888 b 241 857 218 869 233 859 b 258 852 248 854 254 852 b 273 859 264 852 269 854 b 296 892 280 865 288 876 b 328 941 304 906 315 922 b 343 913 331 936 336 926 b 365 876 350 901 357 888 b 382 852 371 865 377 857 b 395 845 387 848 391 845 b 403 847 398 845 400 846 b 430 861 413 852 422 857 b 462 880 447 869 457 875 b 469 894 467 884 469 889 b 465 909 469 898 467 903 b 433 964 460 920 449 939 b 357 1097 415 994 390 1038 b 344 1109 353 1105 348 1109 b 336 1109 340 1109 337 1109 b 318 1099 329 1109 323 1105 z "},"":{"ha":629,"x_min":0,"x_max":0,"o":"m 441 0 b 559 187 496 41 535 104 b 589 448 583 271 593 358 b 534 670 584 538 566 612 b 406 775 503 721 460 756 b 240 787 352 795 297 798 b 96 706 183 774 136 748 b 34 537 57 665 36 608 b 41 474 35 513 37 492 b 47 428 43 460 45 445 b 43 361 48 410 47 388 b 37 272 39 329 37 299 b 66 115 37 210 47 157 b 140 14 85 73 110 39 b 241 -35 171 -10 205 -26 b 347 -37 277 -43 312 -43 b 441 0 382 -31 414 -18 z m 363 544 b 380 415 374 507 379 464 b 356 329 381 374 373 346 b 285 331 340 312 315 313 b 218 427 251 355 229 387 b 213 549 208 468 206 509 b 248 644 220 590 231 621 b 305 660 265 667 284 673 b 363 544 326 648 345 609 z m 217 252 b 290 224 237 235 261 226 b 364 229 319 221 344 223 b 313 90 354 157 337 111 b 247 99 290 68 267 71 b 217 252 227 126 217 178 z m 440 1019 b 406 975 427 994 416 979 b 382 968 396 970 388 968 b 360 974 374 968 368 970 b 317 1000 346 980 332 989 b 270 1029 299 1014 283 1023 b 238 1037 256 1034 246 1037 b 199 1025 226 1037 212 1033 b 128 935 176 1013 153 983 b 123 910 125 927 123 918 b 127 887 123 903 125 895 b 149 855 134 870 140 860 b 167 848 157 850 163 848 b 187 860 174 848 181 852 b 224 895 202 881 215 892 b 246 900 234 899 241 900 b 271 894 254 900 262 898 b 310 869 283 888 296 880 b 354 843 327 857 342 847 b 383 836 367 838 376 836 b 427 850 397 836 411 841 b 503 947 449 865 475 897 b 507 969 505 954 507 962 b 500 995 507 977 505 986 b 477 1026 493 1011 485 1022 b 460 1033 469 1031 463 1033 b 440 1019 452 1033 446 1028 z "},"":{"ha":629,"x_min":0,"x_max":0,"o":"m 441 0 b 559 187 496 41 535 104 b 589 448 583 271 593 358 b 534 670 584 538 566 612 b 406 775 503 721 460 756 b 240 787 352 795 297 798 b 96 706 183 774 136 748 b 34 537 57 665 36 608 b 41 474 35 513 37 492 b 47 428 43 460 45 445 b 43 361 48 410 47 388 b 37 272 39 329 37 299 b 66 115 37 210 47 157 b 140 14 85 73 110 39 b 241 -35 171 -10 205 -26 b 347 -37 277 -43 312 -43 b 441 0 382 -31 414 -18 z m 363 544 b 380 415 374 507 379 464 b 356 329 381 374 373 346 b 285 331 340 312 315 313 b 218 427 251 355 229 387 b 213 549 208 468 206 509 b 248 644 220 590 231 621 b 305 660 265 667 284 673 b 363 544 326 648 345 609 z m 217 252 b 290 224 237 235 261 226 b 364 229 319 221 344 223 b 313 90 354 157 337 111 b 247 99 290 68 267 71 b 217 252 227 126 217 178 z m 262 1002 l 227 1002 b 180 1000 206 1002 191 1002 b 159 986 168 998 161 994 b 156 962 157 979 156 971 b 157 938 156 955 156 947 b 159 875 159 922 159 901 b 167 860 159 869 162 864 b 186 854 172 856 179 854 b 204 854 191 854 197 854 b 241 852 216 853 228 852 b 275 857 254 852 265 854 b 290 875 285 860 290 866 b 291 905 290 884 290 894 b 292 943 292 918 292 930 l 292 949 b 286 987 292 964 290 977 b 262 1002 282 998 274 1002 z m 334 875 b 342 860 334 869 337 864 b 361 854 347 856 353 854 b 379 854 366 854 372 854 b 416 852 391 853 403 852 b 450 857 429 852 440 854 b 465 875 459 860 465 866 b 466 905 465 884 465 894 b 467 943 467 918 467 930 l 467 949 b 461 987 467 964 465 977 b 437 1002 457 998 449 1002 l 401 1002 b 356 1000 381 1002 366 1002 b 334 987 342 998 336 994 b 331 964 332 979 331 972 b 332 938 331 956 332 947 b 334 875 334 922 334 901 z "},"":{"ha":790,"x_min":0,"x_max":0,"o":"m 686 469 l 45 469 b 19 459 35 469 26 466 b 8 435 12 453 8 445 b 6 413 8 429 7 422 b 4 366 5 399 4 383 b 13 324 4 351 7 336 b 45 306 18 312 29 306 l 686 306 b 712 316 696 306 705 309 b 723 340 720 322 723 330 b 724 363 723 346 724 353 b 726 409 726 377 726 392 b 718 451 726 425 724 439 b 686 469 712 463 701 469 z m 418 269 l 371 269 b 311 267 344 269 323 269 b 281 248 294 264 283 258 b 278 218 279 239 278 229 b 279 184 278 208 279 197 b 282 100 281 163 282 135 b 293 82 282 93 286 87 b 318 74 300 77 308 74 b 342 73 324 74 332 73 b 377 71 353 72 365 71 l 390 71 b 435 77 407 71 422 73 b 454 100 448 81 454 89 b 456 141 454 112 454 125 b 458 199 457 161 458 180 b 450 250 458 219 455 236 b 418 269 444 262 433 269 z m 418 700 l 371 701 b 311 697 344 701 323 699 b 281 680 294 694 283 688 b 278 649 279 670 278 660 b 279 614 278 639 279 627 b 282 532 281 593 282 566 b 293 513 282 524 286 518 b 318 505 300 507 308 505 b 342 504 324 505 332 505 b 377 503 353 503 365 503 l 390 503 b 435 509 407 503 422 505 b 454 532 448 513 454 520 b 456 572 454 543 454 557 b 458 631 457 592 458 611 b 450 680 458 650 455 667 b 418 700 444 693 433 700 z "},"":{"ha":770,"x_min":0,"x_max":0,"o":"m 482 621 l 279 212 b 271 242 275 222 273 232 b 255 359 260 286 255 324 b 259 420 255 379 256 399 b 312 562 267 475 284 522 b 428 629 340 601 378 623 l 436 629 b 482 621 453 629 468 626 z m 355 107 l 567 534 b 587 474 576 515 583 495 b 597 375 593 435 597 401 b 591 297 597 349 595 323 b 543 158 583 243 566 197 b 448 88 518 119 486 96 b 426 87 440 87 433 87 b 355 107 399 87 376 94 z m 635 671 l 675 752 b 676 758 675 754 675 756 b 669 781 677 766 675 773 b 637 804 661 790 650 798 b 606 814 623 810 613 814 b 593 814 599 815 595 815 b 572 804 583 814 576 810 l 542 742 b 406 770 503 760 457 769 b 197 708 322 768 252 748 b 75 555 142 668 101 616 b 34 359 47 493 34 428 l 34 356 b 77 161 35 287 50 222 b 186 25 103 104 140 59 l 153 -41 l 152 -47 b 159 -71 151 -55 153 -63 b 191 -96 167 -81 178 -89 b 222 -106 204 -102 214 -106 b 235 -108 229 -107 233 -108 b 254 -97 244 -107 251 -103 l 290 -24 b 385 -35 319 -31 351 -35 b 405 -35 391 -35 398 -35 b 589 35 478 -28 539 -5 b 699 186 638 75 675 125 b 736 378 724 247 736 311 b 700 568 736 446 724 509 b 635 671 684 607 662 642 z "},"":{"ha":747,"x_min":0,"x_max":0,"o":"m 688 31 b 628 111 661 41 640 67 b 609 269 616 155 610 207 b 614 457 608 331 610 393 b 629 625 619 520 624 576 b 635 696 631 654 634 677 b 608 758 637 722 629 743 b 534 784 588 773 564 781 b 456 770 506 786 479 781 b 418 713 433 758 420 739 b 408 578 416 685 413 640 b 383 380 402 515 394 449 b 343 203 373 310 359 251 b 284 132 327 155 307 131 b 237 227 260 138 244 170 b 238 439 230 284 230 355 b 282 692 245 522 260 607 b 260 741 286 710 279 726 b 192 771 242 755 220 766 b 115 767 165 777 139 775 b 66 713 90 758 74 741 b 45 589 58 686 52 644 b 35 405 38 534 35 473 b 47 212 35 337 39 273 b 100 56 56 151 73 99 b 218 -16 127 13 166 -11 b 332 1 269 -22 307 -16 b 398 79 357 18 379 44 b 438 185 418 113 431 149 b 486 42 441 134 457 85 b 610 -35 515 -2 557 -28 b 688 -25 645 -37 671 -34 b 713 6 705 -16 713 -5 b 688 31 713 18 705 26 z m 336 847 b 359 840 343 842 351 840 b 376 842 365 840 370 840 b 410 866 392 848 403 856 b 420 893 417 876 420 886 b 415 916 420 901 418 908 b 362 1010 405 935 387 966 b 276 1152 337 1054 308 1101 b 256 1160 271 1158 264 1160 b 238 1157 251 1160 245 1159 b 186 1129 221 1152 204 1143 b 149 1092 169 1116 157 1103 b 139 1064 142 1080 139 1071 b 144 1047 139 1058 140 1052 b 336 847 201 977 264 909 z "},"":{"ha":747,"x_min":0,"x_max":0,"o":"m 688 31 b 628 111 661 41 640 67 b 609 269 616 155 610 207 b 614 457 608 331 610 393 b 629 625 619 520 624 576 b 635 696 631 654 634 677 b 608 758 637 722 629 743 b 534 784 588 773 564 781 b 456 770 506 786 479 781 b 418 713 433 758 420 739 b 408 578 416 685 413 640 b 383 380 402 515 394 449 b 343 203 373 310 359 251 b 284 132 327 155 307 131 b 237 227 260 138 244 170 b 238 439 230 284 230 355 b 282 692 245 522 260 607 b 260 741 286 710 279 726 b 192 771 242 755 220 766 b 115 767 165 777 139 775 b 66 713 90 758 74 741 b 45 589 58 686 52 644 b 35 405 38 534 35 473 b 47 212 35 337 39 273 b 100 56 56 151 73 99 b 218 -16 127 13 166 -11 b 332 1 269 -22 307 -16 b 398 79 357 18 379 44 b 438 185 418 113 431 149 b 486 42 441 134 457 85 b 610 -35 515 -2 557 -28 b 688 -25 645 -37 671 -34 b 713 6 705 -16 713 -5 b 688 31 713 18 705 26 z m 418 1123 b 337 991 387 1076 361 1032 b 287 902 313 949 296 920 b 282 881 283 895 282 888 b 289 859 282 873 284 866 b 317 835 298 846 307 838 b 339 830 327 831 334 830 b 361 837 347 830 355 832 b 541 1025 429 896 488 958 b 547 1040 545 1029 547 1035 b 539 1062 547 1047 544 1054 b 502 1102 531 1076 518 1090 b 460 1126 486 1114 472 1122 b 437 1131 450 1129 441 1131 b 418 1123 429 1131 422 1128 z "},"":{"ha":747,"x_min":0,"x_max":0,"o":"m 688 31 b 628 111 661 41 640 67 b 609 269 616 155 610 207 b 614 457 608 331 610 393 b 629 625 619 520 624 576 b 635 696 631 654 634 677 b 608 758 637 722 629 743 b 534 784 588 773 564 781 b 456 770 506 786 479 781 b 418 713 433 758 420 739 b 408 578 416 685 413 640 b 383 380 402 515 394 449 b 343 203 373 310 359 251 b 284 132 327 155 307 131 b 237 227 260 138 244 170 b 238 439 230 284 230 355 b 282 692 245 522 260 607 b 260 741 286 710 279 726 b 192 771 242 755 220 766 b 115 767 165 777 139 775 b 66 713 90 758 74 741 b 45 589 58 686 52 644 b 35 405 38 534 35 473 b 47 212 35 337 39 273 b 100 56 56 151 73 99 b 218 -16 127 13 166 -11 b 332 1 269 -22 307 -16 b 398 79 357 18 379 44 b 438 185 418 113 431 149 b 486 42 441 134 457 85 b 610 -35 515 -2 557 -28 b 688 -25 645 -37 671 -34 b 713 6 705 -16 713 -5 b 688 31 713 18 705 26 z m 331 1097 l 203 914 b 199 901 200 909 199 905 b 199 897 199 899 199 898 b 209 882 201 890 203 886 b 254 854 231 866 246 857 b 271 850 262 851 267 850 b 286 856 277 850 282 852 b 309 890 293 863 300 873 b 340 939 317 903 328 920 b 356 911 344 933 349 924 b 378 873 363 898 370 886 b 395 850 385 862 390 854 b 408 842 399 845 404 842 b 416 844 411 842 414 843 b 444 859 427 850 435 854 b 475 877 460 866 471 872 b 481 891 479 882 481 886 b 478 906 481 895 480 900 b 447 962 473 918 462 937 b 370 1095 428 991 403 1036 b 357 1106 366 1102 361 1106 b 349 1106 353 1106 350 1106 b 331 1097 342 1106 336 1103 z "},"":{"ha":747,"x_min":0,"x_max":0,"o":"m 688 31 b 628 111 661 41 640 67 b 609 269 616 155 610 207 b 614 457 608 331 610 393 b 629 625 619 520 624 576 b 635 696 631 654 634 677 b 608 758 637 722 629 743 b 534 784 588 773 564 781 b 456 770 506 786 479 781 b 418 713 433 758 420 739 b 408 578 416 685 413 640 b 383 380 402 515 394 449 b 343 203 373 310 359 251 b 284 132 327 155 307 131 b 237 227 260 138 244 170 b 238 439 230 284 230 355 b 282 692 245 522 260 607 b 260 741 286 710 279 726 b 192 771 242 755 220 766 b 115 767 165 777 139 775 b 66 713 90 758 74 741 b 45 589 58 686 52 644 b 35 405 38 534 35 473 b 47 212 35 337 39 273 b 100 56 56 151 73 99 b 218 -16 127 13 166 -11 b 332 1 269 -22 307 -16 b 398 79 357 18 379 44 b 438 185 418 113 431 149 b 486 42 441 134 457 85 b 610 -35 515 -2 557 -28 b 688 -25 645 -37 671 -34 b 713 6 705 -16 713 -5 b 688 31 713 18 705 26 z m 331 1000 l 295 1000 b 250 998 275 1000 260 1000 b 227 984 237 996 229 991 b 224 960 225 977 224 969 b 226 936 224 953 225 945 b 228 873 227 920 228 899 b 236 858 228 867 231 862 b 255 852 241 854 248 852 b 273 852 259 852 265 852 b 310 850 284 851 296 850 b 343 855 322 850 334 852 b 358 873 353 858 358 864 b 359 903 358 882 359 892 b 361 941 361 916 361 928 l 361 947 b 355 985 361 962 359 975 b 331 1000 351 996 342 1000 z m 403 873 b 411 858 403 867 406 862 b 430 852 416 854 422 852 b 448 852 434 852 440 852 b 484 850 459 851 471 850 b 518 855 497 850 509 852 b 533 873 528 858 533 864 b 534 903 533 882 533 892 b 536 941 535 916 536 928 l 536 947 b 530 985 536 962 534 975 b 506 1000 526 996 517 1000 l 470 1000 b 425 998 450 1000 435 1000 b 402 985 412 996 404 991 b 399 962 401 977 399 970 b 401 936 399 954 400 945 b 403 873 402 920 403 899 z "},"":{"ha":688,"x_min":0,"x_max":0,"o":"m 621 730 b 567 783 614 758 595 774 b 481 777 538 790 509 788 b 433 716 454 766 437 746 b 425 568 435 680 433 630 b 389 380 417 507 405 444 b 334 219 374 315 355 262 b 267 157 313 176 291 156 b 224 237 243 162 229 189 b 234 422 219 286 222 347 b 284 661 245 496 262 576 b 251 725 289 686 277 707 b 163 749 225 743 195 751 b 92 692 130 747 106 728 b 54 540 79 658 66 607 b 34 326 41 473 34 401 b 76 128 35 252 48 185 b 222 22 104 71 153 36 b 362 57 271 12 317 24 b 471 262 406 91 443 159 b 446 37 469 180 460 105 b 376 -137 431 -30 408 -88 b 336 -168 361 -157 349 -168 b 304 -151 325 -169 314 -163 b 275 -112 293 -140 283 -127 b 257 -87 269 -103 263 -94 b 210 -70 246 -73 230 -67 b 148 -115 190 -73 169 -88 b 142 -187 134 -135 132 -159 b 205 -265 152 -216 173 -241 b 334 -309 237 -289 281 -304 b 509 -238 399 -313 458 -290 b 620 -35 560 -186 597 -119 b 654 237 643 47 654 138 b 645 522 654 334 650 429 b 621 730 640 613 631 683 z m 399 1147 b 319 1015 370 1100 342 1056 b 269 926 295 972 278 943 b 264 905 265 918 264 911 b 271 883 264 897 266 890 b 298 859 279 870 288 862 b 321 854 309 855 316 854 b 343 861 329 854 336 856 b 523 1048 410 920 470 982 b 528 1064 526 1053 528 1059 b 521 1086 528 1071 526 1078 b 484 1126 513 1100 500 1114 b 442 1149 467 1138 454 1146 b 418 1155 431 1153 423 1155 b 399 1147 410 1155 404 1152 z "},"":{"ha":758,"x_min":0,"x_max":0,"o":"m 306 1084 b 282 1143 308 1109 300 1128 b 212 1171 264 1158 240 1167 b 134 1158 183 1173 157 1169 b 93 1101 111 1147 98 1128 b 64 708 85 1048 75 916 b 47 210 52 499 46 333 b 61 -120 47 86 52 -24 b 113 -357 71 -216 87 -295 b 193 -439 131 -394 157 -422 b 304 -464 229 -457 267 -465 b 397 -431 342 -462 373 -451 b 404 -422 399 -429 402 -426 b 406 -411 407 -419 407 -415 b 391 -398 404 -407 399 -403 b 308 -284 355 -378 328 -340 b 266 -89 288 -228 274 -163 b 251 130 257 -15 252 58 b 334 7 268 76 296 35 b 479 -23 373 -21 421 -31 b 610 68 530 -14 574 17 b 691 256 646 121 673 183 b 718 473 709 329 718 401 b 682 654 716 545 705 605 b 603 739 665 694 638 722 b 491 756 568 755 530 762 b 386 697 452 751 416 731 b 303 571 355 663 328 621 b 250 440 279 521 260 477 b 258 543 252 471 255 506 b 306 1084 287 878 302 1059 z m 471 618 b 512 562 493 621 507 602 b 511 412 518 521 517 471 b 477 240 505 352 493 295 b 420 119 461 185 442 145 b 364 103 401 99 382 94 b 323 163 347 112 332 132 b 316 277 313 194 311 232 b 347 413 322 319 332 365 b 400 542 361 461 379 504 b 471 618 421 580 445 605 z "},"":{"ha":688,"x_min":0,"x_max":0,"o":"m 621 730 b 567 783 614 758 595 774 b 481 777 538 790 509 788 b 433 716 454 766 437 746 b 425 568 435 680 433 630 b 389 380 417 507 405 444 b 334 219 374 315 355 262 b 267 157 313 176 291 156 b 224 237 243 162 229 189 b 234 422 219 286 222 347 b 284 661 245 496 262 576 b 251 725 289 686 277 707 b 163 749 225 743 195 751 b 92 692 130 747 106 728 b 54 540 79 658 66 607 b 34 326 41 473 34 401 b 76 128 35 252 48 185 b 222 22 104 71 153 36 b 362 57 271 12 317 24 b 471 262 406 91 443 159 b 446 37 469 180 460 105 b 376 -137 431 -30 408 -88 b 336 -168 361 -157 349 -168 b 304 -151 325 -169 314 -163 b 275 -112 293 -140 283 -127 b 257 -87 269 -103 263 -94 b 210 -70 246 -73 230 -67 b 148 -115 190 -73 169 -88 b 142 -187 134 -135 132 -159 b 205 -265 152 -216 173 -241 b 334 -309 237 -289 281 -304 b 509 -238 399 -313 458 -290 b 620 -35 560 -186 597 -119 b 654 237 643 47 654 138 b 645 522 654 334 650 429 b 621 730 640 613 631 683 z m 307 987 l 271 987 b 226 985 251 987 236 986 b 203 970 213 983 205 978 b 201 946 202 964 201 956 b 202 922 201 939 201 931 b 204 859 203 906 204 885 b 212 844 204 853 207 848 b 231 839 218 840 224 839 b 249 838 236 839 241 838 b 286 837 260 838 273 837 b 320 842 299 837 310 838 b 334 859 330 844 334 850 b 336 890 334 868 335 878 b 338 927 337 902 338 915 l 337 934 b 331 972 337 949 335 962 b 307 987 327 982 319 987 z m 379 859 b 387 844 379 853 382 848 b 406 839 392 840 399 839 b 424 838 411 839 416 838 b 461 837 435 838 448 837 b 494 842 474 837 485 838 b 509 859 505 844 509 850 b 511 890 509 868 510 878 b 512 927 512 902 512 915 l 512 934 b 506 972 512 949 510 962 b 482 987 502 982 494 987 l 446 987 b 401 985 426 987 411 986 b 378 971 388 983 380 978 b 376 948 377 964 376 956 b 377 922 376 941 376 932 b 379 859 378 906 379 885 z "},"":{"ha":374,"x_min":0,"x_max":0,"o":"m 316 32 b 259 106 290 41 270 66 b 240 254 248 146 241 196 b 245 430 239 311 241 370 b 260 591 250 490 255 544 b 267 671 263 624 266 650 b 241 734 270 699 261 719 b 170 760 222 749 198 758 b 96 746 142 762 117 758 b 58 688 73 734 60 715 b 49 565 56 651 53 610 b 37 369 43 501 39 436 b 48 180 35 302 39 239 b 108 33 58 121 78 72 b 241 -35 138 -5 182 -28 b 315 -24 274 -37 299 -34 b 340 7 332 -16 340 -5 b 316 32 340 18 332 26 z "},"":{"ha":418,"x_min":0,"x_max":0,"o":"m 261 798 b 285 790 268 793 276 790 b 301 793 290 790 295 791 b 335 817 317 798 328 806 b 345 844 342 827 345 836 b 340 867 345 851 343 859 b 287 960 330 885 313 916 b 201 1103 262 1004 233 1052 b 180 1111 196 1108 189 1111 b 163 1107 176 1111 170 1109 b 111 1080 146 1103 129 1093 b 75 1042 94 1067 81 1054 b 64 1015 67 1031 64 1021 b 69 998 64 1008 65 1002 b 261 798 125 927 189 860 z "},"":{"ha":418,"x_min":0,"x_max":0,"o":"m 220 1107 b 139 975 190 1061 163 1017 b 90 886 115 933 99 904 b 84 865 86 879 84 872 b 92 844 84 858 87 850 b 119 819 100 831 109 823 b 141 814 129 816 136 814 b 163 821 150 814 157 817 b 344 1009 231 880 291 943 b 349 1025 347 1014 349 1019 b 342 1046 349 1031 347 1038 b 304 1086 333 1061 321 1074 b 263 1110 288 1099 274 1107 b 239 1116 252 1114 244 1116 b 220 1107 231 1116 225 1113 z "},"":{"ha":346,"x_min":0,"x_max":0,"o":"m 166 1094 l 38 911 b 34 898 35 907 34 903 b 35 894 34 897 34 895 b 43 879 35 888 39 883 b 89 851 66 863 81 854 b 106 847 96 848 102 847 b 121 853 112 847 117 849 b 144 887 128 860 136 871 b 176 936 152 901 163 917 b 191 908 179 930 184 921 b 213 871 198 895 205 883 b 230 847 219 859 225 852 b 243 840 235 842 239 840 b 251 842 246 840 248 840 b 278 856 261 847 271 852 b 310 874 295 863 305 869 b 317 888 315 879 317 884 b 313 903 317 892 315 897 b 281 959 308 915 297 934 b 205 1092 263 988 238 1033 b 192 1103 201 1099 196 1103 b 184 1103 188 1103 185 1103 b 166 1094 177 1103 171 1100 z "},"":{"ha":585,"x_min":0,"x_max":0,"o":"m 425 992 b 391 947 412 966 400 951 b 366 941 380 943 372 941 b 345 947 359 941 351 943 b 301 972 330 953 316 962 b 254 1002 283 987 268 996 b 222 1010 241 1007 231 1010 b 182 998 210 1010 197 1006 b 113 908 161 985 138 956 b 107 883 109 900 107 891 b 112 860 107 876 109 867 b 133 828 118 843 125 833 b 151 821 141 823 147 821 b 172 833 158 821 165 825 b 208 868 186 854 199 865 b 231 873 218 871 225 873 b 254 867 239 873 247 871 b 294 842 268 861 281 852 b 338 816 311 829 326 820 b 368 809 351 811 361 809 b 410 823 381 809 395 814 b 486 920 433 838 458 870 b 491 942 490 927 491 935 b 485 968 491 950 489 959 b 461 999 477 984 469 995 b 444 1006 453 1004 448 1006 b 425 992 437 1006 430 1001 z "},"":{"ha":284,"x_min":0,"x_max":0,"o":"m 164 987 l 120 987 b 64 984 96 987 77 986 b 37 967 49 982 40 976 b 34 937 35 958 34 948 b 35 908 34 928 35 919 b 38 831 37 888 38 862 b 48 813 38 824 41 818 b 71 806 54 808 62 806 b 93 805 77 806 84 806 b 138 804 107 804 122 804 b 180 809 154 804 168 806 b 197 831 191 813 197 820 b 199 868 197 842 198 854 b 201 913 200 884 201 899 l 201 922 b 193 968 201 941 198 956 b 164 987 189 981 178 987 z "},"":{"ha":529,"x_min":0,"x_max":0,"o":"m 241 987 l 205 987 b 159 985 184 987 170 986 b 137 970 146 983 139 978 b 134 946 136 964 134 956 b 136 922 134 939 135 931 b 138 859 137 906 138 885 b 146 844 138 853 140 848 b 165 839 151 840 157 839 b 183 838 170 839 176 838 b 220 837 194 838 206 837 b 254 842 233 837 243 838 b 268 859 263 844 268 850 b 269 890 268 868 269 878 b 271 927 271 902 271 915 l 271 934 b 264 972 271 949 269 962 b 241 987 260 982 253 987 z m 313 859 b 321 844 313 853 315 848 b 340 839 326 840 332 839 b 357 838 345 839 351 838 b 395 837 369 838 381 837 b 429 842 408 837 418 838 b 443 859 438 844 443 850 b 444 890 443 868 444 878 b 446 927 446 902 446 915 l 446 934 b 439 972 446 949 444 962 b 416 987 435 982 428 987 l 380 987 b 334 985 359 987 345 986 b 312 971 321 983 314 978 b 310 948 311 964 310 956 b 311 922 310 941 310 932 b 313 859 312 906 313 885 z "},"":{"ha":514,"x_min":0,"x_max":0,"o":"m 377 812 b 421 882 406 840 420 863 b 422 913 421 901 422 911 b 392 1002 422 946 412 975 b 302 1050 371 1029 340 1045 l 295 1050 b 206 1016 260 1050 231 1039 b 161 924 180 992 165 961 b 161 916 161 921 161 918 b 193 823 161 878 172 848 b 257 781 216 797 238 783 b 293 777 277 779 289 777 b 377 812 322 777 350 789 z m 249 915 b 265 950 250 932 256 943 b 296 960 275 957 286 960 b 301 960 298 960 299 960 b 328 944 313 958 322 953 b 338 910 335 932 338 920 b 335 893 338 904 337 899 b 311 867 329 880 321 871 b 290 862 302 864 294 862 b 267 869 281 862 274 864 b 249 915 256 876 250 892 z "},"":{"ha":521,"x_min":0,"x_max":0,"o":"m 282 803 b 298 794 286 797 292 794 b 305 794 299 794 301 794 b 317 805 309 795 313 798 b 385 923 346 857 369 897 b 413 973 399 945 408 962 b 416 986 415 978 416 983 b 410 999 416 991 414 995 b 382 1015 406 1003 397 1008 b 358 1027 375 1019 367 1023 b 351 1029 355 1029 353 1029 b 339 1023 347 1029 343 1027 b 324 1002 334 1019 330 1012 b 304 968 317 991 311 980 b 291 943 298 957 294 949 b 262 987 279 961 269 975 b 242 1017 255 1002 248 1012 b 229 1023 238 1021 234 1023 b 213 1019 225 1023 220 1021 b 173 994 206 1017 193 1008 b 165 981 168 991 165 987 b 164 977 164 980 164 979 b 168 966 164 973 165 970 z "},"":{"ha":344,"x_min":0,"x_max":0,"o":"m 143 -132 b 144 -124 143 -130 144 -127 b 144 -110 144 -119 144 -115 l 144 -102 b 140 -82 144 -95 142 -88 b 127 -73 138 -77 134 -73 b 115 -72 124 -73 119 -73 b 100 -71 110 -72 104 -71 b 83 -73 94 -71 88 -72 b 66 -88 73 -74 67 -79 b 65 -140 66 -108 66 -125 b 64 -169 64 -151 64 -161 b 69 -207 64 -188 66 -201 b 87 -215 72 -212 78 -215 b 113 -211 94 -215 102 -214 b 132 -209 120 -210 127 -209 b 149 -212 139 -209 144 -210 b 158 -223 155 -215 158 -218 b 157 -226 158 -224 158 -225 b 145 -237 156 -232 152 -235 b 126 -241 138 -239 132 -241 b 95 -236 118 -241 107 -239 b 90 -235 94 -236 92 -235 b 83 -237 87 -235 85 -236 b 75 -248 79 -239 77 -243 b 72 -260 75 -251 73 -255 b 64 -285 68 -271 65 -279 b 64 -294 64 -290 64 -294 b 75 -311 64 -303 67 -308 b 128 -318 94 -315 113 -318 b 183 -305 150 -318 168 -314 b 229 -258 210 -291 224 -275 b 235 -222 233 -241 235 -229 b 220 -172 235 -204 230 -188 b 143 -132 205 -149 180 -136 z "},"":{"ha":753,"x_min":0,"x_max":0,"o":"m 642 454 l 51 454 b 27 444 42 454 34 451 b 18 420 20 437 18 429 b 16 397 18 414 17 406 b 14 350 14 382 14 367 b 22 307 14 334 16 319 b 51 289 26 295 37 289 l 642 289 b 667 299 652 289 660 292 b 676 323 673 306 676 314 b 677 347 676 329 677 337 b 680 393 679 361 680 376 b 671 435 680 409 677 423 b 642 454 667 448 656 454 z "},"":{"ha":987,"x_min":0,"x_max":0,"o":"m 876 489 l 58 489 b 34 479 49 489 41 486 b 24 454 28 472 24 464 b 23 432 24 448 24 441 b 20 385 21 417 20 401 b 28 341 20 368 23 354 b 58 323 33 329 43 323 l 876 323 b 901 333 886 323 894 326 b 911 357 907 340 911 348 b 912 380 911 363 911 371 b 914 427 913 395 914 410 b 906 471 914 444 911 458 b 876 489 901 483 891 489 z "}}}
